M48
;GenerationSoftware,Autodesk,EAGLE,9.6.2*%
;CreationDate,2020-11-27T21:58:11Z*%
FMAT,2
ICI,OFF
METRIC,TZ,000.000
T9C0.305
T8C0.400
T7C0.508
T6C0.650
T5C1.016
T4C1.100
T3C1.600
T2C3.302
T1C3.800
%
G90
M71
T1
X44200Y16300
X44200Y62528
X106176Y16300
X106176Y62528
X44200Y108756
X106176Y108756
T2
X2540Y43180
X2540Y94996
X117856Y135636
X55880Y43180
X64516Y135636
X55880Y2540
X2540Y2540
X117856Y94996
X117856Y43180
X64516Y43180
X117856Y2540
X64516Y2540
X64516Y94996
X55880Y89408
X2540Y89408
X55880Y48768
X2540Y48768
X117856Y89408
X64516Y89408
X117856Y48768
X64516Y48768
X55880Y135636
X2540Y135636
X55880Y94996
T3
X86106Y30320
X86106Y76548
X24130Y122776
X24130Y30320
X24130Y76548
X86106Y122776
T4
X86106Y102776
X24130Y56548
X86106Y10320
X24130Y102776
X24130Y10320
X86106Y56548
T5
X108966Y90678
X111506Y90678
X114046Y90678
X79756Y50038
X9398Y98806
X11938Y98806
X73914Y98806
X22860Y136906
X20320Y136906
X17780Y136906
X119126Y84328
X15240Y136906
X12700Y136906
X41910Y134366
X39370Y134366
X36830Y134366
X34290Y134366
X9398Y6350
X11938Y6350
X31750Y134366
X29210Y134366
X41910Y136906
X39370Y136906
X36830Y136906
X34290Y136906
X31750Y136906
X29210Y136906
X57150Y125476
X57150Y128016
X22860Y44450
X20320Y44450
X17780Y44450
X15240Y44450
X12700Y44450
X41910Y41910
X39370Y41910
X36830Y41910
X34290Y41910
X31750Y41910
X29210Y41910
X41910Y44450
X39370Y44450
X36830Y44450
X34290Y44450
X31750Y44450
X29210Y44450
X57150Y33020
X57150Y35560
X57150Y38100
X44450Y44450
X46990Y44450
X49530Y44450
X52070Y44450
X17780Y3810
X57150Y130556
X44450Y136906
X46990Y136906
X49530Y136906
X52070Y136906
X17780Y96266
X71374Y98806
X84836Y136906
X71374Y6350
X73914Y6350
X82296Y136906
X79756Y136906
X77216Y136906
X74676Y136906
X103886Y134366
X101346Y134366
X98806Y134366
X96266Y134366
X93726Y134366
X91186Y134366
X84836Y44450
X82296Y44450
X79756Y44450
X77216Y44450
X74676Y44450
X103886Y41910
X101346Y41910
X98806Y41910
X96266Y41910
X93726Y41910
X91186Y41910
X103886Y44450
X101346Y44450
X98806Y44450
X96266Y44450
X93726Y44450
X91186Y44450
X119126Y33020
X119126Y35560
X119126Y38100
X106426Y44450
X108966Y44450
X111506Y44450
X114046Y44450
X79756Y3810
X103886Y136906
X101346Y136906
X98806Y136906
X96266Y136906
X93726Y136906
X91186Y136906
X119126Y125476
X119126Y128016
X9398Y52578
X11938Y52578
X119126Y130556
X106426Y136906
X108966Y136906
X111506Y136906
X114046Y136906
X79756Y96266
X22860Y90678
X20320Y90678
X17780Y90678
X15240Y90678
X12700Y90678
X41910Y88138
X39370Y88138
X36830Y88138
X34290Y88138
X31750Y88138
X29210Y88138
X41910Y90678
X39370Y90678
X36830Y90678
X34290Y90678
X31750Y90678
X29210Y90678
X57150Y79248
X57150Y81788
X57150Y84328
X44450Y90678
X46990Y90678
X49530Y90678
X52070Y90678
X17780Y50038
X71374Y52578
X73914Y52578
X84836Y90678
X82296Y90678
X79756Y90678
X77216Y90678
X74676Y90678
X103886Y88138
X101346Y88138
X98806Y88138
X96266Y88138
X93726Y88138
X91186Y88138
X103886Y90678
X101346Y90678
X98806Y90678
X96266Y90678
X93726Y90678
X91186Y90678
X119126Y79248
X119126Y81788
X106426Y90678
T6
X4905Y13050
X4905Y7270
X66881Y13050
X66881Y7270
X4905Y59278
X4905Y53498
X66881Y59278
X66881Y53498
X4905Y105506
X4905Y99726
X66881Y105506
X66881Y99726
T7
X76581Y20320
X76581Y21590
X76581Y22860
X77851Y67818
X15875Y19050
X15875Y20320
X15875Y21590
X15875Y22860
X15875Y17780
X14605Y19050
X14605Y20320
X14605Y21590
X14605Y22860
X14605Y17780
X76581Y17780
X14605Y69088
X15875Y65278
X15875Y66548
X15875Y67818
X15875Y69088
X15875Y64008
X14605Y65278
X77851Y19050
X77851Y20320
X77851Y21590
X77851Y22860
X77851Y17780
X76581Y19050
X14605Y67818
X14605Y111506
X77851Y111506
X77851Y112776
X77851Y114046
X77851Y115316
X77851Y110236
X76581Y111506
X76581Y112776
X76581Y114046
X76581Y115316
X76581Y110236
X15875Y111506
X15875Y112776
X15875Y114046
X15875Y115316
X15875Y110236
X14605Y64008
X14605Y112776
X14605Y114046
X14605Y115316
X14605Y110236
X77851Y65278
X77851Y66548
X77851Y69088
X77851Y64008
X76581Y65278
X76581Y66548
X76581Y67818
X76581Y69088
X76581Y64008
X14605Y66548
T8
X51135Y108066
X51135Y122566
X63231Y106934
X63231Y98298
X67411Y98298
X67411Y106934
X67411Y52070
X1255Y5842
X5435Y5842
X57095Y15610
X57095Y30110
X51135Y15610
X51135Y30110
X63231Y14478
X63231Y5842
X67411Y5842
X67411Y14478
X119071Y15610
X67411Y60706
X119071Y30110
X113111Y15610
X113111Y30110
X1255Y60706
X1255Y52070
X5435Y52070
X5435Y60706
X63231Y60706
X5435Y14478
X119071Y61838
X57095Y61838
X119071Y76338
X113111Y61838
X63231Y52070
X113111Y76338
X1255Y106934
X1255Y98298
X5435Y98298
X1255Y14478
X5435Y106934
X57095Y108066
X57095Y76338
X51135Y61838
X57095Y122566
X51135Y76338
X119071Y108066
X119071Y122566
X113111Y108066
X113111Y122566
T9
X91186Y74168
X83947Y72847
X91186Y72898
X82296Y79553
X83058Y78613
X86614Y81661
X90170Y81661
X79756Y82026
X12192Y107950
X12192Y106426
X10160Y102616
X11430Y102616
X8890Y102616
X7620Y107315
X7620Y98044
X15875Y101473
X16764Y101473
X20320Y105029
X20320Y103632
X17526Y103124
X20320Y113030
X20320Y111506
X24892Y112268
X17399Y122047
X3937Y128397
X14478Y129794
X52324Y119380
X52324Y117856
X52324Y116332
X52324Y114808
X52324Y111633
X51308Y101346
X54991Y101854
X44958Y94488
X37084Y94488
X21336Y94488
X57150Y120396
X57150Y110236
X47879Y112141
X16383Y106553
X51435Y102616
X27559Y122809
X30353Y100711
X7747Y126111
X5461Y133096
X42672Y100711
X17018Y104902
X4826Y103378
X17018Y104064
X4826Y101854
X52324Y112903
X49022Y106299
X54356Y106045
X55245Y102870
X34290Y98806
X34290Y106388
X39751Y105791
X55245Y109220
X40767Y105918
X54356Y109220
X28067Y105156
X28575Y99441
X12700Y100457
X21463Y105410
X20574Y115824
X16510Y108712
X24257Y106172
X31496Y98298
X40640Y111506
X39370Y112522
X36830Y110871
X23876Y115062
X29464Y115824
X34290Y116586
X31115Y107823
X28723Y104627
X44450Y96266
X31750Y105791
X50038Y97536
X22479Y101600
X21590Y120396
X29210Y121666
X20447Y121186
X29210Y120396
X21971Y119075
X29210Y119126
X20320Y125781
X114300Y25400
X24638Y127889
X28194Y127889
X17780Y128254
X74168Y107950
X74168Y106426
X72136Y102616
X73406Y102616
X70866Y102616
X69596Y107315
X69596Y98044
X77851Y101473
X78740Y101473
X82296Y105029
X82296Y103632
X79502Y103124
X82296Y113030
X82296Y111506
X86868Y112268
X79375Y122047
X65913Y128397
X76454Y129794
X114300Y119380
X114300Y117856
X114300Y116332
X114300Y114808
X114300Y111633
X113284Y101346
X116967Y101854
X106934Y94488
X99060Y94488
X83312Y94488
X119126Y120396
X119126Y110236
X109855Y112141
X78359Y106553
X113411Y102616
X89535Y122809
X92329Y100711
X69723Y126111
X67437Y133096
X104648Y100711
X78994Y104902
X66802Y103378
X78994Y104064
X66802Y101854
X114300Y112903
X110998Y106299
X116332Y106045
X117221Y102870
X96266Y98806
X96266Y106388
X101727Y105791
X117221Y109220
X102743Y105918
X116332Y109220
X90043Y105156
X90551Y99441
X74676Y100457
X83439Y105410
X82550Y115824
X78486Y108712
X86233Y106172
X93472Y98298
X102616Y111506
X101346Y112522
X98806Y110871
X85852Y115062
X91440Y115824
X96266Y116586
X93091Y107823
X90699Y104627
X106426Y96266
X93726Y105791
X112014Y97536
X84455Y101600
X83566Y120396
X91186Y121666
X82423Y121186
X91186Y120396
X83947Y119075
X91186Y119126
X82296Y125781
X83058Y124841
X86614Y127889
X90170Y127889
X79756Y128254
X12192Y15494
X12192Y13970
X10160Y10160
X11430Y10160
X8890Y10160
X7620Y14859
X7620Y5588
X15875Y9017
X16764Y9017
X20320Y12573
X20320Y11176
X17526Y10668
X20320Y20574
X20320Y19050
X24892Y19812
X21082Y124841
X17399Y29591
X3937Y35941
X14478Y37338
X52324Y26924
X52324Y25400
X52324Y23876
X52324Y22352
X52324Y19177
X51308Y8890
X54991Y9398
X44958Y2032
X37084Y2032
X21336Y2032
X57150Y27940
X57150Y17780
X47879Y19685
X16383Y14097
X51435Y10160
X27559Y30353
X30353Y8255
X7747Y33655
X5461Y40640
X42672Y8255
X17018Y12446
X4826Y10922
X17018Y11608
X4826Y9398
X52324Y20447
X49022Y13843
X54356Y13589
X55245Y10414
X34290Y6350
X34290Y13932
X39751Y13335
X55245Y16764
X40767Y13462
X54356Y16764
X28067Y12700
X28575Y6985
X12700Y8001
X21463Y12954
X20574Y23368
X16510Y16256
X24257Y13716
X31496Y5842
X40640Y19050
X39370Y20066
X36830Y18415
X23876Y22606
X29464Y23368
X34290Y24130
X31115Y15367
X28723Y12171
X44450Y3810
X31750Y13335
X50038Y5080
X22479Y9144
X21590Y27940
X29210Y29210
X20447Y28730
X29210Y27940
X21971Y26619
X29210Y26670
X20320Y33325
X21082Y32385
X24638Y35433
X28194Y35433
X17780Y35798
X74168Y15494
X74168Y13970
X72136Y10160
X73406Y10160
X70866Y10160
X69596Y14859
X69596Y5588
X77851Y9017
X78740Y9017
X82296Y12573
X82296Y11176
X79502Y10668
X82296Y20574
X82296Y19050
X86868Y19812
X79375Y29591
X65913Y35941
X76454Y37338
X114300Y26924
X114300Y23876
X114300Y22352
X114300Y19177
X113284Y8890
X116967Y9398
X106934Y2032
X99060Y2032
X83312Y2032
X119126Y27940
X119126Y17780
X109855Y19685
X78359Y14097
X113411Y10160
X89535Y30353
X92329Y8255
X69723Y33655
X67437Y40640
X104648Y8255
X78994Y12446
X66802Y10922
X78994Y11608
X66802Y9398
X114300Y20447
X110998Y13843
X116332Y13589
X117221Y10414
X96266Y6350
X96266Y13932
X101727Y13335
X117221Y16764
X102743Y13462
X116332Y16764
X90043Y12700
X90551Y6985
X74676Y8001
X83439Y12954
X82550Y23368
X78486Y16256
X86233Y13716
X93472Y5842
X102616Y19050
X101346Y20066
X98806Y18415
X85852Y22606
X91440Y23368
X96266Y24130
X93091Y15367
X90699Y12171
X106426Y3810
X93726Y13335
X112014Y5080
X84455Y9144
X83566Y27940
X91186Y29210
X82423Y28730
X91186Y27940
X83947Y26619
X91186Y26670
X82296Y33325
X83058Y32385
X86614Y35433
X90170Y35433
X79756Y35798
X12192Y61722
X12192Y60198
X10160Y56388
X11430Y56388
X8890Y56388
X7620Y61087
X7620Y51816
X15875Y55245
X16764Y55245
X20320Y58801
X20320Y57404
X17526Y56896
X20320Y66802
X20320Y65278
X24892Y66040
X17399Y75819
X3937Y82169
X14478Y83566
X52324Y73152
X52324Y71628
X52324Y70104
X52324Y68580
X52324Y65405
X51308Y55118
X54991Y55626
X44958Y48260
X37084Y48260
X21336Y48260
X57150Y74168
X57150Y64008
X47879Y65913
X16383Y60325
X51435Y56388
X27559Y76581
X30353Y54483
X7747Y79883
X5461Y86868
X42672Y54483
X17018Y58674
X4826Y57150
X17018Y57836
X4826Y55626
X52324Y66675
X49022Y60071
X54356Y59817
X55245Y56642
X34290Y52578
X34290Y60160
X39751Y59563
X55245Y62992
X40767Y59690
X54356Y62992
X28067Y58928
X28575Y53213
X12700Y54229
X102616Y65278
X21463Y59182
X20574Y69596
X16510Y62484
X24257Y59944
X31496Y52070
X40640Y65278
X39370Y66294
X36830Y64643
X23876Y68834
X29464Y69596
X34290Y70358
X31115Y61595
X28723Y58399
X44450Y50038
X31750Y59563
X50038Y51308
X22479Y55372
X21590Y74168
X29210Y75438
X20447Y74958
X29210Y74168
X21971Y72847
X29210Y72898
X20320Y79553
X21082Y78613
X24638Y81661
X28194Y81661
X17780Y82026
X74168Y61722
X74168Y60198
X72136Y56388
X73406Y56388
X70866Y56388
X69596Y61087
X69596Y51816
X77851Y55245
X78740Y55245
X82296Y58801
X82296Y57404
X79502Y56896
X82296Y66802
X82296Y65278
X86868Y66040
X79375Y75819
X65913Y82169
X76454Y83566
X114300Y73152
X114300Y71628
X114300Y70104
X114300Y68580
X114300Y65405
X113284Y55118
X116967Y55626
X106934Y48260
X99060Y48260
X83312Y48260
X119126Y74168
X119126Y64008
X109855Y65913
X78359Y60325
X113411Y56388
X89535Y76581
X92329Y54483
X69723Y79883
X67437Y86868
X104648Y54483
X78994Y58674
X66802Y57150
X78994Y57836
X66802Y55626
X114300Y66675
X110998Y60071
X116332Y59817
X117221Y56642
X96266Y52578
X96266Y60160
X101727Y59563
X117221Y62992
X102743Y59690
X116332Y62992
X90043Y58928
X90551Y53213
X74676Y54229
X83439Y59182
X82550Y69596
X78486Y62484
X86233Y59944
X93472Y52070
X101346Y66294
X98806Y64643
X85852Y68834
X91440Y69596
X96266Y70358
X93091Y61595
X90699Y58399
X106426Y50038
X93726Y59563
X112014Y51308
X84455Y55372
X83566Y74168
X91186Y75438
X82423Y74958
M30