G04 EAGLE Gerber RS-274X export*
G75*
%MOMM*%
%FSLAX34Y34*%
%LPD*%
%INSoldermask Top*%
%IPPOS*%
%AMOC8*
5,1,8,0,0,1.08239X$1,22.5*%
G01*
%ADD10R,1.203200X0.503200*%
%ADD11R,1.203200X0.803200*%
%ADD12C,0.853200*%
%ADD13R,1.203200X1.303200*%
%ADD14R,0.503200X0.853200*%
%ADD15R,2.553200X1.803200*%
%ADD16R,1.303200X1.203200*%
%ADD17C,0.838200*%
%ADD18C,3.505200*%
%ADD19R,2.203200X1.403200*%
%ADD20R,1.553200X0.803200*%
%ADD21R,1.473200X0.863600*%
%ADD22R,1.727200X0.965200*%
%ADD23R,0.838200X1.473200*%
%ADD24R,1.203200X3.003200*%
%ADD25R,1.603200X1.803200*%
%ADD26C,2.082800*%
%ADD27C,1.203200*%
%ADD28R,1.603200X2.003200*%
%ADD29R,2.103200X1.603200*%
%ADD30R,1.703200X1.003200*%
%ADD31C,6.203200*%
%ADD32R,1.033200X0.833200*%
%ADD33C,0.505344*%
%ADD34C,1.303200*%
%ADD35C,1.803200*%
%ADD36R,1.753200X0.503200*%
%ADD37R,2.953200X1.403200*%
%ADD38R,2.803200X0.503200*%
%ADD39C,1.700000*%
%ADD40R,0.833200X1.033200*%
%ADD41C,1.270000*%
%ADD42C,1.703200*%

G36*
X60304Y514634D02*
X60304Y514634D01*
X60307Y514631D01*
X61429Y514786D01*
X61434Y514791D01*
X61438Y514788D01*
X62509Y515159D01*
X62513Y515165D01*
X62518Y515163D01*
X63495Y515736D01*
X63498Y515742D01*
X63503Y515741D01*
X64350Y516494D01*
X64352Y516501D01*
X64357Y516501D01*
X65041Y517404D01*
X65041Y517411D01*
X65046Y517412D01*
X65541Y518431D01*
X65539Y518438D01*
X65544Y518440D01*
X65831Y519537D01*
X65829Y519541D01*
X65831Y519542D01*
X65829Y519544D01*
X65832Y519546D01*
X65899Y520677D01*
X65897Y520681D01*
X65899Y520683D01*
X65832Y521814D01*
X65827Y521819D01*
X65831Y521823D01*
X65544Y522920D01*
X65538Y522924D01*
X65541Y522929D01*
X65046Y523948D01*
X65040Y523951D01*
X65041Y523956D01*
X64357Y524859D01*
X64350Y524861D01*
X64350Y524866D01*
X63503Y525619D01*
X63496Y525619D01*
X63495Y525624D01*
X62518Y526197D01*
X62511Y526196D01*
X62509Y526201D01*
X61438Y526572D01*
X61432Y526569D01*
X61429Y526574D01*
X60307Y526729D01*
X60302Y526726D01*
X60300Y526729D01*
X48300Y526729D01*
X48295Y526726D01*
X48292Y526729D01*
X47025Y526524D01*
X47019Y526518D01*
X47015Y526521D01*
X45825Y526039D01*
X45821Y526032D01*
X45815Y526034D01*
X44762Y525300D01*
X44760Y525292D01*
X44754Y525293D01*
X43891Y524343D01*
X43890Y524334D01*
X43885Y524334D01*
X43255Y523215D01*
X43256Y523207D01*
X43250Y523205D01*
X42885Y521975D01*
X42888Y521967D01*
X42883Y521964D01*
X42801Y520683D01*
X42804Y520679D01*
X42801Y520677D01*
X42883Y519396D01*
X42889Y519390D01*
X42885Y519385D01*
X43250Y518155D01*
X43257Y518150D01*
X43255Y518145D01*
X43885Y517026D01*
X43892Y517023D01*
X43891Y517017D01*
X44754Y516067D01*
X44762Y516066D01*
X44762Y516060D01*
X45815Y515326D01*
X45823Y515326D01*
X45825Y515321D01*
X47015Y514839D01*
X47022Y514841D01*
X47025Y514836D01*
X48292Y514631D01*
X48297Y514634D01*
X48300Y514631D01*
X60300Y514631D01*
X60304Y514634D01*
G37*
G36*
X680064Y514634D02*
X680064Y514634D01*
X680067Y514631D01*
X681189Y514786D01*
X681194Y514791D01*
X681198Y514788D01*
X682269Y515159D01*
X682273Y515165D01*
X682278Y515163D01*
X683255Y515736D01*
X683258Y515742D01*
X683263Y515741D01*
X684110Y516494D01*
X684112Y516501D01*
X684117Y516501D01*
X684801Y517404D01*
X684801Y517411D01*
X684806Y517412D01*
X685301Y518431D01*
X685299Y518438D01*
X685304Y518440D01*
X685591Y519537D01*
X685589Y519541D01*
X685591Y519542D01*
X685589Y519544D01*
X685592Y519546D01*
X685659Y520677D01*
X685657Y520681D01*
X685659Y520683D01*
X685592Y521814D01*
X685587Y521819D01*
X685591Y521823D01*
X685304Y522920D01*
X685298Y522924D01*
X685301Y522929D01*
X684806Y523948D01*
X684800Y523951D01*
X684801Y523956D01*
X684117Y524859D01*
X684110Y524861D01*
X684110Y524866D01*
X683263Y525619D01*
X683256Y525619D01*
X683255Y525624D01*
X682278Y526197D01*
X682271Y526196D01*
X682269Y526201D01*
X681198Y526572D01*
X681192Y526569D01*
X681189Y526574D01*
X680067Y526729D01*
X680062Y526726D01*
X680060Y526729D01*
X668060Y526729D01*
X668055Y526726D01*
X668052Y526729D01*
X666785Y526524D01*
X666779Y526518D01*
X666775Y526521D01*
X665585Y526039D01*
X665581Y526032D01*
X665575Y526034D01*
X664522Y525300D01*
X664520Y525292D01*
X664514Y525293D01*
X663651Y524343D01*
X663650Y524334D01*
X663645Y524334D01*
X663015Y523215D01*
X663016Y523207D01*
X663010Y523205D01*
X662645Y521975D01*
X662648Y521967D01*
X662643Y521964D01*
X662561Y520683D01*
X662564Y520679D01*
X662561Y520677D01*
X662643Y519396D01*
X662649Y519390D01*
X662645Y519385D01*
X663010Y518155D01*
X663017Y518150D01*
X663015Y518145D01*
X663645Y517026D01*
X663652Y517023D01*
X663651Y517017D01*
X664514Y516067D01*
X664522Y516066D01*
X664522Y516060D01*
X665575Y515326D01*
X665583Y515326D01*
X665585Y515321D01*
X666775Y514839D01*
X666782Y514841D01*
X666785Y514836D01*
X668052Y514631D01*
X668057Y514634D01*
X668060Y514631D01*
X680060Y514631D01*
X680064Y514634D01*
G37*
G36*
X60304Y976914D02*
X60304Y976914D01*
X60307Y976911D01*
X61429Y977066D01*
X61434Y977071D01*
X61438Y977068D01*
X62509Y977439D01*
X62513Y977445D01*
X62518Y977443D01*
X63495Y978016D01*
X63498Y978022D01*
X63503Y978021D01*
X64350Y978774D01*
X64352Y978781D01*
X64357Y978781D01*
X65041Y979684D01*
X65041Y979691D01*
X65046Y979692D01*
X65541Y980711D01*
X65539Y980718D01*
X65544Y980720D01*
X65831Y981817D01*
X65829Y981821D01*
X65831Y981822D01*
X65829Y981824D01*
X65832Y981826D01*
X65899Y982957D01*
X65897Y982961D01*
X65899Y982963D01*
X65832Y984094D01*
X65827Y984099D01*
X65831Y984103D01*
X65544Y985200D01*
X65538Y985204D01*
X65541Y985209D01*
X65046Y986228D01*
X65040Y986231D01*
X65041Y986236D01*
X64357Y987139D01*
X64350Y987141D01*
X64350Y987146D01*
X63503Y987899D01*
X63496Y987899D01*
X63495Y987904D01*
X62518Y988477D01*
X62511Y988476D01*
X62509Y988481D01*
X61438Y988852D01*
X61432Y988849D01*
X61429Y988854D01*
X60307Y989009D01*
X60302Y989006D01*
X60300Y989009D01*
X48300Y989009D01*
X48295Y989006D01*
X48292Y989009D01*
X47025Y988804D01*
X47019Y988798D01*
X47015Y988801D01*
X45825Y988319D01*
X45821Y988312D01*
X45815Y988314D01*
X44762Y987580D01*
X44760Y987572D01*
X44754Y987573D01*
X43891Y986623D01*
X43890Y986614D01*
X43885Y986614D01*
X43255Y985495D01*
X43256Y985487D01*
X43250Y985485D01*
X42885Y984255D01*
X42888Y984247D01*
X42883Y984244D01*
X42801Y982963D01*
X42804Y982959D01*
X42801Y982957D01*
X42883Y981676D01*
X42889Y981670D01*
X42885Y981665D01*
X43250Y980435D01*
X43257Y980430D01*
X43255Y980425D01*
X43885Y979306D01*
X43892Y979303D01*
X43891Y979297D01*
X44754Y978347D01*
X44762Y978346D01*
X44762Y978340D01*
X45815Y977606D01*
X45823Y977606D01*
X45825Y977601D01*
X47015Y977119D01*
X47022Y977121D01*
X47025Y977116D01*
X48292Y976911D01*
X48297Y976914D01*
X48300Y976911D01*
X60300Y976911D01*
X60304Y976914D01*
G37*
G36*
X680064Y601034D02*
X680064Y601034D01*
X680067Y601031D01*
X681189Y601186D01*
X681194Y601191D01*
X681198Y601188D01*
X682269Y601559D01*
X682273Y601565D01*
X682278Y601563D01*
X683255Y602136D01*
X683258Y602142D01*
X683263Y602141D01*
X684110Y602894D01*
X684112Y602901D01*
X684117Y602901D01*
X684801Y603804D01*
X684801Y603811D01*
X684806Y603812D01*
X685301Y604831D01*
X685299Y604838D01*
X685304Y604840D01*
X685591Y605937D01*
X685589Y605941D01*
X685591Y605942D01*
X685589Y605944D01*
X685592Y605946D01*
X685659Y607077D01*
X685657Y607081D01*
X685659Y607083D01*
X685592Y608214D01*
X685587Y608219D01*
X685591Y608223D01*
X685304Y609320D01*
X685298Y609324D01*
X685301Y609329D01*
X684806Y610348D01*
X684800Y610351D01*
X684801Y610356D01*
X684117Y611259D01*
X684110Y611261D01*
X684110Y611266D01*
X683263Y612019D01*
X683256Y612019D01*
X683255Y612024D01*
X682278Y612597D01*
X682271Y612596D01*
X682269Y612601D01*
X681198Y612972D01*
X681192Y612969D01*
X681189Y612974D01*
X680067Y613129D01*
X680062Y613126D01*
X680060Y613129D01*
X668060Y613129D01*
X668055Y613126D01*
X668052Y613129D01*
X666785Y612924D01*
X666779Y612918D01*
X666775Y612921D01*
X665585Y612439D01*
X665581Y612432D01*
X665575Y612434D01*
X664522Y611700D01*
X664520Y611692D01*
X664514Y611693D01*
X663651Y610743D01*
X663650Y610734D01*
X663645Y610734D01*
X663015Y609615D01*
X663016Y609607D01*
X663010Y609605D01*
X662645Y608375D01*
X662648Y608367D01*
X662643Y608364D01*
X662561Y607083D01*
X662564Y607079D01*
X662561Y607077D01*
X662643Y605796D01*
X662649Y605790D01*
X662645Y605785D01*
X663010Y604555D01*
X663017Y604550D01*
X663015Y604545D01*
X663645Y603426D01*
X663652Y603423D01*
X663651Y603417D01*
X664514Y602467D01*
X664522Y602466D01*
X664522Y602460D01*
X665575Y601726D01*
X665583Y601726D01*
X665585Y601721D01*
X666775Y601239D01*
X666782Y601241D01*
X666785Y601236D01*
X668052Y601031D01*
X668057Y601034D01*
X668060Y601031D01*
X680060Y601031D01*
X680064Y601034D01*
G37*
G36*
X680064Y1063314D02*
X680064Y1063314D01*
X680067Y1063311D01*
X681189Y1063466D01*
X681194Y1063471D01*
X681198Y1063468D01*
X682269Y1063839D01*
X682273Y1063845D01*
X682278Y1063843D01*
X683255Y1064416D01*
X683258Y1064422D01*
X683263Y1064421D01*
X684110Y1065174D01*
X684112Y1065181D01*
X684117Y1065181D01*
X684801Y1066084D01*
X684801Y1066091D01*
X684806Y1066092D01*
X685301Y1067111D01*
X685299Y1067118D01*
X685304Y1067120D01*
X685591Y1068217D01*
X685589Y1068221D01*
X685591Y1068222D01*
X685589Y1068224D01*
X685592Y1068226D01*
X685659Y1069357D01*
X685657Y1069361D01*
X685659Y1069363D01*
X685592Y1070494D01*
X685587Y1070499D01*
X685591Y1070503D01*
X685304Y1071600D01*
X685298Y1071604D01*
X685301Y1071609D01*
X684806Y1072628D01*
X684800Y1072631D01*
X684801Y1072636D01*
X684117Y1073539D01*
X684110Y1073541D01*
X684110Y1073546D01*
X683263Y1074299D01*
X683256Y1074299D01*
X683255Y1074304D01*
X682278Y1074877D01*
X682271Y1074876D01*
X682269Y1074881D01*
X681198Y1075252D01*
X681192Y1075249D01*
X681189Y1075254D01*
X680067Y1075409D01*
X680062Y1075406D01*
X680060Y1075409D01*
X668060Y1075409D01*
X668055Y1075406D01*
X668052Y1075409D01*
X666785Y1075204D01*
X666779Y1075198D01*
X666775Y1075201D01*
X665585Y1074719D01*
X665581Y1074712D01*
X665575Y1074714D01*
X664522Y1073980D01*
X664520Y1073972D01*
X664514Y1073973D01*
X663651Y1073023D01*
X663650Y1073014D01*
X663645Y1073014D01*
X663015Y1071895D01*
X663016Y1071887D01*
X663010Y1071885D01*
X662645Y1070655D01*
X662648Y1070647D01*
X662643Y1070644D01*
X662561Y1069363D01*
X662564Y1069359D01*
X662561Y1069357D01*
X662643Y1068076D01*
X662649Y1068070D01*
X662645Y1068065D01*
X663010Y1066835D01*
X663017Y1066830D01*
X663015Y1066825D01*
X663645Y1065706D01*
X663652Y1065703D01*
X663651Y1065697D01*
X664514Y1064747D01*
X664522Y1064746D01*
X664522Y1064740D01*
X665575Y1064006D01*
X665583Y1064006D01*
X665585Y1064001D01*
X666775Y1063519D01*
X666782Y1063521D01*
X666785Y1063516D01*
X668052Y1063311D01*
X668057Y1063314D01*
X668060Y1063311D01*
X680060Y1063311D01*
X680064Y1063314D01*
G37*
G36*
X60304Y1063314D02*
X60304Y1063314D01*
X60307Y1063311D01*
X61429Y1063466D01*
X61434Y1063471D01*
X61438Y1063468D01*
X62509Y1063839D01*
X62513Y1063845D01*
X62518Y1063843D01*
X63495Y1064416D01*
X63498Y1064422D01*
X63503Y1064421D01*
X64350Y1065174D01*
X64352Y1065181D01*
X64357Y1065181D01*
X65041Y1066084D01*
X65041Y1066091D01*
X65046Y1066092D01*
X65541Y1067111D01*
X65539Y1067118D01*
X65544Y1067120D01*
X65831Y1068217D01*
X65829Y1068221D01*
X65831Y1068222D01*
X65829Y1068224D01*
X65832Y1068226D01*
X65899Y1069357D01*
X65897Y1069361D01*
X65899Y1069363D01*
X65832Y1070494D01*
X65827Y1070499D01*
X65831Y1070503D01*
X65544Y1071600D01*
X65538Y1071604D01*
X65541Y1071609D01*
X65046Y1072628D01*
X65040Y1072631D01*
X65041Y1072636D01*
X64357Y1073539D01*
X64350Y1073541D01*
X64350Y1073546D01*
X63503Y1074299D01*
X63496Y1074299D01*
X63495Y1074304D01*
X62518Y1074877D01*
X62511Y1074876D01*
X62509Y1074881D01*
X61438Y1075252D01*
X61432Y1075249D01*
X61429Y1075254D01*
X60307Y1075409D01*
X60302Y1075406D01*
X60300Y1075409D01*
X48300Y1075409D01*
X48295Y1075406D01*
X48292Y1075409D01*
X47025Y1075204D01*
X47019Y1075198D01*
X47015Y1075201D01*
X45825Y1074719D01*
X45821Y1074712D01*
X45815Y1074714D01*
X44762Y1073980D01*
X44760Y1073972D01*
X44754Y1073973D01*
X43891Y1073023D01*
X43890Y1073014D01*
X43885Y1073014D01*
X43255Y1071895D01*
X43256Y1071887D01*
X43250Y1071885D01*
X42885Y1070655D01*
X42888Y1070647D01*
X42883Y1070644D01*
X42801Y1069363D01*
X42804Y1069359D01*
X42801Y1069357D01*
X42883Y1068076D01*
X42889Y1068070D01*
X42885Y1068065D01*
X43250Y1066835D01*
X43257Y1066830D01*
X43255Y1066825D01*
X43885Y1065706D01*
X43892Y1065703D01*
X43891Y1065697D01*
X44754Y1064747D01*
X44762Y1064746D01*
X44762Y1064740D01*
X45815Y1064006D01*
X45823Y1064006D01*
X45825Y1064001D01*
X47015Y1063519D01*
X47022Y1063521D01*
X47025Y1063516D01*
X48292Y1063311D01*
X48297Y1063314D01*
X48300Y1063311D01*
X60300Y1063311D01*
X60304Y1063314D01*
G37*
G36*
X60304Y601034D02*
X60304Y601034D01*
X60307Y601031D01*
X61429Y601186D01*
X61434Y601191D01*
X61438Y601188D01*
X62509Y601559D01*
X62513Y601565D01*
X62518Y601563D01*
X63495Y602136D01*
X63498Y602142D01*
X63503Y602141D01*
X64350Y602894D01*
X64352Y602901D01*
X64357Y602901D01*
X65041Y603804D01*
X65041Y603811D01*
X65046Y603812D01*
X65541Y604831D01*
X65539Y604838D01*
X65544Y604840D01*
X65831Y605937D01*
X65829Y605941D01*
X65831Y605942D01*
X65829Y605944D01*
X65832Y605946D01*
X65899Y607077D01*
X65897Y607081D01*
X65899Y607083D01*
X65832Y608214D01*
X65827Y608219D01*
X65831Y608223D01*
X65544Y609320D01*
X65538Y609324D01*
X65541Y609329D01*
X65046Y610348D01*
X65040Y610351D01*
X65041Y610356D01*
X64357Y611259D01*
X64350Y611261D01*
X64350Y611266D01*
X63503Y612019D01*
X63496Y612019D01*
X63495Y612024D01*
X62518Y612597D01*
X62511Y612596D01*
X62509Y612601D01*
X61438Y612972D01*
X61432Y612969D01*
X61429Y612974D01*
X60307Y613129D01*
X60302Y613126D01*
X60300Y613129D01*
X48300Y613129D01*
X48295Y613126D01*
X48292Y613129D01*
X47025Y612924D01*
X47019Y612918D01*
X47015Y612921D01*
X45825Y612439D01*
X45821Y612432D01*
X45815Y612434D01*
X44762Y611700D01*
X44760Y611692D01*
X44754Y611693D01*
X43891Y610743D01*
X43890Y610734D01*
X43885Y610734D01*
X43255Y609615D01*
X43256Y609607D01*
X43250Y609605D01*
X42885Y608375D01*
X42888Y608367D01*
X42883Y608364D01*
X42801Y607083D01*
X42804Y607079D01*
X42801Y607077D01*
X42883Y605796D01*
X42889Y605790D01*
X42885Y605785D01*
X43250Y604555D01*
X43257Y604550D01*
X43255Y604545D01*
X43885Y603426D01*
X43892Y603423D01*
X43891Y603417D01*
X44754Y602467D01*
X44762Y602466D01*
X44762Y602460D01*
X45815Y601726D01*
X45823Y601726D01*
X45825Y601721D01*
X47015Y601239D01*
X47022Y601241D01*
X47025Y601236D01*
X48292Y601031D01*
X48297Y601034D01*
X48300Y601031D01*
X60300Y601031D01*
X60304Y601034D01*
G37*
G36*
X680064Y52354D02*
X680064Y52354D01*
X680067Y52351D01*
X681189Y52506D01*
X681194Y52511D01*
X681198Y52508D01*
X682269Y52879D01*
X682273Y52885D01*
X682278Y52883D01*
X683255Y53456D01*
X683258Y53462D01*
X683263Y53461D01*
X684110Y54214D01*
X684112Y54221D01*
X684117Y54221D01*
X684801Y55124D01*
X684801Y55131D01*
X684806Y55132D01*
X685301Y56151D01*
X685299Y56158D01*
X685304Y56160D01*
X685591Y57257D01*
X685589Y57261D01*
X685591Y57262D01*
X685589Y57264D01*
X685592Y57266D01*
X685659Y58397D01*
X685657Y58401D01*
X685659Y58403D01*
X685592Y59534D01*
X685587Y59539D01*
X685591Y59543D01*
X685304Y60640D01*
X685298Y60644D01*
X685301Y60649D01*
X684806Y61668D01*
X684800Y61671D01*
X684801Y61676D01*
X684117Y62579D01*
X684110Y62581D01*
X684110Y62586D01*
X683263Y63339D01*
X683256Y63339D01*
X683255Y63344D01*
X682278Y63917D01*
X682271Y63916D01*
X682269Y63921D01*
X681198Y64292D01*
X681192Y64289D01*
X681189Y64294D01*
X680067Y64449D01*
X680062Y64446D01*
X680060Y64449D01*
X668060Y64449D01*
X668055Y64446D01*
X668052Y64449D01*
X666785Y64244D01*
X666779Y64238D01*
X666775Y64241D01*
X665585Y63759D01*
X665581Y63752D01*
X665575Y63754D01*
X664522Y63020D01*
X664520Y63012D01*
X664514Y63013D01*
X663651Y62063D01*
X663650Y62054D01*
X663645Y62054D01*
X663015Y60935D01*
X663016Y60927D01*
X663010Y60925D01*
X662645Y59695D01*
X662648Y59687D01*
X662643Y59684D01*
X662561Y58403D01*
X662564Y58399D01*
X662561Y58397D01*
X662643Y57116D01*
X662649Y57110D01*
X662645Y57105D01*
X663010Y55875D01*
X663017Y55870D01*
X663015Y55865D01*
X663645Y54746D01*
X663652Y54743D01*
X663651Y54737D01*
X664514Y53787D01*
X664522Y53786D01*
X664522Y53780D01*
X665575Y53046D01*
X665583Y53046D01*
X665585Y53041D01*
X666775Y52559D01*
X666782Y52561D01*
X666785Y52556D01*
X668052Y52351D01*
X668057Y52354D01*
X668060Y52351D01*
X680060Y52351D01*
X680064Y52354D01*
G37*
G36*
X60304Y52354D02*
X60304Y52354D01*
X60307Y52351D01*
X61429Y52506D01*
X61434Y52511D01*
X61438Y52508D01*
X62509Y52879D01*
X62513Y52885D01*
X62518Y52883D01*
X63495Y53456D01*
X63498Y53462D01*
X63503Y53461D01*
X64350Y54214D01*
X64352Y54221D01*
X64357Y54221D01*
X65041Y55124D01*
X65041Y55131D01*
X65046Y55132D01*
X65541Y56151D01*
X65539Y56158D01*
X65544Y56160D01*
X65831Y57257D01*
X65829Y57261D01*
X65831Y57262D01*
X65829Y57264D01*
X65832Y57266D01*
X65899Y58397D01*
X65897Y58401D01*
X65899Y58403D01*
X65832Y59534D01*
X65827Y59539D01*
X65831Y59543D01*
X65544Y60640D01*
X65538Y60644D01*
X65541Y60649D01*
X65046Y61668D01*
X65040Y61671D01*
X65041Y61676D01*
X64357Y62579D01*
X64350Y62581D01*
X64350Y62586D01*
X63503Y63339D01*
X63496Y63339D01*
X63495Y63344D01*
X62518Y63917D01*
X62511Y63916D01*
X62509Y63921D01*
X61438Y64292D01*
X61432Y64289D01*
X61429Y64294D01*
X60307Y64449D01*
X60302Y64446D01*
X60300Y64449D01*
X48300Y64449D01*
X48295Y64446D01*
X48292Y64449D01*
X47025Y64244D01*
X47019Y64238D01*
X47015Y64241D01*
X45825Y63759D01*
X45821Y63752D01*
X45815Y63754D01*
X44762Y63020D01*
X44760Y63012D01*
X44754Y63013D01*
X43891Y62063D01*
X43890Y62054D01*
X43885Y62054D01*
X43255Y60935D01*
X43256Y60927D01*
X43250Y60925D01*
X42885Y59695D01*
X42888Y59687D01*
X42883Y59684D01*
X42801Y58403D01*
X42804Y58399D01*
X42801Y58397D01*
X42883Y57116D01*
X42889Y57110D01*
X42885Y57105D01*
X43250Y55875D01*
X43257Y55870D01*
X43255Y55865D01*
X43885Y54746D01*
X43892Y54743D01*
X43891Y54737D01*
X44754Y53787D01*
X44762Y53786D01*
X44762Y53780D01*
X45815Y53046D01*
X45823Y53046D01*
X45825Y53041D01*
X47015Y52559D01*
X47022Y52561D01*
X47025Y52556D01*
X48292Y52351D01*
X48297Y52354D01*
X48300Y52351D01*
X60300Y52351D01*
X60304Y52354D01*
G37*
G36*
X680064Y138754D02*
X680064Y138754D01*
X680067Y138751D01*
X681189Y138906D01*
X681194Y138911D01*
X681198Y138908D01*
X682269Y139279D01*
X682273Y139285D01*
X682278Y139283D01*
X683255Y139856D01*
X683258Y139862D01*
X683263Y139861D01*
X684110Y140614D01*
X684112Y140621D01*
X684117Y140621D01*
X684801Y141524D01*
X684801Y141531D01*
X684806Y141532D01*
X685301Y142551D01*
X685299Y142558D01*
X685304Y142560D01*
X685591Y143657D01*
X685589Y143661D01*
X685591Y143662D01*
X685589Y143664D01*
X685592Y143666D01*
X685659Y144797D01*
X685657Y144801D01*
X685659Y144803D01*
X685592Y145934D01*
X685587Y145939D01*
X685591Y145943D01*
X685304Y147040D01*
X685298Y147044D01*
X685301Y147049D01*
X684806Y148068D01*
X684800Y148071D01*
X684801Y148076D01*
X684117Y148979D01*
X684110Y148981D01*
X684110Y148986D01*
X683263Y149739D01*
X683256Y149739D01*
X683255Y149744D01*
X682278Y150317D01*
X682271Y150316D01*
X682269Y150321D01*
X681198Y150692D01*
X681192Y150689D01*
X681189Y150694D01*
X680067Y150849D01*
X680062Y150846D01*
X680060Y150849D01*
X668060Y150849D01*
X668055Y150846D01*
X668052Y150849D01*
X666785Y150644D01*
X666779Y150638D01*
X666775Y150641D01*
X665585Y150159D01*
X665581Y150152D01*
X665575Y150154D01*
X664522Y149420D01*
X664520Y149412D01*
X664514Y149413D01*
X663651Y148463D01*
X663650Y148454D01*
X663645Y148454D01*
X663015Y147335D01*
X663016Y147327D01*
X663010Y147325D01*
X662645Y146095D01*
X662648Y146087D01*
X662643Y146084D01*
X662561Y144803D01*
X662564Y144799D01*
X662561Y144797D01*
X662643Y143516D01*
X662649Y143510D01*
X662645Y143505D01*
X663010Y142275D01*
X663017Y142270D01*
X663015Y142265D01*
X663645Y141146D01*
X663652Y141143D01*
X663651Y141137D01*
X664514Y140187D01*
X664522Y140186D01*
X664522Y140180D01*
X665575Y139446D01*
X665583Y139446D01*
X665585Y139441D01*
X666775Y138959D01*
X666782Y138961D01*
X666785Y138956D01*
X668052Y138751D01*
X668057Y138754D01*
X668060Y138751D01*
X680060Y138751D01*
X680064Y138754D01*
G37*
G36*
X60304Y138754D02*
X60304Y138754D01*
X60307Y138751D01*
X61429Y138906D01*
X61434Y138911D01*
X61438Y138908D01*
X62509Y139279D01*
X62513Y139285D01*
X62518Y139283D01*
X63495Y139856D01*
X63498Y139862D01*
X63503Y139861D01*
X64350Y140614D01*
X64352Y140621D01*
X64357Y140621D01*
X65041Y141524D01*
X65041Y141531D01*
X65046Y141532D01*
X65541Y142551D01*
X65539Y142558D01*
X65544Y142560D01*
X65831Y143657D01*
X65829Y143661D01*
X65831Y143662D01*
X65829Y143664D01*
X65832Y143666D01*
X65899Y144797D01*
X65897Y144801D01*
X65899Y144803D01*
X65832Y145934D01*
X65827Y145939D01*
X65831Y145943D01*
X65544Y147040D01*
X65538Y147044D01*
X65541Y147049D01*
X65046Y148068D01*
X65040Y148071D01*
X65041Y148076D01*
X64357Y148979D01*
X64350Y148981D01*
X64350Y148986D01*
X63503Y149739D01*
X63496Y149739D01*
X63495Y149744D01*
X62518Y150317D01*
X62511Y150316D01*
X62509Y150321D01*
X61438Y150692D01*
X61432Y150689D01*
X61429Y150694D01*
X60307Y150849D01*
X60302Y150846D01*
X60300Y150849D01*
X48300Y150849D01*
X48295Y150846D01*
X48292Y150849D01*
X47025Y150644D01*
X47019Y150638D01*
X47015Y150641D01*
X45825Y150159D01*
X45821Y150152D01*
X45815Y150154D01*
X44762Y149420D01*
X44760Y149412D01*
X44754Y149413D01*
X43891Y148463D01*
X43890Y148454D01*
X43885Y148454D01*
X43255Y147335D01*
X43256Y147327D01*
X43250Y147325D01*
X42885Y146095D01*
X42888Y146087D01*
X42883Y146084D01*
X42801Y144803D01*
X42804Y144799D01*
X42801Y144797D01*
X42883Y143516D01*
X42889Y143510D01*
X42885Y143505D01*
X43250Y142275D01*
X43257Y142270D01*
X43255Y142265D01*
X43885Y141146D01*
X43892Y141143D01*
X43891Y141137D01*
X44754Y140187D01*
X44762Y140186D01*
X44762Y140180D01*
X45815Y139446D01*
X45823Y139446D01*
X45825Y139441D01*
X47015Y138959D01*
X47022Y138961D01*
X47025Y138956D01*
X48292Y138751D01*
X48297Y138754D01*
X48300Y138751D01*
X60300Y138751D01*
X60304Y138754D01*
G37*
G36*
X680064Y976914D02*
X680064Y976914D01*
X680067Y976911D01*
X681189Y977066D01*
X681194Y977071D01*
X681198Y977068D01*
X682269Y977439D01*
X682273Y977445D01*
X682278Y977443D01*
X683255Y978016D01*
X683258Y978022D01*
X683263Y978021D01*
X684110Y978774D01*
X684112Y978781D01*
X684117Y978781D01*
X684801Y979684D01*
X684801Y979691D01*
X684806Y979692D01*
X685301Y980711D01*
X685299Y980718D01*
X685304Y980720D01*
X685591Y981817D01*
X685589Y981821D01*
X685591Y981822D01*
X685589Y981824D01*
X685592Y981826D01*
X685659Y982957D01*
X685657Y982961D01*
X685659Y982963D01*
X685592Y984094D01*
X685587Y984099D01*
X685591Y984103D01*
X685304Y985200D01*
X685298Y985204D01*
X685301Y985209D01*
X684806Y986228D01*
X684800Y986231D01*
X684801Y986236D01*
X684117Y987139D01*
X684110Y987141D01*
X684110Y987146D01*
X683263Y987899D01*
X683256Y987899D01*
X683255Y987904D01*
X682278Y988477D01*
X682271Y988476D01*
X682269Y988481D01*
X681198Y988852D01*
X681192Y988849D01*
X681189Y988854D01*
X680067Y989009D01*
X680062Y989006D01*
X680060Y989009D01*
X668060Y989009D01*
X668055Y989006D01*
X668052Y989009D01*
X666785Y988804D01*
X666779Y988798D01*
X666775Y988801D01*
X665585Y988319D01*
X665581Y988312D01*
X665575Y988314D01*
X664522Y987580D01*
X664520Y987572D01*
X664514Y987573D01*
X663651Y986623D01*
X663650Y986614D01*
X663645Y986614D01*
X663015Y985495D01*
X663016Y985487D01*
X663010Y985485D01*
X662645Y984255D01*
X662648Y984247D01*
X662643Y984244D01*
X662561Y982963D01*
X662564Y982959D01*
X662561Y982957D01*
X662643Y981676D01*
X662649Y981670D01*
X662645Y981665D01*
X663010Y980435D01*
X663017Y980430D01*
X663015Y980425D01*
X663645Y979306D01*
X663652Y979303D01*
X663651Y979297D01*
X664514Y978347D01*
X664522Y978346D01*
X664522Y978340D01*
X665575Y977606D01*
X665583Y977606D01*
X665585Y977601D01*
X666775Y977119D01*
X666782Y977121D01*
X666785Y977116D01*
X668052Y976911D01*
X668057Y976914D01*
X668060Y976911D01*
X680060Y976911D01*
X680064Y976914D01*
G37*
G36*
X15503Y514633D02*
X15503Y514633D01*
X15505Y514631D01*
X16681Y514742D01*
X16686Y514747D01*
X16690Y514744D01*
X17822Y515082D01*
X17826Y515088D01*
X17831Y515086D01*
X18875Y515638D01*
X18878Y515645D01*
X18883Y515643D01*
X19799Y516389D01*
X19800Y516396D01*
X19806Y516396D01*
X20559Y517306D01*
X20559Y517313D01*
X20564Y517314D01*
X21125Y518353D01*
X21124Y518358D01*
X21128Y518360D01*
X21127Y518361D01*
X21129Y518362D01*
X21476Y519491D01*
X21476Y519492D01*
X21477Y519493D01*
X21474Y519497D01*
X21478Y519500D01*
X21599Y520675D01*
X21595Y520682D01*
X21599Y520686D01*
X21442Y522026D01*
X21437Y522032D01*
X21440Y522037D01*
X20989Y523308D01*
X20982Y523313D01*
X20984Y523318D01*
X20262Y524457D01*
X20254Y524460D01*
X20255Y524466D01*
X19297Y525416D01*
X19289Y525417D01*
X19288Y525423D01*
X18143Y526136D01*
X18135Y526135D01*
X18133Y526141D01*
X16857Y526581D01*
X16850Y526579D01*
X16847Y526583D01*
X15505Y526729D01*
X15502Y526727D01*
X15500Y526729D01*
X9500Y526729D01*
X9497Y526727D01*
X9494Y526729D01*
X8165Y526574D01*
X8159Y526568D01*
X8155Y526571D01*
X6894Y526124D01*
X6889Y526117D01*
X6884Y526119D01*
X5754Y525402D01*
X5751Y525395D01*
X5745Y525396D01*
X4803Y524446D01*
X4802Y524437D01*
X4796Y524437D01*
X4089Y523301D01*
X4090Y523293D01*
X4084Y523291D01*
X3648Y522026D01*
X3650Y522018D01*
X3645Y522016D01*
X3501Y520685D01*
X3505Y520679D01*
X3501Y520675D01*
X3611Y519509D01*
X3616Y519504D01*
X3613Y519500D01*
X3948Y518377D01*
X3954Y518373D01*
X3952Y518369D01*
X4500Y517333D01*
X4506Y517330D01*
X4505Y517325D01*
X5244Y516417D01*
X5251Y516415D01*
X5251Y516410D01*
X6153Y515663D01*
X6161Y515663D01*
X6161Y515658D01*
X7192Y515101D01*
X7199Y515102D01*
X7201Y515097D01*
X8320Y514753D01*
X8327Y514755D01*
X8330Y514751D01*
X9495Y514631D01*
X9498Y514633D01*
X9500Y514631D01*
X15500Y514631D01*
X15503Y514633D01*
G37*
G36*
X635263Y514633D02*
X635263Y514633D01*
X635265Y514631D01*
X636441Y514742D01*
X636446Y514747D01*
X636450Y514744D01*
X637582Y515082D01*
X637586Y515088D01*
X637591Y515086D01*
X638635Y515638D01*
X638638Y515645D01*
X638643Y515643D01*
X639559Y516389D01*
X639560Y516396D01*
X639566Y516396D01*
X640319Y517306D01*
X640319Y517313D01*
X640324Y517314D01*
X640885Y518353D01*
X640884Y518358D01*
X640888Y518360D01*
X640887Y518361D01*
X640889Y518362D01*
X641236Y519491D01*
X641236Y519492D01*
X641237Y519493D01*
X641234Y519497D01*
X641238Y519500D01*
X641359Y520675D01*
X641355Y520682D01*
X641359Y520686D01*
X641202Y522026D01*
X641197Y522032D01*
X641200Y522037D01*
X640749Y523308D01*
X640742Y523313D01*
X640744Y523318D01*
X640022Y524457D01*
X640014Y524460D01*
X640015Y524466D01*
X639057Y525416D01*
X639049Y525417D01*
X639048Y525423D01*
X637903Y526136D01*
X637895Y526135D01*
X637893Y526141D01*
X636617Y526581D01*
X636610Y526579D01*
X636607Y526583D01*
X635265Y526729D01*
X635262Y526727D01*
X635260Y526729D01*
X629260Y526729D01*
X629257Y526727D01*
X629254Y526729D01*
X627925Y526574D01*
X627919Y526568D01*
X627915Y526571D01*
X626654Y526124D01*
X626649Y526117D01*
X626644Y526119D01*
X625514Y525402D01*
X625511Y525395D01*
X625505Y525396D01*
X624563Y524446D01*
X624562Y524437D01*
X624556Y524437D01*
X623849Y523301D01*
X623850Y523293D01*
X623844Y523291D01*
X623408Y522026D01*
X623410Y522018D01*
X623405Y522016D01*
X623261Y520685D01*
X623265Y520679D01*
X623261Y520675D01*
X623371Y519509D01*
X623376Y519504D01*
X623373Y519500D01*
X623708Y518377D01*
X623714Y518373D01*
X623712Y518369D01*
X624260Y517333D01*
X624266Y517330D01*
X624265Y517325D01*
X625004Y516417D01*
X625011Y516415D01*
X625011Y516410D01*
X625913Y515663D01*
X625921Y515663D01*
X625921Y515658D01*
X626952Y515101D01*
X626959Y515102D01*
X626961Y515097D01*
X628080Y514753D01*
X628087Y514755D01*
X628090Y514751D01*
X629255Y514631D01*
X629258Y514633D01*
X629260Y514631D01*
X635260Y514631D01*
X635263Y514633D01*
G37*
G36*
X15503Y1063313D02*
X15503Y1063313D01*
X15505Y1063311D01*
X16681Y1063422D01*
X16686Y1063427D01*
X16690Y1063424D01*
X17822Y1063762D01*
X17826Y1063768D01*
X17831Y1063766D01*
X18875Y1064318D01*
X18878Y1064325D01*
X18883Y1064323D01*
X19799Y1065069D01*
X19800Y1065076D01*
X19806Y1065076D01*
X20559Y1065986D01*
X20559Y1065993D01*
X20564Y1065994D01*
X21125Y1067033D01*
X21124Y1067038D01*
X21128Y1067040D01*
X21127Y1067041D01*
X21129Y1067042D01*
X21476Y1068171D01*
X21476Y1068172D01*
X21477Y1068173D01*
X21474Y1068177D01*
X21478Y1068180D01*
X21599Y1069355D01*
X21595Y1069362D01*
X21599Y1069366D01*
X21442Y1070706D01*
X21437Y1070712D01*
X21440Y1070717D01*
X20989Y1071988D01*
X20982Y1071993D01*
X20984Y1071998D01*
X20262Y1073137D01*
X20254Y1073140D01*
X20255Y1073146D01*
X19297Y1074096D01*
X19289Y1074097D01*
X19288Y1074103D01*
X18143Y1074816D01*
X18135Y1074815D01*
X18133Y1074821D01*
X16857Y1075261D01*
X16850Y1075259D01*
X16847Y1075263D01*
X15505Y1075409D01*
X15502Y1075407D01*
X15500Y1075409D01*
X9500Y1075409D01*
X9497Y1075407D01*
X9494Y1075409D01*
X8165Y1075254D01*
X8159Y1075248D01*
X8155Y1075251D01*
X6894Y1074804D01*
X6889Y1074797D01*
X6884Y1074799D01*
X5754Y1074082D01*
X5751Y1074075D01*
X5745Y1074076D01*
X4803Y1073126D01*
X4802Y1073117D01*
X4796Y1073117D01*
X4089Y1071981D01*
X4090Y1071973D01*
X4084Y1071971D01*
X3648Y1070706D01*
X3650Y1070698D01*
X3645Y1070696D01*
X3501Y1069365D01*
X3505Y1069359D01*
X3501Y1069355D01*
X3611Y1068189D01*
X3616Y1068184D01*
X3613Y1068180D01*
X3948Y1067057D01*
X3954Y1067053D01*
X3952Y1067049D01*
X4500Y1066013D01*
X4506Y1066010D01*
X4505Y1066005D01*
X5244Y1065097D01*
X5251Y1065095D01*
X5251Y1065090D01*
X6153Y1064343D01*
X6161Y1064343D01*
X6161Y1064338D01*
X7192Y1063781D01*
X7199Y1063782D01*
X7201Y1063777D01*
X8320Y1063433D01*
X8327Y1063435D01*
X8330Y1063431D01*
X9495Y1063311D01*
X9498Y1063313D01*
X9500Y1063311D01*
X15500Y1063311D01*
X15503Y1063313D01*
G37*
G36*
X635263Y52353D02*
X635263Y52353D01*
X635265Y52351D01*
X636441Y52462D01*
X636446Y52467D01*
X636450Y52464D01*
X637582Y52802D01*
X637586Y52808D01*
X637591Y52806D01*
X638635Y53358D01*
X638638Y53365D01*
X638643Y53363D01*
X639559Y54109D01*
X639560Y54116D01*
X639566Y54116D01*
X640319Y55026D01*
X640319Y55033D01*
X640324Y55034D01*
X640885Y56073D01*
X640884Y56078D01*
X640888Y56080D01*
X640887Y56081D01*
X640889Y56082D01*
X641236Y57211D01*
X641236Y57212D01*
X641237Y57213D01*
X641234Y57217D01*
X641238Y57220D01*
X641359Y58395D01*
X641355Y58402D01*
X641359Y58406D01*
X641202Y59746D01*
X641197Y59752D01*
X641200Y59757D01*
X640749Y61028D01*
X640742Y61033D01*
X640744Y61038D01*
X640022Y62177D01*
X640014Y62180D01*
X640015Y62186D01*
X639057Y63136D01*
X639049Y63137D01*
X639048Y63143D01*
X637903Y63856D01*
X637895Y63855D01*
X637893Y63861D01*
X636617Y64301D01*
X636610Y64299D01*
X636607Y64303D01*
X635265Y64449D01*
X635262Y64447D01*
X635260Y64449D01*
X629260Y64449D01*
X629257Y64447D01*
X629254Y64449D01*
X627925Y64294D01*
X627919Y64288D01*
X627915Y64291D01*
X626654Y63844D01*
X626649Y63837D01*
X626644Y63839D01*
X625514Y63122D01*
X625511Y63115D01*
X625505Y63116D01*
X624563Y62166D01*
X624562Y62157D01*
X624556Y62157D01*
X623849Y61021D01*
X623850Y61013D01*
X623844Y61011D01*
X623408Y59746D01*
X623410Y59738D01*
X623405Y59736D01*
X623261Y58405D01*
X623265Y58399D01*
X623261Y58395D01*
X623371Y57229D01*
X623376Y57224D01*
X623373Y57220D01*
X623708Y56097D01*
X623714Y56093D01*
X623712Y56089D01*
X624260Y55053D01*
X624266Y55050D01*
X624265Y55045D01*
X625004Y54137D01*
X625011Y54135D01*
X625011Y54130D01*
X625913Y53383D01*
X625921Y53383D01*
X625921Y53378D01*
X626952Y52821D01*
X626959Y52822D01*
X626961Y52817D01*
X628080Y52473D01*
X628087Y52475D01*
X628090Y52471D01*
X629255Y52351D01*
X629258Y52353D01*
X629260Y52351D01*
X635260Y52351D01*
X635263Y52353D01*
G37*
G36*
X635263Y1063313D02*
X635263Y1063313D01*
X635265Y1063311D01*
X636441Y1063422D01*
X636446Y1063427D01*
X636450Y1063424D01*
X637582Y1063762D01*
X637586Y1063768D01*
X637591Y1063766D01*
X638635Y1064318D01*
X638638Y1064325D01*
X638643Y1064323D01*
X639559Y1065069D01*
X639560Y1065076D01*
X639566Y1065076D01*
X640319Y1065986D01*
X640319Y1065993D01*
X640324Y1065994D01*
X640885Y1067033D01*
X640884Y1067038D01*
X640888Y1067040D01*
X640887Y1067041D01*
X640889Y1067042D01*
X641236Y1068171D01*
X641236Y1068172D01*
X641237Y1068173D01*
X641234Y1068177D01*
X641238Y1068180D01*
X641359Y1069355D01*
X641355Y1069362D01*
X641359Y1069366D01*
X641202Y1070706D01*
X641197Y1070712D01*
X641200Y1070717D01*
X640749Y1071988D01*
X640742Y1071993D01*
X640744Y1071998D01*
X640022Y1073137D01*
X640014Y1073140D01*
X640015Y1073146D01*
X639057Y1074096D01*
X639049Y1074097D01*
X639048Y1074103D01*
X637903Y1074816D01*
X637895Y1074815D01*
X637893Y1074821D01*
X636617Y1075261D01*
X636610Y1075259D01*
X636607Y1075263D01*
X635265Y1075409D01*
X635262Y1075407D01*
X635260Y1075409D01*
X629260Y1075409D01*
X629257Y1075407D01*
X629254Y1075409D01*
X627925Y1075254D01*
X627919Y1075248D01*
X627915Y1075251D01*
X626654Y1074804D01*
X626649Y1074797D01*
X626644Y1074799D01*
X625514Y1074082D01*
X625511Y1074075D01*
X625505Y1074076D01*
X624563Y1073126D01*
X624562Y1073117D01*
X624556Y1073117D01*
X623849Y1071981D01*
X623850Y1071973D01*
X623844Y1071971D01*
X623408Y1070706D01*
X623410Y1070698D01*
X623405Y1070696D01*
X623261Y1069365D01*
X623265Y1069359D01*
X623261Y1069355D01*
X623371Y1068189D01*
X623376Y1068184D01*
X623373Y1068180D01*
X623708Y1067057D01*
X623714Y1067053D01*
X623712Y1067049D01*
X624260Y1066013D01*
X624266Y1066010D01*
X624265Y1066005D01*
X625004Y1065097D01*
X625011Y1065095D01*
X625011Y1065090D01*
X625913Y1064343D01*
X625921Y1064343D01*
X625921Y1064338D01*
X626952Y1063781D01*
X626959Y1063782D01*
X626961Y1063777D01*
X628080Y1063433D01*
X628087Y1063435D01*
X628090Y1063431D01*
X629255Y1063311D01*
X629258Y1063313D01*
X629260Y1063311D01*
X635260Y1063311D01*
X635263Y1063313D01*
G37*
G36*
X15503Y52353D02*
X15503Y52353D01*
X15505Y52351D01*
X16681Y52462D01*
X16686Y52467D01*
X16690Y52464D01*
X17822Y52802D01*
X17826Y52808D01*
X17831Y52806D01*
X18875Y53358D01*
X18878Y53365D01*
X18883Y53363D01*
X19799Y54109D01*
X19800Y54116D01*
X19806Y54116D01*
X20559Y55026D01*
X20559Y55033D01*
X20564Y55034D01*
X21125Y56073D01*
X21124Y56078D01*
X21128Y56080D01*
X21127Y56081D01*
X21129Y56082D01*
X21476Y57211D01*
X21476Y57212D01*
X21477Y57213D01*
X21474Y57217D01*
X21478Y57220D01*
X21599Y58395D01*
X21595Y58402D01*
X21599Y58406D01*
X21442Y59746D01*
X21437Y59752D01*
X21440Y59757D01*
X20989Y61028D01*
X20982Y61033D01*
X20984Y61038D01*
X20262Y62177D01*
X20254Y62180D01*
X20255Y62186D01*
X19297Y63136D01*
X19289Y63137D01*
X19288Y63143D01*
X18143Y63856D01*
X18135Y63855D01*
X18133Y63861D01*
X16857Y64301D01*
X16850Y64299D01*
X16847Y64303D01*
X15505Y64449D01*
X15502Y64447D01*
X15500Y64449D01*
X9500Y64449D01*
X9497Y64447D01*
X9494Y64449D01*
X8165Y64294D01*
X8159Y64288D01*
X8155Y64291D01*
X6894Y63844D01*
X6889Y63837D01*
X6884Y63839D01*
X5754Y63122D01*
X5751Y63115D01*
X5745Y63116D01*
X4803Y62166D01*
X4802Y62157D01*
X4796Y62157D01*
X4089Y61021D01*
X4090Y61013D01*
X4084Y61011D01*
X3648Y59746D01*
X3650Y59738D01*
X3645Y59736D01*
X3501Y58405D01*
X3505Y58399D01*
X3501Y58395D01*
X3611Y57229D01*
X3616Y57224D01*
X3613Y57220D01*
X3948Y56097D01*
X3954Y56093D01*
X3952Y56089D01*
X4500Y55053D01*
X4506Y55050D01*
X4505Y55045D01*
X5244Y54137D01*
X5251Y54135D01*
X5251Y54130D01*
X6153Y53383D01*
X6161Y53383D01*
X6161Y53378D01*
X7192Y52821D01*
X7199Y52822D01*
X7201Y52817D01*
X8320Y52473D01*
X8327Y52475D01*
X8330Y52471D01*
X9495Y52351D01*
X9498Y52353D01*
X9500Y52351D01*
X15500Y52351D01*
X15503Y52353D01*
G37*
G36*
X635263Y976913D02*
X635263Y976913D01*
X635265Y976911D01*
X636441Y977022D01*
X636446Y977027D01*
X636450Y977024D01*
X637582Y977362D01*
X637586Y977368D01*
X637591Y977366D01*
X638635Y977918D01*
X638638Y977925D01*
X638643Y977923D01*
X639559Y978669D01*
X639560Y978676D01*
X639566Y978676D01*
X640319Y979586D01*
X640319Y979593D01*
X640324Y979594D01*
X640885Y980633D01*
X640884Y980638D01*
X640888Y980640D01*
X640887Y980641D01*
X640889Y980642D01*
X641236Y981771D01*
X641236Y981772D01*
X641237Y981773D01*
X641234Y981777D01*
X641238Y981780D01*
X641359Y982955D01*
X641355Y982962D01*
X641359Y982966D01*
X641202Y984306D01*
X641197Y984312D01*
X641200Y984317D01*
X640749Y985588D01*
X640742Y985593D01*
X640744Y985598D01*
X640022Y986737D01*
X640014Y986740D01*
X640015Y986746D01*
X639057Y987696D01*
X639049Y987697D01*
X639048Y987703D01*
X637903Y988416D01*
X637895Y988415D01*
X637893Y988421D01*
X636617Y988861D01*
X636610Y988859D01*
X636607Y988863D01*
X635265Y989009D01*
X635262Y989007D01*
X635260Y989009D01*
X629260Y989009D01*
X629257Y989007D01*
X629254Y989009D01*
X627925Y988854D01*
X627919Y988848D01*
X627915Y988851D01*
X626654Y988404D01*
X626649Y988397D01*
X626644Y988399D01*
X625514Y987682D01*
X625511Y987675D01*
X625505Y987676D01*
X624563Y986726D01*
X624562Y986717D01*
X624556Y986717D01*
X623849Y985581D01*
X623850Y985573D01*
X623844Y985571D01*
X623408Y984306D01*
X623410Y984298D01*
X623405Y984296D01*
X623261Y982965D01*
X623265Y982959D01*
X623261Y982955D01*
X623371Y981789D01*
X623376Y981784D01*
X623373Y981780D01*
X623708Y980657D01*
X623714Y980653D01*
X623712Y980649D01*
X624260Y979613D01*
X624266Y979610D01*
X624265Y979605D01*
X625004Y978697D01*
X625011Y978695D01*
X625011Y978690D01*
X625913Y977943D01*
X625921Y977943D01*
X625921Y977938D01*
X626952Y977381D01*
X626959Y977382D01*
X626961Y977377D01*
X628080Y977033D01*
X628087Y977035D01*
X628090Y977031D01*
X629255Y976911D01*
X629258Y976913D01*
X629260Y976911D01*
X635260Y976911D01*
X635263Y976913D01*
G37*
G36*
X15503Y976913D02*
X15503Y976913D01*
X15505Y976911D01*
X16681Y977022D01*
X16686Y977027D01*
X16690Y977024D01*
X17822Y977362D01*
X17826Y977368D01*
X17831Y977366D01*
X18875Y977918D01*
X18878Y977925D01*
X18883Y977923D01*
X19799Y978669D01*
X19800Y978676D01*
X19806Y978676D01*
X20559Y979586D01*
X20559Y979593D01*
X20564Y979594D01*
X21125Y980633D01*
X21124Y980638D01*
X21128Y980640D01*
X21127Y980641D01*
X21129Y980642D01*
X21476Y981771D01*
X21476Y981772D01*
X21477Y981773D01*
X21474Y981777D01*
X21478Y981780D01*
X21599Y982955D01*
X21595Y982962D01*
X21599Y982966D01*
X21442Y984306D01*
X21437Y984312D01*
X21440Y984317D01*
X20989Y985588D01*
X20982Y985593D01*
X20984Y985598D01*
X20262Y986737D01*
X20254Y986740D01*
X20255Y986746D01*
X19297Y987696D01*
X19289Y987697D01*
X19288Y987703D01*
X18143Y988416D01*
X18135Y988415D01*
X18133Y988421D01*
X16857Y988861D01*
X16850Y988859D01*
X16847Y988863D01*
X15505Y989009D01*
X15502Y989007D01*
X15500Y989009D01*
X9500Y989009D01*
X9497Y989007D01*
X9494Y989009D01*
X8165Y988854D01*
X8159Y988848D01*
X8155Y988851D01*
X6894Y988404D01*
X6889Y988397D01*
X6884Y988399D01*
X5754Y987682D01*
X5751Y987675D01*
X5745Y987676D01*
X4803Y986726D01*
X4802Y986717D01*
X4796Y986717D01*
X4089Y985581D01*
X4090Y985573D01*
X4084Y985571D01*
X3648Y984306D01*
X3650Y984298D01*
X3645Y984296D01*
X3501Y982965D01*
X3505Y982959D01*
X3501Y982955D01*
X3611Y981789D01*
X3616Y981784D01*
X3613Y981780D01*
X3948Y980657D01*
X3954Y980653D01*
X3952Y980649D01*
X4500Y979613D01*
X4506Y979610D01*
X4505Y979605D01*
X5244Y978697D01*
X5251Y978695D01*
X5251Y978690D01*
X6153Y977943D01*
X6161Y977943D01*
X6161Y977938D01*
X7192Y977381D01*
X7199Y977382D01*
X7201Y977377D01*
X8320Y977033D01*
X8327Y977035D01*
X8330Y977031D01*
X9495Y976911D01*
X9498Y976913D01*
X9500Y976911D01*
X15500Y976911D01*
X15503Y976913D01*
G37*
G36*
X635263Y601033D02*
X635263Y601033D01*
X635265Y601031D01*
X636441Y601142D01*
X636446Y601147D01*
X636450Y601144D01*
X637582Y601482D01*
X637586Y601488D01*
X637591Y601486D01*
X638635Y602038D01*
X638638Y602045D01*
X638643Y602043D01*
X639559Y602789D01*
X639560Y602796D01*
X639566Y602796D01*
X640319Y603706D01*
X640319Y603713D01*
X640324Y603714D01*
X640885Y604753D01*
X640884Y604758D01*
X640888Y604760D01*
X640887Y604761D01*
X640889Y604762D01*
X641236Y605891D01*
X641236Y605892D01*
X641237Y605893D01*
X641234Y605897D01*
X641238Y605900D01*
X641359Y607075D01*
X641355Y607082D01*
X641359Y607086D01*
X641202Y608426D01*
X641197Y608432D01*
X641200Y608437D01*
X640749Y609708D01*
X640742Y609713D01*
X640744Y609718D01*
X640022Y610857D01*
X640014Y610860D01*
X640015Y610866D01*
X639057Y611816D01*
X639049Y611817D01*
X639048Y611823D01*
X637903Y612536D01*
X637895Y612535D01*
X637893Y612541D01*
X636617Y612981D01*
X636610Y612979D01*
X636607Y612983D01*
X635265Y613129D01*
X635262Y613127D01*
X635260Y613129D01*
X629260Y613129D01*
X629257Y613127D01*
X629254Y613129D01*
X627925Y612974D01*
X627919Y612968D01*
X627915Y612971D01*
X626654Y612524D01*
X626649Y612517D01*
X626644Y612519D01*
X625514Y611802D01*
X625511Y611795D01*
X625505Y611796D01*
X624563Y610846D01*
X624562Y610837D01*
X624556Y610837D01*
X623849Y609701D01*
X623850Y609693D01*
X623844Y609691D01*
X623408Y608426D01*
X623410Y608418D01*
X623405Y608416D01*
X623261Y607085D01*
X623265Y607079D01*
X623261Y607075D01*
X623371Y605909D01*
X623376Y605904D01*
X623373Y605900D01*
X623708Y604777D01*
X623714Y604773D01*
X623712Y604769D01*
X624260Y603733D01*
X624266Y603730D01*
X624265Y603725D01*
X625004Y602817D01*
X625011Y602815D01*
X625011Y602810D01*
X625913Y602063D01*
X625921Y602063D01*
X625921Y602058D01*
X626952Y601501D01*
X626959Y601502D01*
X626961Y601497D01*
X628080Y601153D01*
X628087Y601155D01*
X628090Y601151D01*
X629255Y601031D01*
X629258Y601033D01*
X629260Y601031D01*
X635260Y601031D01*
X635263Y601033D01*
G37*
G36*
X15503Y601033D02*
X15503Y601033D01*
X15505Y601031D01*
X16681Y601142D01*
X16686Y601147D01*
X16690Y601144D01*
X17822Y601482D01*
X17826Y601488D01*
X17831Y601486D01*
X18875Y602038D01*
X18878Y602045D01*
X18883Y602043D01*
X19799Y602789D01*
X19800Y602796D01*
X19806Y602796D01*
X20559Y603706D01*
X20559Y603713D01*
X20564Y603714D01*
X21125Y604753D01*
X21124Y604758D01*
X21128Y604760D01*
X21127Y604761D01*
X21129Y604762D01*
X21476Y605891D01*
X21476Y605892D01*
X21477Y605893D01*
X21474Y605897D01*
X21478Y605900D01*
X21599Y607075D01*
X21595Y607082D01*
X21599Y607086D01*
X21442Y608426D01*
X21437Y608432D01*
X21440Y608437D01*
X20989Y609708D01*
X20982Y609713D01*
X20984Y609718D01*
X20262Y610857D01*
X20254Y610860D01*
X20255Y610866D01*
X19297Y611816D01*
X19289Y611817D01*
X19288Y611823D01*
X18143Y612536D01*
X18135Y612535D01*
X18133Y612541D01*
X16857Y612981D01*
X16850Y612979D01*
X16847Y612983D01*
X15505Y613129D01*
X15502Y613127D01*
X15500Y613129D01*
X9500Y613129D01*
X9497Y613127D01*
X9494Y613129D01*
X8165Y612974D01*
X8159Y612968D01*
X8155Y612971D01*
X6894Y612524D01*
X6889Y612517D01*
X6884Y612519D01*
X5754Y611802D01*
X5751Y611795D01*
X5745Y611796D01*
X4803Y610846D01*
X4802Y610837D01*
X4796Y610837D01*
X4089Y609701D01*
X4090Y609693D01*
X4084Y609691D01*
X3648Y608426D01*
X3650Y608418D01*
X3645Y608416D01*
X3501Y607085D01*
X3505Y607079D01*
X3501Y607075D01*
X3611Y605909D01*
X3616Y605904D01*
X3613Y605900D01*
X3948Y604777D01*
X3954Y604773D01*
X3952Y604769D01*
X4500Y603733D01*
X4506Y603730D01*
X4505Y603725D01*
X5244Y602817D01*
X5251Y602815D01*
X5251Y602810D01*
X6153Y602063D01*
X6161Y602063D01*
X6161Y602058D01*
X7192Y601501D01*
X7199Y601502D01*
X7201Y601497D01*
X8320Y601153D01*
X8327Y601155D01*
X8330Y601151D01*
X9495Y601031D01*
X9498Y601033D01*
X9500Y601031D01*
X15500Y601031D01*
X15503Y601033D01*
G37*
G36*
X635263Y138753D02*
X635263Y138753D01*
X635265Y138751D01*
X636441Y138862D01*
X636446Y138867D01*
X636450Y138864D01*
X637582Y139202D01*
X637586Y139208D01*
X637591Y139206D01*
X638635Y139758D01*
X638638Y139765D01*
X638643Y139763D01*
X639559Y140509D01*
X639560Y140516D01*
X639566Y140516D01*
X640319Y141426D01*
X640319Y141433D01*
X640324Y141434D01*
X640885Y142473D01*
X640884Y142478D01*
X640888Y142480D01*
X640887Y142481D01*
X640889Y142482D01*
X641236Y143611D01*
X641236Y143612D01*
X641237Y143613D01*
X641234Y143617D01*
X641238Y143620D01*
X641359Y144795D01*
X641355Y144802D01*
X641359Y144806D01*
X641202Y146146D01*
X641197Y146152D01*
X641200Y146157D01*
X640749Y147428D01*
X640742Y147433D01*
X640744Y147438D01*
X640022Y148577D01*
X640014Y148580D01*
X640015Y148586D01*
X639057Y149536D01*
X639049Y149537D01*
X639048Y149543D01*
X637903Y150256D01*
X637895Y150255D01*
X637893Y150261D01*
X636617Y150701D01*
X636610Y150699D01*
X636607Y150703D01*
X635265Y150849D01*
X635262Y150847D01*
X635260Y150849D01*
X629260Y150849D01*
X629257Y150847D01*
X629254Y150849D01*
X627925Y150694D01*
X627919Y150688D01*
X627915Y150691D01*
X626654Y150244D01*
X626649Y150237D01*
X626644Y150239D01*
X625514Y149522D01*
X625511Y149515D01*
X625505Y149516D01*
X624563Y148566D01*
X624562Y148557D01*
X624556Y148557D01*
X623849Y147421D01*
X623850Y147413D01*
X623844Y147411D01*
X623408Y146146D01*
X623410Y146138D01*
X623405Y146136D01*
X623261Y144805D01*
X623265Y144799D01*
X623261Y144795D01*
X623371Y143629D01*
X623376Y143624D01*
X623373Y143620D01*
X623708Y142497D01*
X623714Y142493D01*
X623712Y142489D01*
X624260Y141453D01*
X624266Y141450D01*
X624265Y141445D01*
X625004Y140537D01*
X625011Y140535D01*
X625011Y140530D01*
X625913Y139783D01*
X625921Y139783D01*
X625921Y139778D01*
X626952Y139221D01*
X626959Y139222D01*
X626961Y139217D01*
X628080Y138873D01*
X628087Y138875D01*
X628090Y138871D01*
X629255Y138751D01*
X629258Y138753D01*
X629260Y138751D01*
X635260Y138751D01*
X635263Y138753D01*
G37*
G36*
X15503Y138753D02*
X15503Y138753D01*
X15505Y138751D01*
X16681Y138862D01*
X16686Y138867D01*
X16690Y138864D01*
X17822Y139202D01*
X17826Y139208D01*
X17831Y139206D01*
X18875Y139758D01*
X18878Y139765D01*
X18883Y139763D01*
X19799Y140509D01*
X19800Y140516D01*
X19806Y140516D01*
X20559Y141426D01*
X20559Y141433D01*
X20564Y141434D01*
X21125Y142473D01*
X21124Y142478D01*
X21128Y142480D01*
X21127Y142481D01*
X21129Y142482D01*
X21476Y143611D01*
X21476Y143612D01*
X21477Y143613D01*
X21474Y143617D01*
X21478Y143620D01*
X21599Y144795D01*
X21595Y144802D01*
X21599Y144806D01*
X21442Y146146D01*
X21437Y146152D01*
X21440Y146157D01*
X20989Y147428D01*
X20982Y147433D01*
X20984Y147438D01*
X20262Y148577D01*
X20254Y148580D01*
X20255Y148586D01*
X19297Y149536D01*
X19289Y149537D01*
X19288Y149543D01*
X18143Y150256D01*
X18135Y150255D01*
X18133Y150261D01*
X16857Y150701D01*
X16850Y150699D01*
X16847Y150703D01*
X15505Y150849D01*
X15502Y150847D01*
X15500Y150849D01*
X9500Y150849D01*
X9497Y150847D01*
X9494Y150849D01*
X8165Y150694D01*
X8159Y150688D01*
X8155Y150691D01*
X6894Y150244D01*
X6889Y150237D01*
X6884Y150239D01*
X5754Y149522D01*
X5751Y149515D01*
X5745Y149516D01*
X4803Y148566D01*
X4802Y148557D01*
X4796Y148557D01*
X4089Y147421D01*
X4090Y147413D01*
X4084Y147411D01*
X3648Y146146D01*
X3650Y146138D01*
X3645Y146136D01*
X3501Y144805D01*
X3505Y144799D01*
X3501Y144795D01*
X3611Y143629D01*
X3616Y143624D01*
X3613Y143620D01*
X3948Y142497D01*
X3954Y142493D01*
X3952Y142489D01*
X4500Y141453D01*
X4506Y141450D01*
X4505Y141445D01*
X5244Y140537D01*
X5251Y140535D01*
X5251Y140530D01*
X6153Y139783D01*
X6161Y139783D01*
X6161Y139778D01*
X7192Y139221D01*
X7199Y139222D01*
X7201Y139217D01*
X8320Y138873D01*
X8327Y138875D01*
X8330Y138871D01*
X9495Y138751D01*
X9498Y138753D01*
X9500Y138751D01*
X15500Y138751D01*
X15503Y138753D01*
G37*
G36*
X108650Y522363D02*
X108650Y522363D01*
X108716Y522365D01*
X108759Y522383D01*
X108806Y522391D01*
X108863Y522425D01*
X108923Y522450D01*
X108958Y522481D01*
X108999Y522506D01*
X109041Y522557D01*
X109089Y522601D01*
X109111Y522643D01*
X109140Y522680D01*
X109161Y522742D01*
X109192Y522801D01*
X109200Y522855D01*
X109212Y522892D01*
X109211Y522932D01*
X109219Y522986D01*
X109219Y528574D01*
X109208Y528639D01*
X109206Y528705D01*
X109188Y528748D01*
X109180Y528795D01*
X109146Y528852D01*
X109121Y528912D01*
X109090Y528947D01*
X109065Y528988D01*
X109014Y529030D01*
X108970Y529078D01*
X108928Y529100D01*
X108891Y529129D01*
X108829Y529150D01*
X108770Y529181D01*
X108716Y529189D01*
X108679Y529201D01*
X108639Y529200D01*
X108585Y529208D01*
X104775Y529208D01*
X104710Y529197D01*
X104644Y529195D01*
X104601Y529177D01*
X104554Y529169D01*
X104497Y529135D01*
X104437Y529110D01*
X104402Y529079D01*
X104361Y529054D01*
X104320Y529003D01*
X104271Y528959D01*
X104249Y528917D01*
X104220Y528880D01*
X104199Y528818D01*
X104168Y528759D01*
X104160Y528705D01*
X104148Y528668D01*
X104149Y528628D01*
X104141Y528574D01*
X104141Y522986D01*
X104152Y522921D01*
X104154Y522855D01*
X104172Y522812D01*
X104180Y522765D01*
X104214Y522708D01*
X104239Y522648D01*
X104270Y522613D01*
X104295Y522572D01*
X104346Y522531D01*
X104390Y522482D01*
X104432Y522460D01*
X104469Y522431D01*
X104531Y522410D01*
X104590Y522379D01*
X104644Y522371D01*
X104681Y522359D01*
X104721Y522360D01*
X104775Y522352D01*
X108585Y522352D01*
X108650Y522363D01*
G37*
G36*
X728410Y522363D02*
X728410Y522363D01*
X728476Y522365D01*
X728519Y522383D01*
X728566Y522391D01*
X728623Y522425D01*
X728683Y522450D01*
X728718Y522481D01*
X728759Y522506D01*
X728801Y522557D01*
X728849Y522601D01*
X728871Y522643D01*
X728900Y522680D01*
X728921Y522742D01*
X728952Y522801D01*
X728960Y522855D01*
X728972Y522892D01*
X728971Y522932D01*
X728979Y522986D01*
X728979Y528574D01*
X728968Y528639D01*
X728966Y528705D01*
X728948Y528748D01*
X728940Y528795D01*
X728906Y528852D01*
X728881Y528912D01*
X728850Y528947D01*
X728825Y528988D01*
X728774Y529030D01*
X728730Y529078D01*
X728688Y529100D01*
X728651Y529129D01*
X728589Y529150D01*
X728530Y529181D01*
X728476Y529189D01*
X728439Y529201D01*
X728399Y529200D01*
X728345Y529208D01*
X724535Y529208D01*
X724470Y529197D01*
X724404Y529195D01*
X724361Y529177D01*
X724314Y529169D01*
X724257Y529135D01*
X724197Y529110D01*
X724162Y529079D01*
X724121Y529054D01*
X724080Y529003D01*
X724031Y528959D01*
X724009Y528917D01*
X723980Y528880D01*
X723959Y528818D01*
X723928Y528759D01*
X723920Y528705D01*
X723908Y528668D01*
X723909Y528628D01*
X723901Y528574D01*
X723901Y522986D01*
X723912Y522921D01*
X723914Y522855D01*
X723932Y522812D01*
X723940Y522765D01*
X723974Y522708D01*
X723999Y522648D01*
X724030Y522613D01*
X724055Y522572D01*
X724106Y522531D01*
X724150Y522482D01*
X724192Y522460D01*
X724229Y522431D01*
X724291Y522410D01*
X724350Y522379D01*
X724404Y522371D01*
X724441Y522359D01*
X724481Y522360D01*
X724535Y522352D01*
X728345Y522352D01*
X728410Y522363D01*
G37*
G36*
X728410Y984643D02*
X728410Y984643D01*
X728476Y984645D01*
X728519Y984663D01*
X728566Y984671D01*
X728623Y984705D01*
X728683Y984730D01*
X728718Y984761D01*
X728759Y984786D01*
X728801Y984837D01*
X728849Y984881D01*
X728871Y984923D01*
X728900Y984960D01*
X728921Y985022D01*
X728952Y985081D01*
X728960Y985135D01*
X728972Y985172D01*
X728971Y985212D01*
X728979Y985266D01*
X728979Y990854D01*
X728968Y990919D01*
X728966Y990985D01*
X728948Y991028D01*
X728940Y991075D01*
X728906Y991132D01*
X728881Y991192D01*
X728850Y991227D01*
X728825Y991268D01*
X728774Y991310D01*
X728730Y991358D01*
X728688Y991380D01*
X728651Y991409D01*
X728589Y991430D01*
X728530Y991461D01*
X728476Y991469D01*
X728439Y991481D01*
X728399Y991480D01*
X728345Y991488D01*
X724535Y991488D01*
X724470Y991477D01*
X724404Y991475D01*
X724361Y991457D01*
X724314Y991449D01*
X724257Y991415D01*
X724197Y991390D01*
X724162Y991359D01*
X724121Y991334D01*
X724080Y991283D01*
X724031Y991239D01*
X724009Y991197D01*
X723980Y991160D01*
X723959Y991098D01*
X723928Y991039D01*
X723920Y990985D01*
X723908Y990948D01*
X723909Y990908D01*
X723901Y990854D01*
X723901Y985266D01*
X723912Y985201D01*
X723914Y985135D01*
X723932Y985092D01*
X723940Y985045D01*
X723974Y984988D01*
X723999Y984928D01*
X724030Y984893D01*
X724055Y984852D01*
X724106Y984811D01*
X724150Y984762D01*
X724192Y984740D01*
X724229Y984711D01*
X724291Y984690D01*
X724350Y984659D01*
X724404Y984651D01*
X724441Y984639D01*
X724481Y984640D01*
X724535Y984632D01*
X728345Y984632D01*
X728410Y984643D01*
G37*
G36*
X728410Y60083D02*
X728410Y60083D01*
X728476Y60085D01*
X728519Y60103D01*
X728566Y60111D01*
X728623Y60145D01*
X728683Y60170D01*
X728718Y60201D01*
X728759Y60226D01*
X728801Y60277D01*
X728849Y60321D01*
X728871Y60363D01*
X728900Y60400D01*
X728921Y60462D01*
X728952Y60521D01*
X728960Y60575D01*
X728972Y60612D01*
X728971Y60652D01*
X728979Y60706D01*
X728979Y66294D01*
X728968Y66359D01*
X728966Y66425D01*
X728948Y66468D01*
X728940Y66515D01*
X728906Y66572D01*
X728881Y66632D01*
X728850Y66667D01*
X728825Y66708D01*
X728774Y66750D01*
X728730Y66798D01*
X728688Y66820D01*
X728651Y66849D01*
X728589Y66870D01*
X728530Y66901D01*
X728476Y66909D01*
X728439Y66921D01*
X728399Y66920D01*
X728345Y66928D01*
X724535Y66928D01*
X724470Y66917D01*
X724404Y66915D01*
X724361Y66897D01*
X724314Y66889D01*
X724257Y66855D01*
X724197Y66830D01*
X724162Y66799D01*
X724121Y66774D01*
X724080Y66723D01*
X724031Y66679D01*
X724009Y66637D01*
X723980Y66600D01*
X723959Y66538D01*
X723928Y66479D01*
X723920Y66425D01*
X723908Y66388D01*
X723909Y66348D01*
X723901Y66294D01*
X723901Y60706D01*
X723912Y60641D01*
X723914Y60575D01*
X723932Y60532D01*
X723940Y60485D01*
X723974Y60428D01*
X723999Y60368D01*
X724030Y60333D01*
X724055Y60292D01*
X724106Y60251D01*
X724150Y60202D01*
X724192Y60180D01*
X724229Y60151D01*
X724291Y60130D01*
X724350Y60099D01*
X724404Y60091D01*
X724441Y60079D01*
X724481Y60080D01*
X724535Y60072D01*
X728345Y60072D01*
X728410Y60083D01*
G37*
G36*
X108650Y984643D02*
X108650Y984643D01*
X108716Y984645D01*
X108759Y984663D01*
X108806Y984671D01*
X108863Y984705D01*
X108923Y984730D01*
X108958Y984761D01*
X108999Y984786D01*
X109041Y984837D01*
X109089Y984881D01*
X109111Y984923D01*
X109140Y984960D01*
X109161Y985022D01*
X109192Y985081D01*
X109200Y985135D01*
X109212Y985172D01*
X109211Y985212D01*
X109219Y985266D01*
X109219Y990854D01*
X109208Y990919D01*
X109206Y990985D01*
X109188Y991028D01*
X109180Y991075D01*
X109146Y991132D01*
X109121Y991192D01*
X109090Y991227D01*
X109065Y991268D01*
X109014Y991310D01*
X108970Y991358D01*
X108928Y991380D01*
X108891Y991409D01*
X108829Y991430D01*
X108770Y991461D01*
X108716Y991469D01*
X108679Y991481D01*
X108639Y991480D01*
X108585Y991488D01*
X104775Y991488D01*
X104710Y991477D01*
X104644Y991475D01*
X104601Y991457D01*
X104554Y991449D01*
X104497Y991415D01*
X104437Y991390D01*
X104402Y991359D01*
X104361Y991334D01*
X104320Y991283D01*
X104271Y991239D01*
X104249Y991197D01*
X104220Y991160D01*
X104199Y991098D01*
X104168Y991039D01*
X104160Y990985D01*
X104148Y990948D01*
X104149Y990908D01*
X104141Y990854D01*
X104141Y985266D01*
X104152Y985201D01*
X104154Y985135D01*
X104172Y985092D01*
X104180Y985045D01*
X104214Y984988D01*
X104239Y984928D01*
X104270Y984893D01*
X104295Y984852D01*
X104346Y984811D01*
X104390Y984762D01*
X104432Y984740D01*
X104469Y984711D01*
X104531Y984690D01*
X104590Y984659D01*
X104644Y984651D01*
X104681Y984639D01*
X104721Y984640D01*
X104775Y984632D01*
X108585Y984632D01*
X108650Y984643D01*
G37*
G36*
X108650Y60083D02*
X108650Y60083D01*
X108716Y60085D01*
X108759Y60103D01*
X108806Y60111D01*
X108863Y60145D01*
X108923Y60170D01*
X108958Y60201D01*
X108999Y60226D01*
X109041Y60277D01*
X109089Y60321D01*
X109111Y60363D01*
X109140Y60400D01*
X109161Y60462D01*
X109192Y60521D01*
X109200Y60575D01*
X109212Y60612D01*
X109211Y60652D01*
X109219Y60706D01*
X109219Y66294D01*
X109208Y66359D01*
X109206Y66425D01*
X109188Y66468D01*
X109180Y66515D01*
X109146Y66572D01*
X109121Y66632D01*
X109090Y66667D01*
X109065Y66708D01*
X109014Y66750D01*
X108970Y66798D01*
X108928Y66820D01*
X108891Y66849D01*
X108829Y66870D01*
X108770Y66901D01*
X108716Y66909D01*
X108679Y66921D01*
X108639Y66920D01*
X108585Y66928D01*
X104775Y66928D01*
X104710Y66917D01*
X104644Y66915D01*
X104601Y66897D01*
X104554Y66889D01*
X104497Y66855D01*
X104437Y66830D01*
X104402Y66799D01*
X104361Y66774D01*
X104320Y66723D01*
X104271Y66679D01*
X104249Y66637D01*
X104220Y66600D01*
X104199Y66538D01*
X104168Y66479D01*
X104160Y66425D01*
X104148Y66388D01*
X104149Y66348D01*
X104141Y66294D01*
X104141Y60706D01*
X104152Y60641D01*
X104154Y60575D01*
X104172Y60532D01*
X104180Y60485D01*
X104214Y60428D01*
X104239Y60368D01*
X104270Y60333D01*
X104295Y60292D01*
X104346Y60251D01*
X104390Y60202D01*
X104432Y60180D01*
X104469Y60151D01*
X104531Y60130D01*
X104590Y60099D01*
X104644Y60091D01*
X104681Y60079D01*
X104721Y60080D01*
X104775Y60072D01*
X108585Y60072D01*
X108650Y60083D01*
G37*
G36*
X496635Y1028712D02*
X496635Y1028712D01*
X496701Y1028714D01*
X496744Y1028732D01*
X496791Y1028740D01*
X496848Y1028774D01*
X496908Y1028799D01*
X496943Y1028830D01*
X496984Y1028855D01*
X497026Y1028906D01*
X497074Y1028950D01*
X497096Y1028992D01*
X497125Y1029029D01*
X497146Y1029091D01*
X497177Y1029150D01*
X497185Y1029204D01*
X497197Y1029241D01*
X497196Y1029281D01*
X497204Y1029335D01*
X497204Y1033145D01*
X497193Y1033210D01*
X497191Y1033276D01*
X497173Y1033319D01*
X497165Y1033366D01*
X497131Y1033423D01*
X497106Y1033483D01*
X497075Y1033518D01*
X497050Y1033559D01*
X496999Y1033601D01*
X496955Y1033649D01*
X496913Y1033671D01*
X496876Y1033700D01*
X496814Y1033721D01*
X496755Y1033752D01*
X496701Y1033760D01*
X496664Y1033772D01*
X496624Y1033771D01*
X496570Y1033779D01*
X494030Y1033779D01*
X493965Y1033768D01*
X493899Y1033766D01*
X493856Y1033748D01*
X493809Y1033740D01*
X493752Y1033706D01*
X493692Y1033681D01*
X493657Y1033650D01*
X493616Y1033625D01*
X493575Y1033574D01*
X493526Y1033530D01*
X493504Y1033488D01*
X493475Y1033451D01*
X493454Y1033389D01*
X493423Y1033330D01*
X493415Y1033276D01*
X493403Y1033239D01*
X493403Y1033235D01*
X493403Y1033234D01*
X493404Y1033199D01*
X493396Y1033145D01*
X493396Y1029335D01*
X493407Y1029270D01*
X493409Y1029204D01*
X493427Y1029161D01*
X493435Y1029114D01*
X493469Y1029057D01*
X493494Y1028997D01*
X493525Y1028962D01*
X493550Y1028921D01*
X493601Y1028880D01*
X493645Y1028831D01*
X493687Y1028809D01*
X493724Y1028780D01*
X493786Y1028759D01*
X493845Y1028728D01*
X493899Y1028720D01*
X493936Y1028708D01*
X493976Y1028709D01*
X494030Y1028701D01*
X496570Y1028701D01*
X496635Y1028712D01*
G37*
G36*
X496635Y1018552D02*
X496635Y1018552D01*
X496701Y1018554D01*
X496744Y1018572D01*
X496791Y1018580D01*
X496848Y1018614D01*
X496908Y1018639D01*
X496943Y1018670D01*
X496984Y1018695D01*
X497026Y1018746D01*
X497074Y1018790D01*
X497096Y1018832D01*
X497125Y1018869D01*
X497146Y1018931D01*
X497177Y1018990D01*
X497185Y1019044D01*
X497197Y1019081D01*
X497196Y1019121D01*
X497204Y1019175D01*
X497204Y1022985D01*
X497193Y1023050D01*
X497191Y1023116D01*
X497173Y1023159D01*
X497165Y1023206D01*
X497131Y1023263D01*
X497106Y1023323D01*
X497075Y1023358D01*
X497050Y1023399D01*
X496999Y1023441D01*
X496955Y1023489D01*
X496913Y1023511D01*
X496876Y1023540D01*
X496814Y1023561D01*
X496755Y1023592D01*
X496701Y1023600D01*
X496664Y1023612D01*
X496624Y1023611D01*
X496570Y1023619D01*
X494030Y1023619D01*
X493965Y1023608D01*
X493899Y1023606D01*
X493856Y1023588D01*
X493809Y1023580D01*
X493752Y1023546D01*
X493692Y1023521D01*
X493657Y1023490D01*
X493616Y1023465D01*
X493575Y1023414D01*
X493526Y1023370D01*
X493504Y1023328D01*
X493475Y1023291D01*
X493454Y1023229D01*
X493423Y1023170D01*
X493415Y1023116D01*
X493403Y1023079D01*
X493403Y1023075D01*
X493403Y1023074D01*
X493404Y1023039D01*
X493396Y1022985D01*
X493396Y1019175D01*
X493407Y1019110D01*
X493409Y1019044D01*
X493427Y1019001D01*
X493435Y1018954D01*
X493469Y1018897D01*
X493494Y1018837D01*
X493525Y1018802D01*
X493550Y1018761D01*
X493601Y1018720D01*
X493645Y1018671D01*
X493687Y1018649D01*
X493724Y1018620D01*
X493786Y1018599D01*
X493845Y1018568D01*
X493899Y1018560D01*
X493936Y1018548D01*
X493976Y1018549D01*
X494030Y1018541D01*
X496570Y1018541D01*
X496635Y1018552D01*
G37*
G36*
X496635Y556272D02*
X496635Y556272D01*
X496701Y556274D01*
X496744Y556292D01*
X496791Y556300D01*
X496848Y556334D01*
X496908Y556359D01*
X496943Y556390D01*
X496984Y556415D01*
X497026Y556466D01*
X497074Y556510D01*
X497096Y556552D01*
X497125Y556589D01*
X497146Y556651D01*
X497177Y556710D01*
X497185Y556764D01*
X497197Y556801D01*
X497196Y556841D01*
X497204Y556895D01*
X497204Y560705D01*
X497193Y560770D01*
X497191Y560836D01*
X497173Y560879D01*
X497165Y560926D01*
X497131Y560983D01*
X497106Y561043D01*
X497075Y561078D01*
X497050Y561119D01*
X496999Y561161D01*
X496955Y561209D01*
X496913Y561231D01*
X496876Y561260D01*
X496814Y561281D01*
X496755Y561312D01*
X496701Y561320D01*
X496664Y561332D01*
X496624Y561331D01*
X496570Y561339D01*
X494030Y561339D01*
X493965Y561328D01*
X493899Y561326D01*
X493856Y561308D01*
X493809Y561300D01*
X493752Y561266D01*
X493692Y561241D01*
X493657Y561210D01*
X493616Y561185D01*
X493575Y561134D01*
X493526Y561090D01*
X493504Y561048D01*
X493475Y561011D01*
X493454Y560949D01*
X493423Y560890D01*
X493415Y560836D01*
X493403Y560799D01*
X493403Y560795D01*
X493403Y560794D01*
X493404Y560759D01*
X493396Y560705D01*
X493396Y556895D01*
X493407Y556830D01*
X493409Y556764D01*
X493427Y556721D01*
X493435Y556674D01*
X493469Y556617D01*
X493494Y556557D01*
X493525Y556522D01*
X493550Y556481D01*
X493601Y556440D01*
X493645Y556391D01*
X493687Y556369D01*
X493724Y556340D01*
X493786Y556319D01*
X493845Y556288D01*
X493899Y556280D01*
X493936Y556268D01*
X493976Y556269D01*
X494030Y556261D01*
X496570Y556261D01*
X496635Y556272D01*
G37*
G36*
X1116395Y566432D02*
X1116395Y566432D01*
X1116461Y566434D01*
X1116504Y566452D01*
X1116551Y566460D01*
X1116608Y566494D01*
X1116668Y566519D01*
X1116703Y566550D01*
X1116744Y566575D01*
X1116786Y566626D01*
X1116834Y566670D01*
X1116856Y566712D01*
X1116885Y566749D01*
X1116906Y566811D01*
X1116937Y566870D01*
X1116945Y566924D01*
X1116957Y566961D01*
X1116956Y567001D01*
X1116964Y567055D01*
X1116964Y570865D01*
X1116953Y570930D01*
X1116951Y570996D01*
X1116933Y571039D01*
X1116925Y571086D01*
X1116891Y571143D01*
X1116866Y571203D01*
X1116835Y571238D01*
X1116810Y571279D01*
X1116759Y571321D01*
X1116715Y571369D01*
X1116673Y571391D01*
X1116636Y571420D01*
X1116574Y571441D01*
X1116515Y571472D01*
X1116461Y571480D01*
X1116424Y571492D01*
X1116384Y571491D01*
X1116330Y571499D01*
X1113790Y571499D01*
X1113725Y571488D01*
X1113659Y571486D01*
X1113616Y571468D01*
X1113569Y571460D01*
X1113512Y571426D01*
X1113452Y571401D01*
X1113417Y571370D01*
X1113376Y571345D01*
X1113335Y571294D01*
X1113286Y571250D01*
X1113264Y571208D01*
X1113235Y571171D01*
X1113214Y571109D01*
X1113183Y571050D01*
X1113175Y570996D01*
X1113163Y570959D01*
X1113163Y570955D01*
X1113163Y570954D01*
X1113164Y570919D01*
X1113156Y570865D01*
X1113156Y567055D01*
X1113167Y566990D01*
X1113169Y566924D01*
X1113187Y566881D01*
X1113195Y566834D01*
X1113229Y566777D01*
X1113254Y566717D01*
X1113285Y566682D01*
X1113310Y566641D01*
X1113361Y566600D01*
X1113405Y566551D01*
X1113447Y566529D01*
X1113484Y566500D01*
X1113546Y566479D01*
X1113605Y566448D01*
X1113659Y566440D01*
X1113696Y566428D01*
X1113736Y566429D01*
X1113790Y566421D01*
X1116330Y566421D01*
X1116395Y566432D01*
G37*
G36*
X1116395Y1028712D02*
X1116395Y1028712D01*
X1116461Y1028714D01*
X1116504Y1028732D01*
X1116551Y1028740D01*
X1116608Y1028774D01*
X1116668Y1028799D01*
X1116703Y1028830D01*
X1116744Y1028855D01*
X1116786Y1028906D01*
X1116834Y1028950D01*
X1116856Y1028992D01*
X1116885Y1029029D01*
X1116906Y1029091D01*
X1116937Y1029150D01*
X1116945Y1029204D01*
X1116957Y1029241D01*
X1116956Y1029281D01*
X1116964Y1029335D01*
X1116964Y1033145D01*
X1116953Y1033210D01*
X1116951Y1033276D01*
X1116933Y1033319D01*
X1116925Y1033366D01*
X1116891Y1033423D01*
X1116866Y1033483D01*
X1116835Y1033518D01*
X1116810Y1033559D01*
X1116759Y1033601D01*
X1116715Y1033649D01*
X1116673Y1033671D01*
X1116636Y1033700D01*
X1116574Y1033721D01*
X1116515Y1033752D01*
X1116461Y1033760D01*
X1116424Y1033772D01*
X1116384Y1033771D01*
X1116330Y1033779D01*
X1113790Y1033779D01*
X1113725Y1033768D01*
X1113659Y1033766D01*
X1113616Y1033748D01*
X1113569Y1033740D01*
X1113512Y1033706D01*
X1113452Y1033681D01*
X1113417Y1033650D01*
X1113376Y1033625D01*
X1113335Y1033574D01*
X1113286Y1033530D01*
X1113264Y1033488D01*
X1113235Y1033451D01*
X1113214Y1033389D01*
X1113183Y1033330D01*
X1113175Y1033276D01*
X1113163Y1033239D01*
X1113163Y1033235D01*
X1113163Y1033234D01*
X1113164Y1033199D01*
X1113156Y1033145D01*
X1113156Y1029335D01*
X1113167Y1029270D01*
X1113169Y1029204D01*
X1113187Y1029161D01*
X1113195Y1029114D01*
X1113229Y1029057D01*
X1113254Y1028997D01*
X1113285Y1028962D01*
X1113310Y1028921D01*
X1113361Y1028880D01*
X1113405Y1028831D01*
X1113447Y1028809D01*
X1113484Y1028780D01*
X1113546Y1028759D01*
X1113605Y1028728D01*
X1113659Y1028720D01*
X1113696Y1028708D01*
X1113736Y1028709D01*
X1113790Y1028701D01*
X1116330Y1028701D01*
X1116395Y1028712D01*
G37*
G36*
X1116395Y104152D02*
X1116395Y104152D01*
X1116461Y104154D01*
X1116504Y104172D01*
X1116551Y104180D01*
X1116608Y104214D01*
X1116668Y104239D01*
X1116703Y104270D01*
X1116744Y104295D01*
X1116786Y104346D01*
X1116834Y104390D01*
X1116856Y104432D01*
X1116885Y104469D01*
X1116906Y104531D01*
X1116937Y104590D01*
X1116945Y104644D01*
X1116957Y104681D01*
X1116956Y104721D01*
X1116964Y104775D01*
X1116964Y108585D01*
X1116953Y108650D01*
X1116951Y108716D01*
X1116933Y108759D01*
X1116925Y108806D01*
X1116891Y108863D01*
X1116866Y108923D01*
X1116835Y108958D01*
X1116810Y108999D01*
X1116759Y109041D01*
X1116715Y109089D01*
X1116673Y109111D01*
X1116636Y109140D01*
X1116574Y109161D01*
X1116515Y109192D01*
X1116461Y109200D01*
X1116424Y109212D01*
X1116384Y109211D01*
X1116330Y109219D01*
X1113790Y109219D01*
X1113725Y109208D01*
X1113659Y109206D01*
X1113616Y109188D01*
X1113569Y109180D01*
X1113512Y109146D01*
X1113452Y109121D01*
X1113417Y109090D01*
X1113376Y109065D01*
X1113335Y109014D01*
X1113286Y108970D01*
X1113264Y108928D01*
X1113235Y108891D01*
X1113214Y108829D01*
X1113183Y108770D01*
X1113175Y108716D01*
X1113163Y108679D01*
X1113163Y108675D01*
X1113163Y108674D01*
X1113164Y108639D01*
X1113156Y108585D01*
X1113156Y104775D01*
X1113167Y104710D01*
X1113169Y104644D01*
X1113187Y104601D01*
X1113195Y104554D01*
X1113229Y104497D01*
X1113254Y104437D01*
X1113285Y104402D01*
X1113310Y104361D01*
X1113361Y104320D01*
X1113405Y104271D01*
X1113447Y104249D01*
X1113484Y104220D01*
X1113546Y104199D01*
X1113605Y104168D01*
X1113659Y104160D01*
X1113696Y104148D01*
X1113736Y104149D01*
X1113790Y104141D01*
X1116330Y104141D01*
X1116395Y104152D01*
G37*
G36*
X496635Y104152D02*
X496635Y104152D01*
X496701Y104154D01*
X496744Y104172D01*
X496791Y104180D01*
X496848Y104214D01*
X496908Y104239D01*
X496943Y104270D01*
X496984Y104295D01*
X497026Y104346D01*
X497074Y104390D01*
X497096Y104432D01*
X497125Y104469D01*
X497146Y104531D01*
X497177Y104590D01*
X497185Y104644D01*
X497197Y104681D01*
X497196Y104721D01*
X497204Y104775D01*
X497204Y108585D01*
X497193Y108650D01*
X497191Y108716D01*
X497173Y108759D01*
X497165Y108806D01*
X497131Y108863D01*
X497106Y108923D01*
X497075Y108958D01*
X497050Y108999D01*
X496999Y109041D01*
X496955Y109089D01*
X496913Y109111D01*
X496876Y109140D01*
X496814Y109161D01*
X496755Y109192D01*
X496701Y109200D01*
X496664Y109212D01*
X496624Y109211D01*
X496570Y109219D01*
X494030Y109219D01*
X493965Y109208D01*
X493899Y109206D01*
X493856Y109188D01*
X493809Y109180D01*
X493752Y109146D01*
X493692Y109121D01*
X493657Y109090D01*
X493616Y109065D01*
X493575Y109014D01*
X493526Y108970D01*
X493504Y108928D01*
X493475Y108891D01*
X493454Y108829D01*
X493423Y108770D01*
X493415Y108716D01*
X493403Y108679D01*
X493403Y108675D01*
X493403Y108674D01*
X493404Y108639D01*
X493396Y108585D01*
X493396Y104775D01*
X493407Y104710D01*
X493409Y104644D01*
X493427Y104601D01*
X493435Y104554D01*
X493469Y104497D01*
X493494Y104437D01*
X493525Y104402D01*
X493550Y104361D01*
X493601Y104320D01*
X493645Y104271D01*
X493687Y104249D01*
X493724Y104220D01*
X493786Y104199D01*
X493845Y104168D01*
X493899Y104160D01*
X493936Y104148D01*
X493976Y104149D01*
X494030Y104141D01*
X496570Y104141D01*
X496635Y104152D01*
G37*
G36*
X496635Y93992D02*
X496635Y93992D01*
X496701Y93994D01*
X496744Y94012D01*
X496791Y94020D01*
X496848Y94054D01*
X496908Y94079D01*
X496943Y94110D01*
X496984Y94135D01*
X497026Y94186D01*
X497074Y94230D01*
X497096Y94272D01*
X497125Y94309D01*
X497146Y94371D01*
X497177Y94430D01*
X497185Y94484D01*
X497197Y94521D01*
X497196Y94561D01*
X497204Y94615D01*
X497204Y98425D01*
X497193Y98490D01*
X497191Y98556D01*
X497173Y98599D01*
X497165Y98646D01*
X497131Y98703D01*
X497106Y98763D01*
X497075Y98798D01*
X497050Y98839D01*
X496999Y98881D01*
X496955Y98929D01*
X496913Y98951D01*
X496876Y98980D01*
X496814Y99001D01*
X496755Y99032D01*
X496701Y99040D01*
X496664Y99052D01*
X496624Y99051D01*
X496570Y99059D01*
X494030Y99059D01*
X493965Y99048D01*
X493899Y99046D01*
X493856Y99028D01*
X493809Y99020D01*
X493752Y98986D01*
X493692Y98961D01*
X493657Y98930D01*
X493616Y98905D01*
X493575Y98854D01*
X493526Y98810D01*
X493504Y98768D01*
X493475Y98731D01*
X493454Y98669D01*
X493423Y98610D01*
X493415Y98556D01*
X493403Y98519D01*
X493403Y98515D01*
X493403Y98514D01*
X493404Y98479D01*
X493396Y98425D01*
X493396Y94615D01*
X493407Y94550D01*
X493409Y94484D01*
X493427Y94441D01*
X493435Y94394D01*
X493469Y94337D01*
X493494Y94277D01*
X493525Y94242D01*
X493550Y94201D01*
X493601Y94160D01*
X493645Y94111D01*
X493687Y94089D01*
X493724Y94060D01*
X493786Y94039D01*
X493845Y94008D01*
X493899Y94000D01*
X493936Y93988D01*
X493976Y93989D01*
X494030Y93981D01*
X496570Y93981D01*
X496635Y93992D01*
G37*
G36*
X1116395Y93992D02*
X1116395Y93992D01*
X1116461Y93994D01*
X1116504Y94012D01*
X1116551Y94020D01*
X1116608Y94054D01*
X1116668Y94079D01*
X1116703Y94110D01*
X1116744Y94135D01*
X1116786Y94186D01*
X1116834Y94230D01*
X1116856Y94272D01*
X1116885Y94309D01*
X1116906Y94371D01*
X1116937Y94430D01*
X1116945Y94484D01*
X1116957Y94521D01*
X1116956Y94561D01*
X1116964Y94615D01*
X1116964Y98425D01*
X1116953Y98490D01*
X1116951Y98556D01*
X1116933Y98599D01*
X1116925Y98646D01*
X1116891Y98703D01*
X1116866Y98763D01*
X1116835Y98798D01*
X1116810Y98839D01*
X1116759Y98881D01*
X1116715Y98929D01*
X1116673Y98951D01*
X1116636Y98980D01*
X1116574Y99001D01*
X1116515Y99032D01*
X1116461Y99040D01*
X1116424Y99052D01*
X1116384Y99051D01*
X1116330Y99059D01*
X1113790Y99059D01*
X1113725Y99048D01*
X1113659Y99046D01*
X1113616Y99028D01*
X1113569Y99020D01*
X1113512Y98986D01*
X1113452Y98961D01*
X1113417Y98930D01*
X1113376Y98905D01*
X1113335Y98854D01*
X1113286Y98810D01*
X1113264Y98768D01*
X1113235Y98731D01*
X1113214Y98669D01*
X1113183Y98610D01*
X1113175Y98556D01*
X1113163Y98519D01*
X1113163Y98515D01*
X1113163Y98514D01*
X1113164Y98479D01*
X1113156Y98425D01*
X1113156Y94615D01*
X1113167Y94550D01*
X1113169Y94484D01*
X1113187Y94441D01*
X1113195Y94394D01*
X1113229Y94337D01*
X1113254Y94277D01*
X1113285Y94242D01*
X1113310Y94201D01*
X1113361Y94160D01*
X1113405Y94111D01*
X1113447Y94089D01*
X1113484Y94060D01*
X1113546Y94039D01*
X1113605Y94008D01*
X1113659Y94000D01*
X1113696Y93988D01*
X1113736Y93989D01*
X1113790Y93981D01*
X1116330Y93981D01*
X1116395Y93992D01*
G37*
G36*
X1116395Y556272D02*
X1116395Y556272D01*
X1116461Y556274D01*
X1116504Y556292D01*
X1116551Y556300D01*
X1116608Y556334D01*
X1116668Y556359D01*
X1116703Y556390D01*
X1116744Y556415D01*
X1116786Y556466D01*
X1116834Y556510D01*
X1116856Y556552D01*
X1116885Y556589D01*
X1116906Y556651D01*
X1116937Y556710D01*
X1116945Y556764D01*
X1116957Y556801D01*
X1116956Y556841D01*
X1116964Y556895D01*
X1116964Y560705D01*
X1116953Y560770D01*
X1116951Y560836D01*
X1116933Y560879D01*
X1116925Y560926D01*
X1116891Y560983D01*
X1116866Y561043D01*
X1116835Y561078D01*
X1116810Y561119D01*
X1116759Y561161D01*
X1116715Y561209D01*
X1116673Y561231D01*
X1116636Y561260D01*
X1116574Y561281D01*
X1116515Y561312D01*
X1116461Y561320D01*
X1116424Y561332D01*
X1116384Y561331D01*
X1116330Y561339D01*
X1113790Y561339D01*
X1113725Y561328D01*
X1113659Y561326D01*
X1113616Y561308D01*
X1113569Y561300D01*
X1113512Y561266D01*
X1113452Y561241D01*
X1113417Y561210D01*
X1113376Y561185D01*
X1113335Y561134D01*
X1113286Y561090D01*
X1113264Y561048D01*
X1113235Y561011D01*
X1113214Y560949D01*
X1113183Y560890D01*
X1113175Y560836D01*
X1113163Y560799D01*
X1113163Y560795D01*
X1113163Y560794D01*
X1113164Y560759D01*
X1113156Y560705D01*
X1113156Y556895D01*
X1113167Y556830D01*
X1113169Y556764D01*
X1113187Y556721D01*
X1113195Y556674D01*
X1113229Y556617D01*
X1113254Y556557D01*
X1113285Y556522D01*
X1113310Y556481D01*
X1113361Y556440D01*
X1113405Y556391D01*
X1113447Y556369D01*
X1113484Y556340D01*
X1113546Y556319D01*
X1113605Y556288D01*
X1113659Y556280D01*
X1113696Y556268D01*
X1113736Y556269D01*
X1113790Y556261D01*
X1116330Y556261D01*
X1116395Y556272D01*
G37*
G36*
X496635Y566432D02*
X496635Y566432D01*
X496701Y566434D01*
X496744Y566452D01*
X496791Y566460D01*
X496848Y566494D01*
X496908Y566519D01*
X496943Y566550D01*
X496984Y566575D01*
X497026Y566626D01*
X497074Y566670D01*
X497096Y566712D01*
X497125Y566749D01*
X497146Y566811D01*
X497177Y566870D01*
X497185Y566924D01*
X497197Y566961D01*
X497196Y567001D01*
X497204Y567055D01*
X497204Y570865D01*
X497193Y570930D01*
X497191Y570996D01*
X497173Y571039D01*
X497165Y571086D01*
X497131Y571143D01*
X497106Y571203D01*
X497075Y571238D01*
X497050Y571279D01*
X496999Y571321D01*
X496955Y571369D01*
X496913Y571391D01*
X496876Y571420D01*
X496814Y571441D01*
X496755Y571472D01*
X496701Y571480D01*
X496664Y571492D01*
X496624Y571491D01*
X496570Y571499D01*
X494030Y571499D01*
X493965Y571488D01*
X493899Y571486D01*
X493856Y571468D01*
X493809Y571460D01*
X493752Y571426D01*
X493692Y571401D01*
X493657Y571370D01*
X493616Y571345D01*
X493575Y571294D01*
X493526Y571250D01*
X493504Y571208D01*
X493475Y571171D01*
X493454Y571109D01*
X493423Y571050D01*
X493415Y570996D01*
X493403Y570959D01*
X493403Y570955D01*
X493403Y570954D01*
X493404Y570919D01*
X493396Y570865D01*
X493396Y567055D01*
X493407Y566990D01*
X493409Y566924D01*
X493427Y566881D01*
X493435Y566834D01*
X493469Y566777D01*
X493494Y566717D01*
X493525Y566682D01*
X493550Y566641D01*
X493601Y566600D01*
X493645Y566551D01*
X493687Y566529D01*
X493724Y566500D01*
X493786Y566479D01*
X493845Y566448D01*
X493899Y566440D01*
X493936Y566428D01*
X493976Y566429D01*
X494030Y566421D01*
X496570Y566421D01*
X496635Y566432D01*
G37*
G36*
X1116395Y1018552D02*
X1116395Y1018552D01*
X1116461Y1018554D01*
X1116504Y1018572D01*
X1116551Y1018580D01*
X1116608Y1018614D01*
X1116668Y1018639D01*
X1116703Y1018670D01*
X1116744Y1018695D01*
X1116786Y1018746D01*
X1116834Y1018790D01*
X1116856Y1018832D01*
X1116885Y1018869D01*
X1116906Y1018931D01*
X1116937Y1018990D01*
X1116945Y1019044D01*
X1116957Y1019081D01*
X1116956Y1019121D01*
X1116964Y1019175D01*
X1116964Y1022985D01*
X1116953Y1023050D01*
X1116951Y1023116D01*
X1116933Y1023159D01*
X1116925Y1023206D01*
X1116891Y1023263D01*
X1116866Y1023323D01*
X1116835Y1023358D01*
X1116810Y1023399D01*
X1116759Y1023441D01*
X1116715Y1023489D01*
X1116673Y1023511D01*
X1116636Y1023540D01*
X1116574Y1023561D01*
X1116515Y1023592D01*
X1116461Y1023600D01*
X1116424Y1023612D01*
X1116384Y1023611D01*
X1116330Y1023619D01*
X1113790Y1023619D01*
X1113725Y1023608D01*
X1113659Y1023606D01*
X1113616Y1023588D01*
X1113569Y1023580D01*
X1113512Y1023546D01*
X1113452Y1023521D01*
X1113417Y1023490D01*
X1113376Y1023465D01*
X1113335Y1023414D01*
X1113286Y1023370D01*
X1113264Y1023328D01*
X1113235Y1023291D01*
X1113214Y1023229D01*
X1113183Y1023170D01*
X1113175Y1023116D01*
X1113163Y1023079D01*
X1113163Y1023075D01*
X1113163Y1023074D01*
X1113164Y1023039D01*
X1113156Y1022985D01*
X1113156Y1019175D01*
X1113167Y1019110D01*
X1113169Y1019044D01*
X1113187Y1019001D01*
X1113195Y1018954D01*
X1113229Y1018897D01*
X1113254Y1018837D01*
X1113285Y1018802D01*
X1113310Y1018761D01*
X1113361Y1018720D01*
X1113405Y1018671D01*
X1113447Y1018649D01*
X1113484Y1018620D01*
X1113546Y1018599D01*
X1113605Y1018568D01*
X1113659Y1018560D01*
X1113696Y1018548D01*
X1113736Y1018549D01*
X1113790Y1018541D01*
X1116330Y1018541D01*
X1116395Y1018552D01*
G37*
D10*
X60100Y94100D03*
X60100Y99100D03*
D11*
X60100Y69350D03*
X60100Y77100D03*
D10*
X60100Y84100D03*
X60100Y89100D03*
X60100Y109100D03*
X60100Y104100D03*
D11*
X60100Y133850D03*
X60100Y126100D03*
D10*
X60100Y119100D03*
X60100Y114100D03*
D12*
X49050Y130500D03*
X49050Y72700D03*
D13*
X76200Y135500D03*
X76200Y118500D03*
X76200Y67700D03*
X76200Y84700D03*
D14*
X91850Y87850D03*
X98350Y87850D03*
X104850Y87850D03*
X111350Y87850D03*
X111350Y115350D03*
X104850Y115350D03*
X98350Y115350D03*
X91850Y115350D03*
D15*
X101600Y101600D03*
D16*
X93100Y139700D03*
X110100Y139700D03*
D17*
X7620Y7620D03*
X576580Y450850D03*
D18*
X558800Y431800D03*
X25400Y431800D03*
X558800Y25400D03*
X25400Y25400D03*
D16*
X67700Y406400D03*
X84700Y406400D03*
D19*
X572690Y71060D03*
X572690Y127060D03*
D20*
X535940Y84060D03*
X535940Y94060D03*
X535940Y104060D03*
X535940Y114060D03*
D21*
X495300Y91186D03*
X495300Y101600D03*
X495300Y112014D03*
D16*
X503800Y76200D03*
X486800Y76200D03*
X503800Y127000D03*
X486800Y127000D03*
D22*
X269240Y31750D03*
X213360Y31750D03*
X269240Y69850D03*
X213360Y69850D03*
D16*
X93100Y154940D03*
X110100Y154940D03*
D23*
X34036Y203200D03*
X42164Y203200D03*
D24*
X23100Y177800D03*
X53100Y177800D03*
D25*
X102900Y177800D03*
X74900Y177800D03*
D13*
X152400Y143900D03*
X152400Y160900D03*
X137160Y160900D03*
X137160Y143900D03*
D23*
X101600Y63500D03*
X111760Y63500D03*
D26*
X93980Y63500D03*
X119380Y63500D03*
D27*
X158750Y190500D03*
X158750Y203200D03*
X158750Y215900D03*
X158750Y228600D03*
X158750Y177800D03*
X146050Y190500D03*
X146050Y203200D03*
X146050Y215900D03*
X146050Y228600D03*
X146050Y177800D03*
D22*
X370840Y31750D03*
X314960Y31750D03*
X370840Y69850D03*
X314960Y69850D03*
D26*
X228600Y444500D03*
X203200Y444500D03*
X177800Y444500D03*
X152400Y444500D03*
X127000Y444500D03*
X419100Y419100D03*
X393700Y419100D03*
X368300Y419100D03*
X342900Y419100D03*
X317500Y419100D03*
X292100Y419100D03*
X419100Y444500D03*
X393700Y444500D03*
X368300Y444500D03*
X342900Y444500D03*
X317500Y444500D03*
X292100Y444500D03*
D28*
X161100Y316200D03*
X161100Y373200D03*
D29*
X29600Y389200D03*
X19600Y257700D03*
D30*
X58100Y304300D03*
X62100Y315300D03*
X58100Y326300D03*
X56100Y337300D03*
X58100Y348300D03*
X56100Y359300D03*
X58100Y370300D03*
X58100Y381300D03*
D26*
X571500Y330200D03*
X571500Y355600D03*
X571500Y381000D03*
X444500Y444500D03*
X469900Y444500D03*
X495300Y444500D03*
X520700Y444500D03*
D31*
X442000Y163000D03*
D13*
X127000Y110100D03*
X127000Y93100D03*
D32*
X146050Y113100D03*
X146050Y90100D03*
D16*
X478400Y38100D03*
X461400Y38100D03*
D33*
X464620Y28890D02*
X464620Y21910D01*
X457640Y21910D01*
X457640Y28890D01*
X464620Y28890D01*
X464620Y26710D02*
X457640Y26710D01*
X482160Y28890D02*
X482160Y21910D01*
X475180Y21910D01*
X475180Y28890D01*
X482160Y28890D01*
X482160Y26710D02*
X475180Y26710D01*
D13*
X139700Y58810D03*
X139700Y75810D03*
X154940Y58810D03*
X154940Y75810D03*
X170180Y58810D03*
X170180Y75810D03*
D34*
X241300Y103200D03*
D35*
X241300Y303200D03*
D36*
X188550Y110700D03*
D37*
X196300Y99700D03*
X196300Y306700D03*
D36*
X264050Y113200D03*
X188550Y115700D03*
X264050Y118200D03*
X188550Y120700D03*
X264050Y123200D03*
X188550Y125700D03*
X264050Y128200D03*
X188550Y130700D03*
X264050Y133200D03*
X188550Y135700D03*
X264050Y138200D03*
X188550Y140700D03*
X264050Y143200D03*
X188550Y145700D03*
X264050Y148200D03*
X188550Y150700D03*
X264050Y153200D03*
X188550Y155700D03*
X264050Y158200D03*
X188550Y160700D03*
X264050Y163200D03*
X188550Y165700D03*
X264050Y188200D03*
X188550Y190700D03*
X264050Y193200D03*
X188550Y195700D03*
X264050Y198200D03*
X188550Y200700D03*
X264050Y203200D03*
X188550Y205700D03*
X264050Y208200D03*
X188550Y210700D03*
X264050Y213200D03*
X188550Y215700D03*
X264050Y218200D03*
X188550Y220700D03*
X264050Y223200D03*
X188550Y225700D03*
X264050Y228200D03*
X188550Y230700D03*
X264050Y233200D03*
X188550Y235700D03*
X264050Y238200D03*
X188550Y240700D03*
X264050Y243200D03*
X188550Y245700D03*
X264050Y248200D03*
X188550Y250700D03*
X264050Y253200D03*
X188550Y255700D03*
X264050Y258200D03*
X188550Y260700D03*
X264050Y263200D03*
X188550Y265700D03*
X264050Y268200D03*
X188550Y270700D03*
X264050Y273200D03*
X188550Y275700D03*
X264050Y278200D03*
X188550Y280700D03*
X264050Y283200D03*
X188550Y285700D03*
X264050Y288200D03*
X188550Y290700D03*
X264050Y293200D03*
X188550Y295700D03*
D26*
X177800Y38100D03*
D16*
X516500Y38100D03*
X499500Y38100D03*
D33*
X502720Y28890D02*
X502720Y21910D01*
X495740Y21910D01*
X495740Y28890D01*
X502720Y28890D01*
X502720Y26710D02*
X495740Y26710D01*
X520260Y28890D02*
X520260Y21910D01*
X513280Y21910D01*
X513280Y28890D01*
X520260Y28890D01*
X520260Y26710D02*
X513280Y26710D01*
D16*
X448700Y292100D03*
X465700Y292100D03*
X448700Y279400D03*
X465700Y279400D03*
X448700Y266700D03*
X465700Y266700D03*
X448700Y254000D03*
X465700Y254000D03*
X448700Y241300D03*
X465700Y241300D03*
X448700Y228600D03*
X465700Y228600D03*
X448700Y215900D03*
X465700Y215900D03*
X448700Y203200D03*
X465700Y203200D03*
D38*
X503750Y273600D03*
X503750Y268600D03*
X503750Y263600D03*
X503750Y258600D03*
X503750Y253600D03*
X503750Y248600D03*
X503750Y243600D03*
X503750Y238600D03*
X503750Y233600D03*
X503750Y228600D03*
X503750Y223600D03*
X503750Y218600D03*
X503750Y213600D03*
X503750Y208600D03*
X503750Y203600D03*
X503750Y198600D03*
X503750Y193600D03*
X503750Y188600D03*
X503750Y183600D03*
D39*
X566800Y301100D02*
X575100Y301100D01*
X521350Y156100D02*
X501350Y156100D01*
X500850Y301100D02*
X520850Y301100D01*
X567100Y156100D02*
X575400Y156100D01*
D40*
X49600Y228600D03*
X26600Y228600D03*
X77400Y228600D03*
X100400Y228600D03*
D10*
X679860Y94100D03*
X679860Y99100D03*
D11*
X679860Y69350D03*
X679860Y77100D03*
D10*
X679860Y84100D03*
X679860Y89100D03*
X679860Y109100D03*
X679860Y104100D03*
D11*
X679860Y133850D03*
X679860Y126100D03*
D10*
X679860Y119100D03*
X679860Y114100D03*
D12*
X668810Y130500D03*
X668810Y72700D03*
D13*
X695960Y135500D03*
X695960Y118500D03*
X695960Y67700D03*
X695960Y84700D03*
D14*
X711610Y87850D03*
X718110Y87850D03*
X724610Y87850D03*
X731110Y87850D03*
X731110Y115350D03*
X724610Y115350D03*
X718110Y115350D03*
X711610Y115350D03*
D15*
X721360Y101600D03*
D16*
X712860Y139700D03*
X729860Y139700D03*
D17*
X627380Y7620D03*
X1196340Y450850D03*
D18*
X1178560Y431800D03*
X645160Y431800D03*
X1178560Y25400D03*
X645160Y25400D03*
D16*
X687460Y406400D03*
X704460Y406400D03*
D19*
X1192450Y71060D03*
X1192450Y127060D03*
D20*
X1155700Y84060D03*
X1155700Y94060D03*
X1155700Y104060D03*
X1155700Y114060D03*
D21*
X1115060Y91186D03*
X1115060Y101600D03*
X1115060Y112014D03*
D16*
X1123560Y76200D03*
X1106560Y76200D03*
X1123560Y127000D03*
X1106560Y127000D03*
D22*
X889000Y31750D03*
X833120Y31750D03*
X889000Y69850D03*
X833120Y69850D03*
D16*
X712860Y154940D03*
X729860Y154940D03*
D23*
X653796Y203200D03*
X661924Y203200D03*
D24*
X642860Y177800D03*
X672860Y177800D03*
D25*
X722660Y177800D03*
X694660Y177800D03*
D13*
X772160Y143900D03*
X772160Y160900D03*
X756920Y160900D03*
X756920Y143900D03*
D23*
X721360Y63500D03*
X731520Y63500D03*
D26*
X713740Y63500D03*
X739140Y63500D03*
D27*
X778510Y190500D03*
X778510Y203200D03*
X778510Y215900D03*
X778510Y228600D03*
X778510Y177800D03*
X765810Y190500D03*
X765810Y203200D03*
X765810Y215900D03*
X765810Y228600D03*
X765810Y177800D03*
D22*
X990600Y31750D03*
X934720Y31750D03*
X990600Y69850D03*
X934720Y69850D03*
D26*
X848360Y444500D03*
X822960Y444500D03*
X797560Y444500D03*
X772160Y444500D03*
X746760Y444500D03*
X1038860Y419100D03*
X1013460Y419100D03*
X988060Y419100D03*
X962660Y419100D03*
X937260Y419100D03*
X911860Y419100D03*
X1038860Y444500D03*
X1013460Y444500D03*
X988060Y444500D03*
X962660Y444500D03*
X937260Y444500D03*
X911860Y444500D03*
D28*
X780860Y316200D03*
X780860Y373200D03*
D29*
X649360Y389200D03*
X639360Y257700D03*
D30*
X677860Y304300D03*
X681860Y315300D03*
X677860Y326300D03*
X675860Y337300D03*
X677860Y348300D03*
X675860Y359300D03*
X677860Y370300D03*
X677860Y381300D03*
D26*
X1191260Y330200D03*
X1191260Y355600D03*
X1191260Y381000D03*
X1064260Y444500D03*
X1089660Y444500D03*
X1115060Y444500D03*
X1140460Y444500D03*
D31*
X1061760Y163000D03*
D13*
X746760Y110100D03*
X746760Y93100D03*
D32*
X765810Y113100D03*
X765810Y90100D03*
D16*
X1098160Y38100D03*
X1081160Y38100D03*
D33*
X1084380Y28890D02*
X1084380Y21910D01*
X1077400Y21910D01*
X1077400Y28890D01*
X1084380Y28890D01*
X1084380Y26710D02*
X1077400Y26710D01*
X1101920Y28890D02*
X1101920Y21910D01*
X1094940Y21910D01*
X1094940Y28890D01*
X1101920Y28890D01*
X1101920Y26710D02*
X1094940Y26710D01*
D13*
X759460Y58810D03*
X759460Y75810D03*
X774700Y58810D03*
X774700Y75810D03*
X789940Y58810D03*
X789940Y75810D03*
D34*
X861060Y103200D03*
D35*
X861060Y303200D03*
D36*
X808310Y110700D03*
D37*
X816060Y99700D03*
X816060Y306700D03*
D36*
X883810Y113200D03*
X808310Y115700D03*
X883810Y118200D03*
X808310Y120700D03*
X883810Y123200D03*
X808310Y125700D03*
X883810Y128200D03*
X808310Y130700D03*
X883810Y133200D03*
X808310Y135700D03*
X883810Y138200D03*
X808310Y140700D03*
X883810Y143200D03*
X808310Y145700D03*
X883810Y148200D03*
X808310Y150700D03*
X883810Y153200D03*
X808310Y155700D03*
X883810Y158200D03*
X808310Y160700D03*
X883810Y163200D03*
X808310Y165700D03*
X883810Y188200D03*
X808310Y190700D03*
X883810Y193200D03*
X808310Y195700D03*
X883810Y198200D03*
X808310Y200700D03*
X883810Y203200D03*
X808310Y205700D03*
X883810Y208200D03*
X808310Y210700D03*
X883810Y213200D03*
X808310Y215700D03*
X883810Y218200D03*
X808310Y220700D03*
X883810Y223200D03*
X808310Y225700D03*
X883810Y228200D03*
X808310Y230700D03*
X883810Y233200D03*
X808310Y235700D03*
X883810Y238200D03*
X808310Y240700D03*
X883810Y243200D03*
X808310Y245700D03*
X883810Y248200D03*
X808310Y250700D03*
X883810Y253200D03*
X808310Y255700D03*
X883810Y258200D03*
X808310Y260700D03*
X883810Y263200D03*
X808310Y265700D03*
X883810Y268200D03*
X808310Y270700D03*
X883810Y273200D03*
X808310Y275700D03*
X883810Y278200D03*
X808310Y280700D03*
X883810Y283200D03*
X808310Y285700D03*
X883810Y288200D03*
X808310Y290700D03*
X883810Y293200D03*
X808310Y295700D03*
D26*
X797560Y38100D03*
D16*
X1136260Y38100D03*
X1119260Y38100D03*
D33*
X1122480Y28890D02*
X1122480Y21910D01*
X1115500Y21910D01*
X1115500Y28890D01*
X1122480Y28890D01*
X1122480Y26710D02*
X1115500Y26710D01*
X1140020Y28890D02*
X1140020Y21910D01*
X1133040Y21910D01*
X1133040Y28890D01*
X1140020Y28890D01*
X1140020Y26710D02*
X1133040Y26710D01*
D16*
X1068460Y292100D03*
X1085460Y292100D03*
X1068460Y279400D03*
X1085460Y279400D03*
X1068460Y266700D03*
X1085460Y266700D03*
X1068460Y254000D03*
X1085460Y254000D03*
X1068460Y241300D03*
X1085460Y241300D03*
X1068460Y228600D03*
X1085460Y228600D03*
X1068460Y215900D03*
X1085460Y215900D03*
X1068460Y203200D03*
X1085460Y203200D03*
D38*
X1123510Y273600D03*
X1123510Y268600D03*
X1123510Y263600D03*
X1123510Y258600D03*
X1123510Y253600D03*
X1123510Y248600D03*
X1123510Y243600D03*
X1123510Y238600D03*
X1123510Y233600D03*
X1123510Y228600D03*
X1123510Y223600D03*
X1123510Y218600D03*
X1123510Y213600D03*
X1123510Y208600D03*
X1123510Y203600D03*
X1123510Y198600D03*
X1123510Y193600D03*
X1123510Y188600D03*
X1123510Y183600D03*
D39*
X1186560Y301100D02*
X1194860Y301100D01*
X1141110Y156100D02*
X1121110Y156100D01*
X1120610Y301100D02*
X1140610Y301100D01*
X1186860Y156100D02*
X1195160Y156100D01*
D40*
X669360Y228600D03*
X646360Y228600D03*
X697160Y228600D03*
X720160Y228600D03*
D10*
X60100Y556380D03*
X60100Y561380D03*
D11*
X60100Y531630D03*
X60100Y539380D03*
D10*
X60100Y546380D03*
X60100Y551380D03*
X60100Y571380D03*
X60100Y566380D03*
D11*
X60100Y596130D03*
X60100Y588380D03*
D10*
X60100Y581380D03*
X60100Y576380D03*
D12*
X49050Y592780D03*
X49050Y534980D03*
D13*
X76200Y597780D03*
X76200Y580780D03*
X76200Y529980D03*
X76200Y546980D03*
D14*
X91850Y550130D03*
X98350Y550130D03*
X104850Y550130D03*
X111350Y550130D03*
X111350Y577630D03*
X104850Y577630D03*
X98350Y577630D03*
X91850Y577630D03*
D15*
X101600Y563880D03*
D16*
X93100Y601980D03*
X110100Y601980D03*
D17*
X7620Y469900D03*
X576580Y913130D03*
D18*
X558800Y894080D03*
X25400Y894080D03*
X558800Y487680D03*
X25400Y487680D03*
D16*
X67700Y868680D03*
X84700Y868680D03*
D19*
X572690Y533340D03*
X572690Y589340D03*
D20*
X535940Y546340D03*
X535940Y556340D03*
X535940Y566340D03*
X535940Y576340D03*
D21*
X495300Y553466D03*
X495300Y563880D03*
X495300Y574294D03*
D16*
X503800Y538480D03*
X486800Y538480D03*
X503800Y589280D03*
X486800Y589280D03*
D22*
X269240Y494030D03*
X213360Y494030D03*
X269240Y532130D03*
X213360Y532130D03*
D16*
X93100Y617220D03*
X110100Y617220D03*
D23*
X34036Y665480D03*
X42164Y665480D03*
D24*
X23100Y640080D03*
X53100Y640080D03*
D25*
X102900Y640080D03*
X74900Y640080D03*
D13*
X152400Y606180D03*
X152400Y623180D03*
X137160Y623180D03*
X137160Y606180D03*
D23*
X101600Y525780D03*
X111760Y525780D03*
D26*
X93980Y525780D03*
X119380Y525780D03*
D27*
X158750Y652780D03*
X158750Y665480D03*
X158750Y678180D03*
X158750Y690880D03*
X158750Y640080D03*
X146050Y652780D03*
X146050Y665480D03*
X146050Y678180D03*
X146050Y690880D03*
X146050Y640080D03*
D22*
X370840Y494030D03*
X314960Y494030D03*
X370840Y532130D03*
X314960Y532130D03*
D26*
X228600Y906780D03*
X203200Y906780D03*
X177800Y906780D03*
X152400Y906780D03*
X127000Y906780D03*
X419100Y881380D03*
X393700Y881380D03*
X368300Y881380D03*
X342900Y881380D03*
X317500Y881380D03*
X292100Y881380D03*
X419100Y906780D03*
X393700Y906780D03*
X368300Y906780D03*
X342900Y906780D03*
X317500Y906780D03*
X292100Y906780D03*
D28*
X161100Y778480D03*
X161100Y835480D03*
D29*
X29600Y851480D03*
X19600Y719980D03*
D30*
X58100Y766580D03*
X62100Y777580D03*
X58100Y788580D03*
X56100Y799580D03*
X58100Y810580D03*
X56100Y821580D03*
X58100Y832580D03*
X58100Y843580D03*
D26*
X571500Y792480D03*
X571500Y817880D03*
X571500Y843280D03*
X444500Y906780D03*
X469900Y906780D03*
X495300Y906780D03*
X520700Y906780D03*
D31*
X442000Y625280D03*
D13*
X127000Y572380D03*
X127000Y555380D03*
D32*
X146050Y575380D03*
X146050Y552380D03*
D16*
X478400Y500380D03*
X461400Y500380D03*
D33*
X464620Y491170D02*
X464620Y484190D01*
X457640Y484190D01*
X457640Y491170D01*
X464620Y491170D01*
X464620Y488990D02*
X457640Y488990D01*
X482160Y491170D02*
X482160Y484190D01*
X475180Y484190D01*
X475180Y491170D01*
X482160Y491170D01*
X482160Y488990D02*
X475180Y488990D01*
D13*
X139700Y521090D03*
X139700Y538090D03*
X154940Y521090D03*
X154940Y538090D03*
X170180Y521090D03*
X170180Y538090D03*
D34*
X241300Y565480D03*
D35*
X241300Y765480D03*
D36*
X188550Y572980D03*
D37*
X196300Y561980D03*
X196300Y768980D03*
D36*
X264050Y575480D03*
X188550Y577980D03*
X264050Y580480D03*
X188550Y582980D03*
X264050Y585480D03*
X188550Y587980D03*
X264050Y590480D03*
X188550Y592980D03*
X264050Y595480D03*
X188550Y597980D03*
X264050Y600480D03*
X188550Y602980D03*
X264050Y605480D03*
X188550Y607980D03*
X264050Y610480D03*
X188550Y612980D03*
X264050Y615480D03*
X188550Y617980D03*
X264050Y620480D03*
X188550Y622980D03*
X264050Y625480D03*
X188550Y627980D03*
X264050Y650480D03*
X188550Y652980D03*
X264050Y655480D03*
X188550Y657980D03*
X264050Y660480D03*
X188550Y662980D03*
X264050Y665480D03*
X188550Y667980D03*
X264050Y670480D03*
X188550Y672980D03*
X264050Y675480D03*
X188550Y677980D03*
X264050Y680480D03*
X188550Y682980D03*
X264050Y685480D03*
X188550Y687980D03*
X264050Y690480D03*
X188550Y692980D03*
X264050Y695480D03*
X188550Y697980D03*
X264050Y700480D03*
X188550Y702980D03*
X264050Y705480D03*
X188550Y707980D03*
X264050Y710480D03*
X188550Y712980D03*
X264050Y715480D03*
X188550Y717980D03*
X264050Y720480D03*
X188550Y722980D03*
X264050Y725480D03*
X188550Y727980D03*
X264050Y730480D03*
X188550Y732980D03*
X264050Y735480D03*
X188550Y737980D03*
X264050Y740480D03*
X188550Y742980D03*
X264050Y745480D03*
X188550Y747980D03*
X264050Y750480D03*
X188550Y752980D03*
X264050Y755480D03*
X188550Y757980D03*
D26*
X177800Y500380D03*
D16*
X516500Y500380D03*
X499500Y500380D03*
D33*
X502720Y491170D02*
X502720Y484190D01*
X495740Y484190D01*
X495740Y491170D01*
X502720Y491170D01*
X502720Y488990D02*
X495740Y488990D01*
X520260Y491170D02*
X520260Y484190D01*
X513280Y484190D01*
X513280Y491170D01*
X520260Y491170D01*
X520260Y488990D02*
X513280Y488990D01*
D16*
X448700Y754380D03*
X465700Y754380D03*
X448700Y741680D03*
X465700Y741680D03*
X448700Y728980D03*
X465700Y728980D03*
X448700Y716280D03*
X465700Y716280D03*
X448700Y703580D03*
X465700Y703580D03*
X448700Y690880D03*
X465700Y690880D03*
X448700Y678180D03*
X465700Y678180D03*
X448700Y665480D03*
X465700Y665480D03*
D38*
X503750Y735880D03*
X503750Y730880D03*
X503750Y725880D03*
X503750Y720880D03*
X503750Y715880D03*
X503750Y710880D03*
X503750Y705880D03*
X503750Y700880D03*
X503750Y695880D03*
X503750Y690880D03*
X503750Y685880D03*
X503750Y680880D03*
X503750Y675880D03*
X503750Y670880D03*
X503750Y665880D03*
X503750Y660880D03*
X503750Y655880D03*
X503750Y650880D03*
X503750Y645880D03*
D39*
X566800Y763380D02*
X575100Y763380D01*
X521350Y618380D02*
X501350Y618380D01*
X500850Y763380D02*
X520850Y763380D01*
X567100Y618380D02*
X575400Y618380D01*
D40*
X49600Y690880D03*
X26600Y690880D03*
X77400Y690880D03*
X100400Y690880D03*
D10*
X679860Y556380D03*
X679860Y561380D03*
D11*
X679860Y531630D03*
X679860Y539380D03*
D10*
X679860Y546380D03*
X679860Y551380D03*
X679860Y571380D03*
X679860Y566380D03*
D11*
X679860Y596130D03*
X679860Y588380D03*
D10*
X679860Y581380D03*
X679860Y576380D03*
D12*
X668810Y592780D03*
X668810Y534980D03*
D13*
X695960Y597780D03*
X695960Y580780D03*
X695960Y529980D03*
X695960Y546980D03*
D14*
X711610Y550130D03*
X718110Y550130D03*
X724610Y550130D03*
X731110Y550130D03*
X731110Y577630D03*
X724610Y577630D03*
X718110Y577630D03*
X711610Y577630D03*
D15*
X721360Y563880D03*
D16*
X712860Y601980D03*
X729860Y601980D03*
D17*
X627380Y469900D03*
X1196340Y913130D03*
D18*
X1178560Y894080D03*
X645160Y894080D03*
X1178560Y487680D03*
X645160Y487680D03*
D16*
X687460Y868680D03*
X704460Y868680D03*
D19*
X1192450Y533340D03*
X1192450Y589340D03*
D20*
X1155700Y546340D03*
X1155700Y556340D03*
X1155700Y566340D03*
X1155700Y576340D03*
D21*
X1115060Y553466D03*
X1115060Y563880D03*
X1115060Y574294D03*
D16*
X1123560Y538480D03*
X1106560Y538480D03*
X1123560Y589280D03*
X1106560Y589280D03*
D22*
X889000Y494030D03*
X833120Y494030D03*
X889000Y532130D03*
X833120Y532130D03*
D16*
X712860Y617220D03*
X729860Y617220D03*
D23*
X653796Y665480D03*
X661924Y665480D03*
D24*
X642860Y640080D03*
X672860Y640080D03*
D25*
X722660Y640080D03*
X694660Y640080D03*
D13*
X772160Y606180D03*
X772160Y623180D03*
X756920Y623180D03*
X756920Y606180D03*
D23*
X721360Y525780D03*
X731520Y525780D03*
D26*
X713740Y525780D03*
X739140Y525780D03*
D27*
X778510Y652780D03*
X778510Y665480D03*
X778510Y678180D03*
X778510Y690880D03*
X778510Y640080D03*
X765810Y652780D03*
X765810Y665480D03*
X765810Y678180D03*
X765810Y690880D03*
X765810Y640080D03*
D22*
X990600Y494030D03*
X934720Y494030D03*
X990600Y532130D03*
X934720Y532130D03*
D26*
X848360Y906780D03*
X822960Y906780D03*
X797560Y906780D03*
X772160Y906780D03*
X746760Y906780D03*
X1038860Y881380D03*
X1013460Y881380D03*
X988060Y881380D03*
X962660Y881380D03*
X937260Y881380D03*
X911860Y881380D03*
X1038860Y906780D03*
X1013460Y906780D03*
X988060Y906780D03*
X962660Y906780D03*
X937260Y906780D03*
X911860Y906780D03*
D28*
X780860Y778480D03*
X780860Y835480D03*
D29*
X649360Y851480D03*
X639360Y719980D03*
D30*
X677860Y766580D03*
X681860Y777580D03*
X677860Y788580D03*
X675860Y799580D03*
X677860Y810580D03*
X675860Y821580D03*
X677860Y832580D03*
X677860Y843580D03*
D26*
X1191260Y792480D03*
X1191260Y817880D03*
X1191260Y843280D03*
X1064260Y906780D03*
X1089660Y906780D03*
X1115060Y906780D03*
X1140460Y906780D03*
D31*
X1061760Y625280D03*
D13*
X746760Y572380D03*
X746760Y555380D03*
D32*
X765810Y575380D03*
X765810Y552380D03*
D16*
X1098160Y500380D03*
X1081160Y500380D03*
D33*
X1084380Y491170D02*
X1084380Y484190D01*
X1077400Y484190D01*
X1077400Y491170D01*
X1084380Y491170D01*
X1084380Y488990D02*
X1077400Y488990D01*
X1101920Y491170D02*
X1101920Y484190D01*
X1094940Y484190D01*
X1094940Y491170D01*
X1101920Y491170D01*
X1101920Y488990D02*
X1094940Y488990D01*
D13*
X759460Y521090D03*
X759460Y538090D03*
X774700Y521090D03*
X774700Y538090D03*
X789940Y521090D03*
X789940Y538090D03*
D34*
X861060Y565480D03*
D35*
X861060Y765480D03*
D36*
X808310Y572980D03*
D37*
X816060Y561980D03*
X816060Y768980D03*
D36*
X883810Y575480D03*
X808310Y577980D03*
X883810Y580480D03*
X808310Y582980D03*
X883810Y585480D03*
X808310Y587980D03*
X883810Y590480D03*
X808310Y592980D03*
X883810Y595480D03*
X808310Y597980D03*
X883810Y600480D03*
X808310Y602980D03*
X883810Y605480D03*
X808310Y607980D03*
X883810Y610480D03*
X808310Y612980D03*
X883810Y615480D03*
X808310Y617980D03*
X883810Y620480D03*
X808310Y622980D03*
X883810Y625480D03*
X808310Y627980D03*
X883810Y650480D03*
X808310Y652980D03*
X883810Y655480D03*
X808310Y657980D03*
X883810Y660480D03*
X808310Y662980D03*
X883810Y665480D03*
X808310Y667980D03*
X883810Y670480D03*
X808310Y672980D03*
X883810Y675480D03*
X808310Y677980D03*
X883810Y680480D03*
X808310Y682980D03*
X883810Y685480D03*
X808310Y687980D03*
X883810Y690480D03*
X808310Y692980D03*
X883810Y695480D03*
X808310Y697980D03*
X883810Y700480D03*
X808310Y702980D03*
X883810Y705480D03*
X808310Y707980D03*
X883810Y710480D03*
X808310Y712980D03*
X883810Y715480D03*
X808310Y717980D03*
X883810Y720480D03*
X808310Y722980D03*
X883810Y725480D03*
X808310Y727980D03*
X883810Y730480D03*
X808310Y732980D03*
X883810Y735480D03*
X808310Y737980D03*
X883810Y740480D03*
X808310Y742980D03*
X883810Y745480D03*
X808310Y747980D03*
X883810Y750480D03*
X808310Y752980D03*
X883810Y755480D03*
X808310Y757980D03*
D26*
X797560Y500380D03*
D16*
X1136260Y500380D03*
X1119260Y500380D03*
D33*
X1122480Y491170D02*
X1122480Y484190D01*
X1115500Y484190D01*
X1115500Y491170D01*
X1122480Y491170D01*
X1122480Y488990D02*
X1115500Y488990D01*
X1140020Y491170D02*
X1140020Y484190D01*
X1133040Y484190D01*
X1133040Y491170D01*
X1140020Y491170D01*
X1140020Y488990D02*
X1133040Y488990D01*
D16*
X1068460Y754380D03*
X1085460Y754380D03*
X1068460Y741680D03*
X1085460Y741680D03*
X1068460Y728980D03*
X1085460Y728980D03*
X1068460Y716280D03*
X1085460Y716280D03*
X1068460Y703580D03*
X1085460Y703580D03*
X1068460Y690880D03*
X1085460Y690880D03*
X1068460Y678180D03*
X1085460Y678180D03*
X1068460Y665480D03*
X1085460Y665480D03*
D38*
X1123510Y735880D03*
X1123510Y730880D03*
X1123510Y725880D03*
X1123510Y720880D03*
X1123510Y715880D03*
X1123510Y710880D03*
X1123510Y705880D03*
X1123510Y700880D03*
X1123510Y695880D03*
X1123510Y690880D03*
X1123510Y685880D03*
X1123510Y680880D03*
X1123510Y675880D03*
X1123510Y670880D03*
X1123510Y665880D03*
X1123510Y660880D03*
X1123510Y655880D03*
X1123510Y650880D03*
X1123510Y645880D03*
D39*
X1186560Y763380D02*
X1194860Y763380D01*
X1141110Y618380D02*
X1121110Y618380D01*
X1120610Y763380D02*
X1140610Y763380D01*
X1186860Y618380D02*
X1195160Y618380D01*
D40*
X669360Y690880D03*
X646360Y690880D03*
X697160Y690880D03*
X720160Y690880D03*
D10*
X60100Y1018660D03*
X60100Y1023660D03*
D11*
X60100Y993910D03*
X60100Y1001660D03*
D10*
X60100Y1008660D03*
X60100Y1013660D03*
X60100Y1033660D03*
X60100Y1028660D03*
D11*
X60100Y1058410D03*
X60100Y1050660D03*
D10*
X60100Y1043660D03*
X60100Y1038660D03*
D12*
X49050Y1055060D03*
X49050Y997260D03*
D13*
X76200Y1060060D03*
X76200Y1043060D03*
X76200Y992260D03*
X76200Y1009260D03*
D14*
X91850Y1012410D03*
X98350Y1012410D03*
X104850Y1012410D03*
X111350Y1012410D03*
X111350Y1039910D03*
X104850Y1039910D03*
X98350Y1039910D03*
X91850Y1039910D03*
D15*
X101600Y1026160D03*
D16*
X93100Y1064260D03*
X110100Y1064260D03*
D17*
X7620Y932180D03*
X576580Y1375410D03*
D18*
X558800Y1356360D03*
X25400Y1356360D03*
X558800Y949960D03*
X25400Y949960D03*
D16*
X67700Y1330960D03*
X84700Y1330960D03*
D19*
X572690Y995620D03*
X572690Y1051620D03*
D20*
X535940Y1008620D03*
X535940Y1018620D03*
X535940Y1028620D03*
X535940Y1038620D03*
D21*
X495300Y1015746D03*
X495300Y1026160D03*
X495300Y1036574D03*
D16*
X503800Y1000760D03*
X486800Y1000760D03*
X503800Y1051560D03*
X486800Y1051560D03*
D22*
X269240Y956310D03*
X213360Y956310D03*
X269240Y994410D03*
X213360Y994410D03*
D16*
X93100Y1079500D03*
X110100Y1079500D03*
D23*
X34036Y1127760D03*
X42164Y1127760D03*
D24*
X23100Y1102360D03*
X53100Y1102360D03*
D25*
X102900Y1102360D03*
X74900Y1102360D03*
D13*
X152400Y1068460D03*
X152400Y1085460D03*
X137160Y1085460D03*
X137160Y1068460D03*
D23*
X101600Y988060D03*
X111760Y988060D03*
D26*
X93980Y988060D03*
X119380Y988060D03*
D27*
X158750Y1115060D03*
X158750Y1127760D03*
X158750Y1140460D03*
X158750Y1153160D03*
X158750Y1102360D03*
X146050Y1115060D03*
X146050Y1127760D03*
X146050Y1140460D03*
X146050Y1153160D03*
X146050Y1102360D03*
D22*
X370840Y956310D03*
X314960Y956310D03*
X370840Y994410D03*
X314960Y994410D03*
D26*
X228600Y1369060D03*
X203200Y1369060D03*
X177800Y1369060D03*
X152400Y1369060D03*
X127000Y1369060D03*
X419100Y1343660D03*
X393700Y1343660D03*
X368300Y1343660D03*
X342900Y1343660D03*
X317500Y1343660D03*
X292100Y1343660D03*
X419100Y1369060D03*
X393700Y1369060D03*
X368300Y1369060D03*
X342900Y1369060D03*
X317500Y1369060D03*
X292100Y1369060D03*
D28*
X161100Y1240760D03*
X161100Y1297760D03*
D29*
X29600Y1313760D03*
X19600Y1182260D03*
D30*
X58100Y1228860D03*
X62100Y1239860D03*
X58100Y1250860D03*
X56100Y1261860D03*
X58100Y1272860D03*
X56100Y1283860D03*
X58100Y1294860D03*
X58100Y1305860D03*
D26*
X571500Y1254760D03*
X571500Y1280160D03*
X571500Y1305560D03*
X444500Y1369060D03*
X469900Y1369060D03*
X495300Y1369060D03*
X520700Y1369060D03*
D31*
X442000Y1087560D03*
D13*
X127000Y1034660D03*
X127000Y1017660D03*
D32*
X146050Y1037660D03*
X146050Y1014660D03*
D16*
X478400Y962660D03*
X461400Y962660D03*
D33*
X464620Y953450D02*
X464620Y946470D01*
X457640Y946470D01*
X457640Y953450D01*
X464620Y953450D01*
X464620Y951270D02*
X457640Y951270D01*
X482160Y953450D02*
X482160Y946470D01*
X475180Y946470D01*
X475180Y953450D01*
X482160Y953450D01*
X482160Y951270D02*
X475180Y951270D01*
D13*
X139700Y983370D03*
X139700Y1000370D03*
X154940Y983370D03*
X154940Y1000370D03*
X170180Y983370D03*
X170180Y1000370D03*
D34*
X241300Y1027760D03*
D35*
X241300Y1227760D03*
D36*
X188550Y1035260D03*
D37*
X196300Y1024260D03*
X196300Y1231260D03*
D36*
X264050Y1037760D03*
X188550Y1040260D03*
X264050Y1042760D03*
X188550Y1045260D03*
X264050Y1047760D03*
X188550Y1050260D03*
X264050Y1052760D03*
X188550Y1055260D03*
X264050Y1057760D03*
X188550Y1060260D03*
X264050Y1062760D03*
X188550Y1065260D03*
X264050Y1067760D03*
X188550Y1070260D03*
X264050Y1072760D03*
X188550Y1075260D03*
X264050Y1077760D03*
X188550Y1080260D03*
X264050Y1082760D03*
X188550Y1085260D03*
X264050Y1087760D03*
X188550Y1090260D03*
X264050Y1112760D03*
X188550Y1115260D03*
X264050Y1117760D03*
X188550Y1120260D03*
X264050Y1122760D03*
X188550Y1125260D03*
X264050Y1127760D03*
X188550Y1130260D03*
X264050Y1132760D03*
X188550Y1135260D03*
X264050Y1137760D03*
X188550Y1140260D03*
X264050Y1142760D03*
X188550Y1145260D03*
X264050Y1147760D03*
X188550Y1150260D03*
X264050Y1152760D03*
X188550Y1155260D03*
X264050Y1157760D03*
X188550Y1160260D03*
X264050Y1162760D03*
X188550Y1165260D03*
X264050Y1167760D03*
X188550Y1170260D03*
X264050Y1172760D03*
X188550Y1175260D03*
X264050Y1177760D03*
X188550Y1180260D03*
X264050Y1182760D03*
X188550Y1185260D03*
X264050Y1187760D03*
X188550Y1190260D03*
X264050Y1192760D03*
X188550Y1195260D03*
X264050Y1197760D03*
X188550Y1200260D03*
X264050Y1202760D03*
X188550Y1205260D03*
X264050Y1207760D03*
X188550Y1210260D03*
X264050Y1212760D03*
X188550Y1215260D03*
X264050Y1217760D03*
X188550Y1220260D03*
D26*
X177800Y962660D03*
D16*
X516500Y962660D03*
X499500Y962660D03*
D33*
X502720Y953450D02*
X502720Y946470D01*
X495740Y946470D01*
X495740Y953450D01*
X502720Y953450D01*
X502720Y951270D02*
X495740Y951270D01*
X520260Y953450D02*
X520260Y946470D01*
X513280Y946470D01*
X513280Y953450D01*
X520260Y953450D01*
X520260Y951270D02*
X513280Y951270D01*
D16*
X448700Y1216660D03*
X465700Y1216660D03*
X448700Y1203960D03*
X465700Y1203960D03*
X448700Y1191260D03*
X465700Y1191260D03*
X448700Y1178560D03*
X465700Y1178560D03*
X448700Y1165860D03*
X465700Y1165860D03*
X448700Y1153160D03*
X465700Y1153160D03*
X448700Y1140460D03*
X465700Y1140460D03*
X448700Y1127760D03*
X465700Y1127760D03*
D38*
X503750Y1198160D03*
X503750Y1193160D03*
X503750Y1188160D03*
X503750Y1183160D03*
X503750Y1178160D03*
X503750Y1173160D03*
X503750Y1168160D03*
X503750Y1163160D03*
X503750Y1158160D03*
X503750Y1153160D03*
X503750Y1148160D03*
X503750Y1143160D03*
X503750Y1138160D03*
X503750Y1133160D03*
X503750Y1128160D03*
X503750Y1123160D03*
X503750Y1118160D03*
X503750Y1113160D03*
X503750Y1108160D03*
D39*
X566800Y1225660D02*
X575100Y1225660D01*
X521350Y1080660D02*
X501350Y1080660D01*
X500850Y1225660D02*
X520850Y1225660D01*
X567100Y1080660D02*
X575400Y1080660D01*
D40*
X49600Y1153160D03*
X26600Y1153160D03*
X77400Y1153160D03*
X100400Y1153160D03*
D10*
X679860Y1018660D03*
X679860Y1023660D03*
D11*
X679860Y993910D03*
X679860Y1001660D03*
D10*
X679860Y1008660D03*
X679860Y1013660D03*
X679860Y1033660D03*
X679860Y1028660D03*
D11*
X679860Y1058410D03*
X679860Y1050660D03*
D10*
X679860Y1043660D03*
X679860Y1038660D03*
D12*
X668810Y1055060D03*
X668810Y997260D03*
D13*
X695960Y1060060D03*
X695960Y1043060D03*
X695960Y992260D03*
X695960Y1009260D03*
D14*
X711610Y1012410D03*
X718110Y1012410D03*
X724610Y1012410D03*
X731110Y1012410D03*
X731110Y1039910D03*
X724610Y1039910D03*
X718110Y1039910D03*
X711610Y1039910D03*
D15*
X721360Y1026160D03*
D16*
X712860Y1064260D03*
X729860Y1064260D03*
D17*
X627380Y932180D03*
X1196340Y1375410D03*
D18*
X1178560Y1356360D03*
X645160Y1356360D03*
X1178560Y949960D03*
X645160Y949960D03*
D16*
X687460Y1330960D03*
X704460Y1330960D03*
D19*
X1192450Y995620D03*
X1192450Y1051620D03*
D20*
X1155700Y1008620D03*
X1155700Y1018620D03*
X1155700Y1028620D03*
X1155700Y1038620D03*
D21*
X1115060Y1015746D03*
X1115060Y1026160D03*
X1115060Y1036574D03*
D16*
X1123560Y1000760D03*
X1106560Y1000760D03*
X1123560Y1051560D03*
X1106560Y1051560D03*
D22*
X889000Y956310D03*
X833120Y956310D03*
X889000Y994410D03*
X833120Y994410D03*
D16*
X712860Y1079500D03*
X729860Y1079500D03*
D23*
X653796Y1127760D03*
X661924Y1127760D03*
D24*
X642860Y1102360D03*
X672860Y1102360D03*
D25*
X722660Y1102360D03*
X694660Y1102360D03*
D13*
X772160Y1068460D03*
X772160Y1085460D03*
X756920Y1085460D03*
X756920Y1068460D03*
D23*
X721360Y988060D03*
X731520Y988060D03*
D26*
X713740Y988060D03*
X739140Y988060D03*
D27*
X778510Y1115060D03*
X778510Y1127760D03*
X778510Y1140460D03*
X778510Y1153160D03*
X778510Y1102360D03*
X765810Y1115060D03*
X765810Y1127760D03*
X765810Y1140460D03*
X765810Y1153160D03*
X765810Y1102360D03*
D22*
X990600Y956310D03*
X934720Y956310D03*
X990600Y994410D03*
X934720Y994410D03*
D26*
X848360Y1369060D03*
X822960Y1369060D03*
X797560Y1369060D03*
X772160Y1369060D03*
X746760Y1369060D03*
X1038860Y1343660D03*
X1013460Y1343660D03*
X988060Y1343660D03*
X962660Y1343660D03*
X937260Y1343660D03*
X911860Y1343660D03*
X1038860Y1369060D03*
X1013460Y1369060D03*
X988060Y1369060D03*
X962660Y1369060D03*
X937260Y1369060D03*
X911860Y1369060D03*
D28*
X780860Y1240760D03*
X780860Y1297760D03*
D29*
X649360Y1313760D03*
X639360Y1182260D03*
D30*
X677860Y1228860D03*
X681860Y1239860D03*
X677860Y1250860D03*
X675860Y1261860D03*
X677860Y1272860D03*
X675860Y1283860D03*
X677860Y1294860D03*
X677860Y1305860D03*
D26*
X1191260Y1254760D03*
X1191260Y1280160D03*
X1191260Y1305560D03*
X1064260Y1369060D03*
X1089660Y1369060D03*
X1115060Y1369060D03*
X1140460Y1369060D03*
D31*
X1061760Y1087560D03*
D13*
X746760Y1034660D03*
X746760Y1017660D03*
D32*
X765810Y1037660D03*
X765810Y1014660D03*
D16*
X1098160Y962660D03*
X1081160Y962660D03*
D33*
X1084380Y953450D02*
X1084380Y946470D01*
X1077400Y946470D01*
X1077400Y953450D01*
X1084380Y953450D01*
X1084380Y951270D02*
X1077400Y951270D01*
X1101920Y953450D02*
X1101920Y946470D01*
X1094940Y946470D01*
X1094940Y953450D01*
X1101920Y953450D01*
X1101920Y951270D02*
X1094940Y951270D01*
D13*
X759460Y983370D03*
X759460Y1000370D03*
X774700Y983370D03*
X774700Y1000370D03*
X789940Y983370D03*
X789940Y1000370D03*
D34*
X861060Y1027760D03*
D35*
X861060Y1227760D03*
D36*
X808310Y1035260D03*
D37*
X816060Y1024260D03*
X816060Y1231260D03*
D36*
X883810Y1037760D03*
X808310Y1040260D03*
X883810Y1042760D03*
X808310Y1045260D03*
X883810Y1047760D03*
X808310Y1050260D03*
X883810Y1052760D03*
X808310Y1055260D03*
X883810Y1057760D03*
X808310Y1060260D03*
X883810Y1062760D03*
X808310Y1065260D03*
X883810Y1067760D03*
X808310Y1070260D03*
X883810Y1072760D03*
X808310Y1075260D03*
X883810Y1077760D03*
X808310Y1080260D03*
X883810Y1082760D03*
X808310Y1085260D03*
X883810Y1087760D03*
X808310Y1090260D03*
X883810Y1112760D03*
X808310Y1115260D03*
X883810Y1117760D03*
X808310Y1120260D03*
X883810Y1122760D03*
X808310Y1125260D03*
X883810Y1127760D03*
X808310Y1130260D03*
X883810Y1132760D03*
X808310Y1135260D03*
X883810Y1137760D03*
X808310Y1140260D03*
X883810Y1142760D03*
X808310Y1145260D03*
X883810Y1147760D03*
X808310Y1150260D03*
X883810Y1152760D03*
X808310Y1155260D03*
X883810Y1157760D03*
X808310Y1160260D03*
X883810Y1162760D03*
X808310Y1165260D03*
X883810Y1167760D03*
X808310Y1170260D03*
X883810Y1172760D03*
X808310Y1175260D03*
X883810Y1177760D03*
X808310Y1180260D03*
X883810Y1182760D03*
X808310Y1185260D03*
X883810Y1187760D03*
X808310Y1190260D03*
X883810Y1192760D03*
X808310Y1195260D03*
X883810Y1197760D03*
X808310Y1200260D03*
X883810Y1202760D03*
X808310Y1205260D03*
X883810Y1207760D03*
X808310Y1210260D03*
X883810Y1212760D03*
X808310Y1215260D03*
X883810Y1217760D03*
X808310Y1220260D03*
D26*
X797560Y962660D03*
D16*
X1136260Y962660D03*
X1119260Y962660D03*
D33*
X1122480Y953450D02*
X1122480Y946470D01*
X1115500Y946470D01*
X1115500Y953450D01*
X1122480Y953450D01*
X1122480Y951270D02*
X1115500Y951270D01*
X1140020Y953450D02*
X1140020Y946470D01*
X1133040Y946470D01*
X1133040Y953450D01*
X1140020Y953450D01*
X1140020Y951270D02*
X1133040Y951270D01*
D16*
X1068460Y1216660D03*
X1085460Y1216660D03*
X1068460Y1203960D03*
X1085460Y1203960D03*
X1068460Y1191260D03*
X1085460Y1191260D03*
X1068460Y1178560D03*
X1085460Y1178560D03*
X1068460Y1165860D03*
X1085460Y1165860D03*
X1068460Y1153160D03*
X1085460Y1153160D03*
X1068460Y1140460D03*
X1085460Y1140460D03*
X1068460Y1127760D03*
X1085460Y1127760D03*
D38*
X1123510Y1198160D03*
X1123510Y1193160D03*
X1123510Y1188160D03*
X1123510Y1183160D03*
X1123510Y1178160D03*
X1123510Y1173160D03*
X1123510Y1168160D03*
X1123510Y1163160D03*
X1123510Y1158160D03*
X1123510Y1153160D03*
X1123510Y1148160D03*
X1123510Y1143160D03*
X1123510Y1138160D03*
X1123510Y1133160D03*
X1123510Y1128160D03*
X1123510Y1123160D03*
X1123510Y1118160D03*
X1123510Y1113160D03*
X1123510Y1108160D03*
D39*
X1186560Y1225660D02*
X1194860Y1225660D01*
X1141110Y1080660D02*
X1121110Y1080660D01*
X1120610Y1225660D02*
X1140610Y1225660D01*
X1186860Y1080660D02*
X1195160Y1080660D01*
D40*
X669360Y1153160D03*
X646360Y1153160D03*
X697160Y1153160D03*
X720160Y1153160D03*
D27*
X99060Y1402715D03*
X1195705Y1402715D03*
D41*
X90005Y-20955D02*
X90008Y-20733D01*
X90016Y-20511D01*
X90030Y-20289D01*
X90049Y-20067D01*
X90073Y-19847D01*
X90103Y-19626D01*
X90138Y-19407D01*
X90179Y-19188D01*
X90225Y-18971D01*
X90276Y-18755D01*
X90333Y-18540D01*
X90395Y-18326D01*
X90462Y-18115D01*
X90534Y-17904D01*
X90612Y-17696D01*
X90694Y-17490D01*
X90782Y-17286D01*
X90874Y-17083D01*
X90972Y-16884D01*
X91074Y-16687D01*
X91181Y-16492D01*
X91293Y-16300D01*
X91410Y-16111D01*
X91531Y-15924D01*
X91657Y-15741D01*
X91787Y-15561D01*
X91922Y-15384D01*
X92060Y-15211D01*
X92203Y-15041D01*
X92351Y-14874D01*
X92502Y-14711D01*
X92657Y-14552D01*
X92816Y-14397D01*
X92979Y-14246D01*
X93146Y-14098D01*
X93316Y-13955D01*
X93489Y-13817D01*
X93666Y-13682D01*
X93846Y-13552D01*
X94029Y-13426D01*
X94216Y-13305D01*
X94405Y-13188D01*
X94597Y-13076D01*
X94792Y-12969D01*
X94989Y-12867D01*
X95188Y-12769D01*
X95391Y-12677D01*
X95595Y-12589D01*
X95801Y-12507D01*
X96009Y-12429D01*
X96220Y-12357D01*
X96431Y-12290D01*
X96645Y-12228D01*
X96860Y-12171D01*
X97076Y-12120D01*
X97293Y-12074D01*
X97512Y-12033D01*
X97731Y-11998D01*
X97952Y-11968D01*
X98172Y-11944D01*
X98394Y-11925D01*
X98616Y-11911D01*
X98838Y-11903D01*
X99060Y-11900D01*
X99282Y-11903D01*
X99504Y-11911D01*
X99726Y-11925D01*
X99948Y-11944D01*
X100168Y-11968D01*
X100389Y-11998D01*
X100608Y-12033D01*
X100827Y-12074D01*
X101044Y-12120D01*
X101260Y-12171D01*
X101475Y-12228D01*
X101689Y-12290D01*
X101900Y-12357D01*
X102111Y-12429D01*
X102319Y-12507D01*
X102525Y-12589D01*
X102729Y-12677D01*
X102932Y-12769D01*
X103131Y-12867D01*
X103328Y-12969D01*
X103523Y-13076D01*
X103715Y-13188D01*
X103904Y-13305D01*
X104091Y-13426D01*
X104274Y-13552D01*
X104454Y-13682D01*
X104631Y-13817D01*
X104804Y-13955D01*
X104974Y-14098D01*
X105141Y-14246D01*
X105304Y-14397D01*
X105463Y-14552D01*
X105618Y-14711D01*
X105769Y-14874D01*
X105917Y-15041D01*
X106060Y-15211D01*
X106198Y-15384D01*
X106333Y-15561D01*
X106463Y-15741D01*
X106589Y-15924D01*
X106710Y-16111D01*
X106827Y-16300D01*
X106939Y-16492D01*
X107046Y-16687D01*
X107148Y-16884D01*
X107246Y-17083D01*
X107338Y-17286D01*
X107426Y-17490D01*
X107508Y-17696D01*
X107586Y-17904D01*
X107658Y-18115D01*
X107725Y-18326D01*
X107787Y-18540D01*
X107844Y-18755D01*
X107895Y-18971D01*
X107941Y-19188D01*
X107982Y-19407D01*
X108017Y-19626D01*
X108047Y-19847D01*
X108071Y-20067D01*
X108090Y-20289D01*
X108104Y-20511D01*
X108112Y-20733D01*
X108115Y-20955D01*
X108112Y-21177D01*
X108104Y-21399D01*
X108090Y-21621D01*
X108071Y-21843D01*
X108047Y-22063D01*
X108017Y-22284D01*
X107982Y-22503D01*
X107941Y-22722D01*
X107895Y-22939D01*
X107844Y-23155D01*
X107787Y-23370D01*
X107725Y-23584D01*
X107658Y-23795D01*
X107586Y-24006D01*
X107508Y-24214D01*
X107426Y-24420D01*
X107338Y-24624D01*
X107246Y-24827D01*
X107148Y-25026D01*
X107046Y-25223D01*
X106939Y-25418D01*
X106827Y-25610D01*
X106710Y-25799D01*
X106589Y-25986D01*
X106463Y-26169D01*
X106333Y-26349D01*
X106198Y-26526D01*
X106060Y-26699D01*
X105917Y-26869D01*
X105769Y-27036D01*
X105618Y-27199D01*
X105463Y-27358D01*
X105304Y-27513D01*
X105141Y-27664D01*
X104974Y-27812D01*
X104804Y-27955D01*
X104631Y-28093D01*
X104454Y-28228D01*
X104274Y-28358D01*
X104091Y-28484D01*
X103904Y-28605D01*
X103715Y-28722D01*
X103523Y-28834D01*
X103328Y-28941D01*
X103131Y-29043D01*
X102932Y-29141D01*
X102729Y-29233D01*
X102525Y-29321D01*
X102319Y-29403D01*
X102111Y-29481D01*
X101900Y-29553D01*
X101689Y-29620D01*
X101475Y-29682D01*
X101260Y-29739D01*
X101044Y-29790D01*
X100827Y-29836D01*
X100608Y-29877D01*
X100389Y-29912D01*
X100168Y-29942D01*
X99948Y-29966D01*
X99726Y-29985D01*
X99504Y-29999D01*
X99282Y-30007D01*
X99060Y-30010D01*
X98838Y-30007D01*
X98616Y-29999D01*
X98394Y-29985D01*
X98172Y-29966D01*
X97952Y-29942D01*
X97731Y-29912D01*
X97512Y-29877D01*
X97293Y-29836D01*
X97076Y-29790D01*
X96860Y-29739D01*
X96645Y-29682D01*
X96431Y-29620D01*
X96220Y-29553D01*
X96009Y-29481D01*
X95801Y-29403D01*
X95595Y-29321D01*
X95391Y-29233D01*
X95188Y-29141D01*
X94989Y-29043D01*
X94792Y-28941D01*
X94597Y-28834D01*
X94405Y-28722D01*
X94216Y-28605D01*
X94029Y-28484D01*
X93846Y-28358D01*
X93666Y-28228D01*
X93489Y-28093D01*
X93316Y-27955D01*
X93146Y-27812D01*
X92979Y-27664D01*
X92816Y-27513D01*
X92657Y-27358D01*
X92502Y-27199D01*
X92351Y-27036D01*
X92203Y-26869D01*
X92060Y-26699D01*
X91922Y-26526D01*
X91787Y-26349D01*
X91657Y-26169D01*
X91531Y-25986D01*
X91410Y-25799D01*
X91293Y-25610D01*
X91181Y-25418D01*
X91074Y-25223D01*
X90972Y-25026D01*
X90874Y-24827D01*
X90782Y-24624D01*
X90694Y-24420D01*
X90612Y-24214D01*
X90534Y-24006D01*
X90462Y-23795D01*
X90395Y-23584D01*
X90333Y-23370D01*
X90276Y-23155D01*
X90225Y-22939D01*
X90179Y-22722D01*
X90138Y-22503D01*
X90103Y-22284D01*
X90073Y-22063D01*
X90049Y-21843D01*
X90030Y-21621D01*
X90016Y-21399D01*
X90008Y-21177D01*
X90005Y-20955D01*
D42*
X99060Y-20955D03*
M02*
