G04 EAGLE Gerber RS-274X export*
G75*
%MOMM*%
%FSLAX34Y34*%
%LPD*%
%INSoldermask Bottom*%
%IPPOS*%
%AMOC8*
5,1,8,0,0,1.08239X$1,22.5*%
G01*
%ADD10C,0.853200*%
%ADD11C,0.838200*%
%ADD12C,3.505200*%
%ADD13C,2.082800*%
%ADD14C,1.203200*%
%ADD15C,6.203200*%
%ADD16R,0.863600X1.473200*%
%ADD17C,1.303200*%
%ADD18C,1.803200*%
%ADD19R,0.838200X1.473200*%
%ADD20C,1.270000*%
%ADD21C,1.703200*%

G36*
X1129730Y948067D02*
X1129730Y948067D01*
X1129796Y948069D01*
X1129839Y948087D01*
X1129886Y948095D01*
X1129943Y948129D01*
X1130003Y948154D01*
X1130038Y948185D01*
X1130079Y948210D01*
X1130121Y948261D01*
X1130169Y948305D01*
X1130191Y948347D01*
X1130220Y948384D01*
X1130241Y948446D01*
X1130272Y948505D01*
X1130280Y948559D01*
X1130292Y948596D01*
X1130291Y948636D01*
X1130299Y948690D01*
X1130299Y951230D01*
X1130288Y951295D01*
X1130286Y951361D01*
X1130268Y951404D01*
X1130260Y951451D01*
X1130226Y951508D01*
X1130201Y951568D01*
X1130170Y951603D01*
X1130145Y951644D01*
X1130094Y951686D01*
X1130050Y951734D01*
X1130008Y951756D01*
X1129971Y951785D01*
X1129909Y951806D01*
X1129850Y951837D01*
X1129796Y951845D01*
X1129759Y951857D01*
X1129719Y951856D01*
X1129665Y951864D01*
X1125855Y951864D01*
X1125790Y951853D01*
X1125724Y951851D01*
X1125681Y951833D01*
X1125634Y951825D01*
X1125577Y951791D01*
X1125517Y951766D01*
X1125482Y951735D01*
X1125441Y951710D01*
X1125400Y951659D01*
X1125351Y951615D01*
X1125329Y951573D01*
X1125300Y951536D01*
X1125279Y951474D01*
X1125248Y951415D01*
X1125240Y951361D01*
X1125228Y951324D01*
X1125228Y951321D01*
X1125229Y951284D01*
X1125221Y951230D01*
X1125221Y948690D01*
X1125232Y948625D01*
X1125234Y948559D01*
X1125252Y948516D01*
X1125260Y948469D01*
X1125294Y948412D01*
X1125319Y948352D01*
X1125350Y948317D01*
X1125375Y948276D01*
X1125426Y948235D01*
X1125470Y948186D01*
X1125512Y948164D01*
X1125549Y948135D01*
X1125611Y948114D01*
X1125670Y948083D01*
X1125724Y948075D01*
X1125761Y948063D01*
X1125801Y948064D01*
X1125855Y948056D01*
X1129665Y948056D01*
X1129730Y948067D01*
G37*
G36*
X1053530Y948067D02*
X1053530Y948067D01*
X1053596Y948069D01*
X1053639Y948087D01*
X1053686Y948095D01*
X1053743Y948129D01*
X1053803Y948154D01*
X1053838Y948185D01*
X1053879Y948210D01*
X1053921Y948261D01*
X1053969Y948305D01*
X1053991Y948347D01*
X1054020Y948384D01*
X1054041Y948446D01*
X1054072Y948505D01*
X1054080Y948559D01*
X1054092Y948596D01*
X1054091Y948636D01*
X1054099Y948690D01*
X1054099Y951230D01*
X1054088Y951295D01*
X1054086Y951361D01*
X1054068Y951404D01*
X1054060Y951451D01*
X1054026Y951508D01*
X1054001Y951568D01*
X1053970Y951603D01*
X1053945Y951644D01*
X1053894Y951686D01*
X1053850Y951734D01*
X1053808Y951756D01*
X1053771Y951785D01*
X1053709Y951806D01*
X1053650Y951837D01*
X1053596Y951845D01*
X1053559Y951857D01*
X1053519Y951856D01*
X1053465Y951864D01*
X1049655Y951864D01*
X1049590Y951853D01*
X1049524Y951851D01*
X1049481Y951833D01*
X1049434Y951825D01*
X1049377Y951791D01*
X1049317Y951766D01*
X1049282Y951735D01*
X1049241Y951710D01*
X1049200Y951659D01*
X1049151Y951615D01*
X1049129Y951573D01*
X1049100Y951536D01*
X1049079Y951474D01*
X1049048Y951415D01*
X1049040Y951361D01*
X1049028Y951324D01*
X1049028Y951321D01*
X1049029Y951284D01*
X1049021Y951230D01*
X1049021Y948690D01*
X1049032Y948625D01*
X1049034Y948559D01*
X1049052Y948516D01*
X1049060Y948469D01*
X1049094Y948412D01*
X1049119Y948352D01*
X1049150Y948317D01*
X1049175Y948276D01*
X1049226Y948235D01*
X1049270Y948186D01*
X1049312Y948164D01*
X1049349Y948135D01*
X1049411Y948114D01*
X1049470Y948083D01*
X1049524Y948075D01*
X1049561Y948063D01*
X1049601Y948064D01*
X1049655Y948056D01*
X1053465Y948056D01*
X1053530Y948067D01*
G37*
G36*
X509970Y948067D02*
X509970Y948067D01*
X510036Y948069D01*
X510079Y948087D01*
X510126Y948095D01*
X510183Y948129D01*
X510243Y948154D01*
X510278Y948185D01*
X510319Y948210D01*
X510361Y948261D01*
X510409Y948305D01*
X510431Y948347D01*
X510460Y948384D01*
X510481Y948446D01*
X510512Y948505D01*
X510520Y948559D01*
X510532Y948596D01*
X510531Y948636D01*
X510539Y948690D01*
X510539Y951230D01*
X510528Y951295D01*
X510526Y951361D01*
X510508Y951404D01*
X510500Y951451D01*
X510466Y951508D01*
X510441Y951568D01*
X510410Y951603D01*
X510385Y951644D01*
X510334Y951686D01*
X510290Y951734D01*
X510248Y951756D01*
X510211Y951785D01*
X510149Y951806D01*
X510090Y951837D01*
X510036Y951845D01*
X509999Y951857D01*
X509959Y951856D01*
X509905Y951864D01*
X506095Y951864D01*
X506030Y951853D01*
X505964Y951851D01*
X505921Y951833D01*
X505874Y951825D01*
X505817Y951791D01*
X505757Y951766D01*
X505722Y951735D01*
X505681Y951710D01*
X505640Y951659D01*
X505591Y951615D01*
X505569Y951573D01*
X505540Y951536D01*
X505519Y951474D01*
X505488Y951415D01*
X505480Y951361D01*
X505468Y951324D01*
X505468Y951321D01*
X505469Y951284D01*
X505461Y951230D01*
X505461Y948690D01*
X505472Y948625D01*
X505474Y948559D01*
X505492Y948516D01*
X505500Y948469D01*
X505534Y948412D01*
X505559Y948352D01*
X505590Y948317D01*
X505615Y948276D01*
X505666Y948235D01*
X505710Y948186D01*
X505752Y948164D01*
X505789Y948135D01*
X505851Y948114D01*
X505910Y948083D01*
X505964Y948075D01*
X506001Y948063D01*
X506041Y948064D01*
X506095Y948056D01*
X509905Y948056D01*
X509970Y948067D01*
G37*
G36*
X433770Y948067D02*
X433770Y948067D01*
X433836Y948069D01*
X433879Y948087D01*
X433926Y948095D01*
X433983Y948129D01*
X434043Y948154D01*
X434078Y948185D01*
X434119Y948210D01*
X434161Y948261D01*
X434209Y948305D01*
X434231Y948347D01*
X434260Y948384D01*
X434281Y948446D01*
X434312Y948505D01*
X434320Y948559D01*
X434332Y948596D01*
X434331Y948636D01*
X434339Y948690D01*
X434339Y951230D01*
X434328Y951295D01*
X434326Y951361D01*
X434308Y951404D01*
X434300Y951451D01*
X434266Y951508D01*
X434241Y951568D01*
X434210Y951603D01*
X434185Y951644D01*
X434134Y951686D01*
X434090Y951734D01*
X434048Y951756D01*
X434011Y951785D01*
X433949Y951806D01*
X433890Y951837D01*
X433836Y951845D01*
X433799Y951857D01*
X433759Y951856D01*
X433705Y951864D01*
X429895Y951864D01*
X429830Y951853D01*
X429764Y951851D01*
X429721Y951833D01*
X429674Y951825D01*
X429617Y951791D01*
X429557Y951766D01*
X429522Y951735D01*
X429481Y951710D01*
X429440Y951659D01*
X429391Y951615D01*
X429369Y951573D01*
X429340Y951536D01*
X429319Y951474D01*
X429288Y951415D01*
X429280Y951361D01*
X429268Y951324D01*
X429268Y951321D01*
X429269Y951284D01*
X429261Y951230D01*
X429261Y948690D01*
X429272Y948625D01*
X429274Y948559D01*
X429292Y948516D01*
X429300Y948469D01*
X429334Y948412D01*
X429359Y948352D01*
X429390Y948317D01*
X429415Y948276D01*
X429466Y948235D01*
X429510Y948186D01*
X429552Y948164D01*
X429589Y948135D01*
X429651Y948114D01*
X429710Y948083D01*
X429764Y948075D01*
X429801Y948063D01*
X429841Y948064D01*
X429895Y948056D01*
X433705Y948056D01*
X433770Y948067D01*
G37*
G36*
X1129730Y485787D02*
X1129730Y485787D01*
X1129796Y485789D01*
X1129839Y485807D01*
X1129886Y485815D01*
X1129943Y485849D01*
X1130003Y485874D01*
X1130038Y485905D01*
X1130079Y485930D01*
X1130121Y485981D01*
X1130169Y486025D01*
X1130191Y486067D01*
X1130220Y486104D01*
X1130241Y486166D01*
X1130272Y486225D01*
X1130280Y486279D01*
X1130292Y486316D01*
X1130291Y486356D01*
X1130299Y486410D01*
X1130299Y488950D01*
X1130288Y489015D01*
X1130286Y489081D01*
X1130268Y489124D01*
X1130260Y489171D01*
X1130226Y489228D01*
X1130201Y489288D01*
X1130170Y489323D01*
X1130145Y489364D01*
X1130094Y489406D01*
X1130050Y489454D01*
X1130008Y489476D01*
X1129971Y489505D01*
X1129909Y489526D01*
X1129850Y489557D01*
X1129796Y489565D01*
X1129759Y489577D01*
X1129719Y489576D01*
X1129665Y489584D01*
X1125855Y489584D01*
X1125790Y489573D01*
X1125724Y489571D01*
X1125681Y489553D01*
X1125634Y489545D01*
X1125577Y489511D01*
X1125517Y489486D01*
X1125482Y489455D01*
X1125441Y489430D01*
X1125400Y489379D01*
X1125351Y489335D01*
X1125329Y489293D01*
X1125300Y489256D01*
X1125279Y489194D01*
X1125248Y489135D01*
X1125240Y489081D01*
X1125228Y489044D01*
X1125228Y489041D01*
X1125229Y489004D01*
X1125221Y488950D01*
X1125221Y486410D01*
X1125232Y486345D01*
X1125234Y486279D01*
X1125252Y486236D01*
X1125260Y486189D01*
X1125294Y486132D01*
X1125319Y486072D01*
X1125350Y486037D01*
X1125375Y485996D01*
X1125426Y485955D01*
X1125470Y485906D01*
X1125512Y485884D01*
X1125549Y485855D01*
X1125611Y485834D01*
X1125670Y485803D01*
X1125724Y485795D01*
X1125761Y485783D01*
X1125801Y485784D01*
X1125855Y485776D01*
X1129665Y485776D01*
X1129730Y485787D01*
G37*
G36*
X1053530Y485787D02*
X1053530Y485787D01*
X1053596Y485789D01*
X1053639Y485807D01*
X1053686Y485815D01*
X1053743Y485849D01*
X1053803Y485874D01*
X1053838Y485905D01*
X1053879Y485930D01*
X1053921Y485981D01*
X1053969Y486025D01*
X1053991Y486067D01*
X1054020Y486104D01*
X1054041Y486166D01*
X1054072Y486225D01*
X1054080Y486279D01*
X1054092Y486316D01*
X1054091Y486356D01*
X1054099Y486410D01*
X1054099Y488950D01*
X1054088Y489015D01*
X1054086Y489081D01*
X1054068Y489124D01*
X1054060Y489171D01*
X1054026Y489228D01*
X1054001Y489288D01*
X1053970Y489323D01*
X1053945Y489364D01*
X1053894Y489406D01*
X1053850Y489454D01*
X1053808Y489476D01*
X1053771Y489505D01*
X1053709Y489526D01*
X1053650Y489557D01*
X1053596Y489565D01*
X1053559Y489577D01*
X1053519Y489576D01*
X1053465Y489584D01*
X1049655Y489584D01*
X1049590Y489573D01*
X1049524Y489571D01*
X1049481Y489553D01*
X1049434Y489545D01*
X1049377Y489511D01*
X1049317Y489486D01*
X1049282Y489455D01*
X1049241Y489430D01*
X1049200Y489379D01*
X1049151Y489335D01*
X1049129Y489293D01*
X1049100Y489256D01*
X1049079Y489194D01*
X1049048Y489135D01*
X1049040Y489081D01*
X1049028Y489044D01*
X1049028Y489041D01*
X1049029Y489004D01*
X1049021Y488950D01*
X1049021Y486410D01*
X1049032Y486345D01*
X1049034Y486279D01*
X1049052Y486236D01*
X1049060Y486189D01*
X1049094Y486132D01*
X1049119Y486072D01*
X1049150Y486037D01*
X1049175Y485996D01*
X1049226Y485955D01*
X1049270Y485906D01*
X1049312Y485884D01*
X1049349Y485855D01*
X1049411Y485834D01*
X1049470Y485803D01*
X1049524Y485795D01*
X1049561Y485783D01*
X1049601Y485784D01*
X1049655Y485776D01*
X1053465Y485776D01*
X1053530Y485787D01*
G37*
G36*
X433770Y485787D02*
X433770Y485787D01*
X433836Y485789D01*
X433879Y485807D01*
X433926Y485815D01*
X433983Y485849D01*
X434043Y485874D01*
X434078Y485905D01*
X434119Y485930D01*
X434161Y485981D01*
X434209Y486025D01*
X434231Y486067D01*
X434260Y486104D01*
X434281Y486166D01*
X434312Y486225D01*
X434320Y486279D01*
X434332Y486316D01*
X434331Y486356D01*
X434339Y486410D01*
X434339Y488950D01*
X434328Y489015D01*
X434326Y489081D01*
X434308Y489124D01*
X434300Y489171D01*
X434266Y489228D01*
X434241Y489288D01*
X434210Y489323D01*
X434185Y489364D01*
X434134Y489406D01*
X434090Y489454D01*
X434048Y489476D01*
X434011Y489505D01*
X433949Y489526D01*
X433890Y489557D01*
X433836Y489565D01*
X433799Y489577D01*
X433759Y489576D01*
X433705Y489584D01*
X429895Y489584D01*
X429830Y489573D01*
X429764Y489571D01*
X429721Y489553D01*
X429674Y489545D01*
X429617Y489511D01*
X429557Y489486D01*
X429522Y489455D01*
X429481Y489430D01*
X429440Y489379D01*
X429391Y489335D01*
X429369Y489293D01*
X429340Y489256D01*
X429319Y489194D01*
X429288Y489135D01*
X429280Y489081D01*
X429268Y489044D01*
X429268Y489041D01*
X429269Y489004D01*
X429261Y488950D01*
X429261Y486410D01*
X429272Y486345D01*
X429274Y486279D01*
X429292Y486236D01*
X429300Y486189D01*
X429334Y486132D01*
X429359Y486072D01*
X429390Y486037D01*
X429415Y485996D01*
X429466Y485955D01*
X429510Y485906D01*
X429552Y485884D01*
X429589Y485855D01*
X429651Y485834D01*
X429710Y485803D01*
X429764Y485795D01*
X429801Y485783D01*
X429841Y485784D01*
X429895Y485776D01*
X433705Y485776D01*
X433770Y485787D01*
G37*
G36*
X509970Y485787D02*
X509970Y485787D01*
X510036Y485789D01*
X510079Y485807D01*
X510126Y485815D01*
X510183Y485849D01*
X510243Y485874D01*
X510278Y485905D01*
X510319Y485930D01*
X510361Y485981D01*
X510409Y486025D01*
X510431Y486067D01*
X510460Y486104D01*
X510481Y486166D01*
X510512Y486225D01*
X510520Y486279D01*
X510532Y486316D01*
X510531Y486356D01*
X510539Y486410D01*
X510539Y488950D01*
X510528Y489015D01*
X510526Y489081D01*
X510508Y489124D01*
X510500Y489171D01*
X510466Y489228D01*
X510441Y489288D01*
X510410Y489323D01*
X510385Y489364D01*
X510334Y489406D01*
X510290Y489454D01*
X510248Y489476D01*
X510211Y489505D01*
X510149Y489526D01*
X510090Y489557D01*
X510036Y489565D01*
X509999Y489577D01*
X509959Y489576D01*
X509905Y489584D01*
X506095Y489584D01*
X506030Y489573D01*
X505964Y489571D01*
X505921Y489553D01*
X505874Y489545D01*
X505817Y489511D01*
X505757Y489486D01*
X505722Y489455D01*
X505681Y489430D01*
X505640Y489379D01*
X505591Y489335D01*
X505569Y489293D01*
X505540Y489256D01*
X505519Y489194D01*
X505488Y489135D01*
X505480Y489081D01*
X505468Y489044D01*
X505468Y489041D01*
X505469Y489004D01*
X505461Y488950D01*
X505461Y486410D01*
X505472Y486345D01*
X505474Y486279D01*
X505492Y486236D01*
X505500Y486189D01*
X505534Y486132D01*
X505559Y486072D01*
X505590Y486037D01*
X505615Y485996D01*
X505666Y485955D01*
X505710Y485906D01*
X505752Y485884D01*
X505789Y485855D01*
X505851Y485834D01*
X505910Y485803D01*
X505964Y485795D01*
X506001Y485783D01*
X506041Y485784D01*
X506095Y485776D01*
X509905Y485776D01*
X509970Y485787D01*
G37*
G36*
X1129730Y23507D02*
X1129730Y23507D01*
X1129796Y23509D01*
X1129839Y23527D01*
X1129886Y23535D01*
X1129943Y23569D01*
X1130003Y23594D01*
X1130038Y23625D01*
X1130079Y23650D01*
X1130121Y23701D01*
X1130169Y23745D01*
X1130191Y23787D01*
X1130220Y23824D01*
X1130241Y23886D01*
X1130272Y23945D01*
X1130280Y23999D01*
X1130292Y24036D01*
X1130291Y24076D01*
X1130299Y24130D01*
X1130299Y26670D01*
X1130288Y26735D01*
X1130286Y26801D01*
X1130268Y26844D01*
X1130260Y26891D01*
X1130226Y26948D01*
X1130201Y27008D01*
X1130170Y27043D01*
X1130145Y27084D01*
X1130094Y27126D01*
X1130050Y27174D01*
X1130008Y27196D01*
X1129971Y27225D01*
X1129909Y27246D01*
X1129850Y27277D01*
X1129796Y27285D01*
X1129759Y27297D01*
X1129719Y27296D01*
X1129665Y27304D01*
X1125855Y27304D01*
X1125790Y27293D01*
X1125724Y27291D01*
X1125681Y27273D01*
X1125634Y27265D01*
X1125577Y27231D01*
X1125517Y27206D01*
X1125482Y27175D01*
X1125441Y27150D01*
X1125400Y27099D01*
X1125351Y27055D01*
X1125329Y27013D01*
X1125300Y26976D01*
X1125279Y26914D01*
X1125248Y26855D01*
X1125240Y26801D01*
X1125228Y26764D01*
X1125228Y26761D01*
X1125229Y26724D01*
X1125221Y26670D01*
X1125221Y24130D01*
X1125232Y24065D01*
X1125234Y23999D01*
X1125252Y23956D01*
X1125260Y23909D01*
X1125294Y23852D01*
X1125319Y23792D01*
X1125350Y23757D01*
X1125375Y23716D01*
X1125426Y23675D01*
X1125470Y23626D01*
X1125512Y23604D01*
X1125549Y23575D01*
X1125611Y23554D01*
X1125670Y23523D01*
X1125724Y23515D01*
X1125761Y23503D01*
X1125801Y23504D01*
X1125855Y23496D01*
X1129665Y23496D01*
X1129730Y23507D01*
G37*
G36*
X1053530Y23507D02*
X1053530Y23507D01*
X1053596Y23509D01*
X1053639Y23527D01*
X1053686Y23535D01*
X1053743Y23569D01*
X1053803Y23594D01*
X1053838Y23625D01*
X1053879Y23650D01*
X1053921Y23701D01*
X1053969Y23745D01*
X1053991Y23787D01*
X1054020Y23824D01*
X1054041Y23886D01*
X1054072Y23945D01*
X1054080Y23999D01*
X1054092Y24036D01*
X1054091Y24076D01*
X1054099Y24130D01*
X1054099Y26670D01*
X1054088Y26735D01*
X1054086Y26801D01*
X1054068Y26844D01*
X1054060Y26891D01*
X1054026Y26948D01*
X1054001Y27008D01*
X1053970Y27043D01*
X1053945Y27084D01*
X1053894Y27126D01*
X1053850Y27174D01*
X1053808Y27196D01*
X1053771Y27225D01*
X1053709Y27246D01*
X1053650Y27277D01*
X1053596Y27285D01*
X1053559Y27297D01*
X1053519Y27296D01*
X1053465Y27304D01*
X1049655Y27304D01*
X1049590Y27293D01*
X1049524Y27291D01*
X1049481Y27273D01*
X1049434Y27265D01*
X1049377Y27231D01*
X1049317Y27206D01*
X1049282Y27175D01*
X1049241Y27150D01*
X1049200Y27099D01*
X1049151Y27055D01*
X1049129Y27013D01*
X1049100Y26976D01*
X1049079Y26914D01*
X1049048Y26855D01*
X1049040Y26801D01*
X1049028Y26764D01*
X1049028Y26761D01*
X1049029Y26724D01*
X1049021Y26670D01*
X1049021Y24130D01*
X1049032Y24065D01*
X1049034Y23999D01*
X1049052Y23956D01*
X1049060Y23909D01*
X1049094Y23852D01*
X1049119Y23792D01*
X1049150Y23757D01*
X1049175Y23716D01*
X1049226Y23675D01*
X1049270Y23626D01*
X1049312Y23604D01*
X1049349Y23575D01*
X1049411Y23554D01*
X1049470Y23523D01*
X1049524Y23515D01*
X1049561Y23503D01*
X1049601Y23504D01*
X1049655Y23496D01*
X1053465Y23496D01*
X1053530Y23507D01*
G37*
G36*
X509970Y23507D02*
X509970Y23507D01*
X510036Y23509D01*
X510079Y23527D01*
X510126Y23535D01*
X510183Y23569D01*
X510243Y23594D01*
X510278Y23625D01*
X510319Y23650D01*
X510361Y23701D01*
X510409Y23745D01*
X510431Y23787D01*
X510460Y23824D01*
X510481Y23886D01*
X510512Y23945D01*
X510520Y23999D01*
X510532Y24036D01*
X510531Y24076D01*
X510539Y24130D01*
X510539Y26670D01*
X510528Y26735D01*
X510526Y26801D01*
X510508Y26844D01*
X510500Y26891D01*
X510466Y26948D01*
X510441Y27008D01*
X510410Y27043D01*
X510385Y27084D01*
X510334Y27126D01*
X510290Y27174D01*
X510248Y27196D01*
X510211Y27225D01*
X510149Y27246D01*
X510090Y27277D01*
X510036Y27285D01*
X509999Y27297D01*
X509959Y27296D01*
X509905Y27304D01*
X506095Y27304D01*
X506030Y27293D01*
X505964Y27291D01*
X505921Y27273D01*
X505874Y27265D01*
X505817Y27231D01*
X505757Y27206D01*
X505722Y27175D01*
X505681Y27150D01*
X505640Y27099D01*
X505591Y27055D01*
X505569Y27013D01*
X505540Y26976D01*
X505519Y26914D01*
X505488Y26855D01*
X505480Y26801D01*
X505468Y26764D01*
X505468Y26761D01*
X505469Y26724D01*
X505461Y26670D01*
X505461Y24130D01*
X505472Y24065D01*
X505474Y23999D01*
X505492Y23956D01*
X505500Y23909D01*
X505534Y23852D01*
X505559Y23792D01*
X505590Y23757D01*
X505615Y23716D01*
X505666Y23675D01*
X505710Y23626D01*
X505752Y23604D01*
X505789Y23575D01*
X505851Y23554D01*
X505910Y23523D01*
X505964Y23515D01*
X506001Y23503D01*
X506041Y23504D01*
X506095Y23496D01*
X509905Y23496D01*
X509970Y23507D01*
G37*
G36*
X433770Y23507D02*
X433770Y23507D01*
X433836Y23509D01*
X433879Y23527D01*
X433926Y23535D01*
X433983Y23569D01*
X434043Y23594D01*
X434078Y23625D01*
X434119Y23650D01*
X434161Y23701D01*
X434209Y23745D01*
X434231Y23787D01*
X434260Y23824D01*
X434281Y23886D01*
X434312Y23945D01*
X434320Y23999D01*
X434332Y24036D01*
X434331Y24076D01*
X434339Y24130D01*
X434339Y26670D01*
X434328Y26735D01*
X434326Y26801D01*
X434308Y26844D01*
X434300Y26891D01*
X434266Y26948D01*
X434241Y27008D01*
X434210Y27043D01*
X434185Y27084D01*
X434134Y27126D01*
X434090Y27174D01*
X434048Y27196D01*
X434011Y27225D01*
X433949Y27246D01*
X433890Y27277D01*
X433836Y27285D01*
X433799Y27297D01*
X433759Y27296D01*
X433705Y27304D01*
X429895Y27304D01*
X429830Y27293D01*
X429764Y27291D01*
X429721Y27273D01*
X429674Y27265D01*
X429617Y27231D01*
X429557Y27206D01*
X429522Y27175D01*
X429481Y27150D01*
X429440Y27099D01*
X429391Y27055D01*
X429369Y27013D01*
X429340Y26976D01*
X429319Y26914D01*
X429288Y26855D01*
X429280Y26801D01*
X429268Y26764D01*
X429268Y26761D01*
X429269Y26724D01*
X429261Y26670D01*
X429261Y24130D01*
X429272Y24065D01*
X429274Y23999D01*
X429292Y23956D01*
X429300Y23909D01*
X429334Y23852D01*
X429359Y23792D01*
X429390Y23757D01*
X429415Y23716D01*
X429466Y23675D01*
X429510Y23626D01*
X429552Y23604D01*
X429589Y23575D01*
X429651Y23554D01*
X429710Y23523D01*
X429764Y23515D01*
X429801Y23503D01*
X429841Y23504D01*
X429895Y23496D01*
X433705Y23496D01*
X433770Y23507D01*
G37*
D10*
X49050Y130500D03*
X49050Y72700D03*
D11*
X7620Y7620D03*
X576580Y450850D03*
D12*
X558800Y431800D03*
X25400Y431800D03*
X558800Y25400D03*
X25400Y25400D03*
D13*
X93980Y63500D03*
X119380Y63500D03*
D14*
X158750Y190500D03*
X158750Y203200D03*
X158750Y215900D03*
X158750Y228600D03*
X158750Y177800D03*
X146050Y190500D03*
X146050Y203200D03*
X146050Y215900D03*
X146050Y228600D03*
X146050Y177800D03*
D13*
X228600Y444500D03*
X203200Y444500D03*
X177800Y444500D03*
X152400Y444500D03*
X127000Y444500D03*
X419100Y419100D03*
X393700Y419100D03*
X368300Y419100D03*
X342900Y419100D03*
X317500Y419100D03*
X292100Y419100D03*
X419100Y444500D03*
X393700Y444500D03*
X368300Y444500D03*
X342900Y444500D03*
X317500Y444500D03*
X292100Y444500D03*
X571500Y330200D03*
X571500Y355600D03*
X571500Y381000D03*
X444500Y444500D03*
X469900Y444500D03*
X495300Y444500D03*
X520700Y444500D03*
D15*
X442000Y163000D03*
D16*
X437007Y25400D03*
X426593Y25400D03*
D17*
X241300Y103200D03*
D18*
X241300Y303200D03*
D13*
X177800Y38100D03*
D16*
X513207Y25400D03*
X502793Y25400D03*
D19*
X258064Y85090D03*
X249936Y85090D03*
D10*
X668810Y130500D03*
X668810Y72700D03*
D11*
X627380Y7620D03*
X1196340Y450850D03*
D12*
X1178560Y431800D03*
X645160Y431800D03*
X1178560Y25400D03*
X645160Y25400D03*
D13*
X713740Y63500D03*
X739140Y63500D03*
D14*
X778510Y190500D03*
X778510Y203200D03*
X778510Y215900D03*
X778510Y228600D03*
X778510Y177800D03*
X765810Y190500D03*
X765810Y203200D03*
X765810Y215900D03*
X765810Y228600D03*
X765810Y177800D03*
D13*
X848360Y444500D03*
X822960Y444500D03*
X797560Y444500D03*
X772160Y444500D03*
X746760Y444500D03*
X1038860Y419100D03*
X1013460Y419100D03*
X988060Y419100D03*
X962660Y419100D03*
X937260Y419100D03*
X911860Y419100D03*
X1038860Y444500D03*
X1013460Y444500D03*
X988060Y444500D03*
X962660Y444500D03*
X937260Y444500D03*
X911860Y444500D03*
X1191260Y330200D03*
X1191260Y355600D03*
X1191260Y381000D03*
X1064260Y444500D03*
X1089660Y444500D03*
X1115060Y444500D03*
X1140460Y444500D03*
D15*
X1061760Y163000D03*
D16*
X1056767Y25400D03*
X1046353Y25400D03*
D17*
X861060Y103200D03*
D18*
X861060Y303200D03*
D13*
X797560Y38100D03*
D16*
X1132967Y25400D03*
X1122553Y25400D03*
D19*
X877824Y85090D03*
X869696Y85090D03*
D10*
X49050Y592780D03*
X49050Y534980D03*
D11*
X7620Y469900D03*
X576580Y913130D03*
D12*
X558800Y894080D03*
X25400Y894080D03*
X558800Y487680D03*
X25400Y487680D03*
D13*
X93980Y525780D03*
X119380Y525780D03*
D14*
X158750Y652780D03*
X158750Y665480D03*
X158750Y678180D03*
X158750Y690880D03*
X158750Y640080D03*
X146050Y652780D03*
X146050Y665480D03*
X146050Y678180D03*
X146050Y690880D03*
X146050Y640080D03*
D13*
X228600Y906780D03*
X203200Y906780D03*
X177800Y906780D03*
X152400Y906780D03*
X127000Y906780D03*
X419100Y881380D03*
X393700Y881380D03*
X368300Y881380D03*
X342900Y881380D03*
X317500Y881380D03*
X292100Y881380D03*
X419100Y906780D03*
X393700Y906780D03*
X368300Y906780D03*
X342900Y906780D03*
X317500Y906780D03*
X292100Y906780D03*
X571500Y792480D03*
X571500Y817880D03*
X571500Y843280D03*
X444500Y906780D03*
X469900Y906780D03*
X495300Y906780D03*
X520700Y906780D03*
D15*
X442000Y625280D03*
D16*
X437007Y487680D03*
X426593Y487680D03*
D17*
X241300Y565480D03*
D18*
X241300Y765480D03*
D13*
X177800Y500380D03*
D16*
X513207Y487680D03*
X502793Y487680D03*
D19*
X258064Y547370D03*
X249936Y547370D03*
D10*
X668810Y592780D03*
X668810Y534980D03*
D11*
X627380Y469900D03*
X1196340Y913130D03*
D12*
X1178560Y894080D03*
X645160Y894080D03*
X1178560Y487680D03*
X645160Y487680D03*
D13*
X713740Y525780D03*
X739140Y525780D03*
D14*
X778510Y652780D03*
X778510Y665480D03*
X778510Y678180D03*
X778510Y690880D03*
X778510Y640080D03*
X765810Y652780D03*
X765810Y665480D03*
X765810Y678180D03*
X765810Y690880D03*
X765810Y640080D03*
D13*
X848360Y906780D03*
X822960Y906780D03*
X797560Y906780D03*
X772160Y906780D03*
X746760Y906780D03*
X1038860Y881380D03*
X1013460Y881380D03*
X988060Y881380D03*
X962660Y881380D03*
X937260Y881380D03*
X911860Y881380D03*
X1038860Y906780D03*
X1013460Y906780D03*
X988060Y906780D03*
X962660Y906780D03*
X937260Y906780D03*
X911860Y906780D03*
X1191260Y792480D03*
X1191260Y817880D03*
X1191260Y843280D03*
X1064260Y906780D03*
X1089660Y906780D03*
X1115060Y906780D03*
X1140460Y906780D03*
D15*
X1061760Y625280D03*
D16*
X1056767Y487680D03*
X1046353Y487680D03*
D17*
X861060Y565480D03*
D18*
X861060Y765480D03*
D13*
X797560Y500380D03*
D16*
X1132967Y487680D03*
X1122553Y487680D03*
D19*
X877824Y547370D03*
X869696Y547370D03*
D10*
X49050Y1055060D03*
X49050Y997260D03*
D11*
X7620Y932180D03*
X576580Y1375410D03*
D12*
X558800Y1356360D03*
X25400Y1356360D03*
X558800Y949960D03*
X25400Y949960D03*
D13*
X93980Y988060D03*
X119380Y988060D03*
D14*
X158750Y1115060D03*
X158750Y1127760D03*
X158750Y1140460D03*
X158750Y1153160D03*
X158750Y1102360D03*
X146050Y1115060D03*
X146050Y1127760D03*
X146050Y1140460D03*
X146050Y1153160D03*
X146050Y1102360D03*
D13*
X228600Y1369060D03*
X203200Y1369060D03*
X177800Y1369060D03*
X152400Y1369060D03*
X127000Y1369060D03*
X419100Y1343660D03*
X393700Y1343660D03*
X368300Y1343660D03*
X342900Y1343660D03*
X317500Y1343660D03*
X292100Y1343660D03*
X419100Y1369060D03*
X393700Y1369060D03*
X368300Y1369060D03*
X342900Y1369060D03*
X317500Y1369060D03*
X292100Y1369060D03*
X571500Y1254760D03*
X571500Y1280160D03*
X571500Y1305560D03*
X444500Y1369060D03*
X469900Y1369060D03*
X495300Y1369060D03*
X520700Y1369060D03*
D15*
X442000Y1087560D03*
D16*
X437007Y949960D03*
X426593Y949960D03*
D17*
X241300Y1027760D03*
D18*
X241300Y1227760D03*
D13*
X177800Y962660D03*
D16*
X513207Y949960D03*
X502793Y949960D03*
D19*
X258064Y1009650D03*
X249936Y1009650D03*
D10*
X668810Y1055060D03*
X668810Y997260D03*
D11*
X627380Y932180D03*
X1196340Y1375410D03*
D12*
X1178560Y1356360D03*
X645160Y1356360D03*
X1178560Y949960D03*
X645160Y949960D03*
D13*
X713740Y988060D03*
X739140Y988060D03*
D14*
X778510Y1115060D03*
X778510Y1127760D03*
X778510Y1140460D03*
X778510Y1153160D03*
X778510Y1102360D03*
X765810Y1115060D03*
X765810Y1127760D03*
X765810Y1140460D03*
X765810Y1153160D03*
X765810Y1102360D03*
D13*
X848360Y1369060D03*
X822960Y1369060D03*
X797560Y1369060D03*
X772160Y1369060D03*
X746760Y1369060D03*
X1038860Y1343660D03*
X1013460Y1343660D03*
X988060Y1343660D03*
X962660Y1343660D03*
X937260Y1343660D03*
X911860Y1343660D03*
X1038860Y1369060D03*
X1013460Y1369060D03*
X988060Y1369060D03*
X962660Y1369060D03*
X937260Y1369060D03*
X911860Y1369060D03*
X1191260Y1254760D03*
X1191260Y1280160D03*
X1191260Y1305560D03*
X1064260Y1369060D03*
X1089660Y1369060D03*
X1115060Y1369060D03*
X1140460Y1369060D03*
D15*
X1061760Y1087560D03*
D16*
X1056767Y949960D03*
X1046353Y949960D03*
D17*
X861060Y1027760D03*
D18*
X861060Y1227760D03*
D13*
X797560Y962660D03*
D16*
X1132967Y949960D03*
X1122553Y949960D03*
D19*
X877824Y1009650D03*
X869696Y1009650D03*
D14*
X99060Y1402715D03*
X1195705Y1402715D03*
D20*
X90005Y-20955D02*
X90008Y-20733D01*
X90016Y-20511D01*
X90030Y-20289D01*
X90049Y-20067D01*
X90073Y-19847D01*
X90103Y-19626D01*
X90138Y-19407D01*
X90179Y-19188D01*
X90225Y-18971D01*
X90276Y-18755D01*
X90333Y-18540D01*
X90395Y-18326D01*
X90462Y-18115D01*
X90534Y-17904D01*
X90612Y-17696D01*
X90694Y-17490D01*
X90782Y-17286D01*
X90874Y-17083D01*
X90972Y-16884D01*
X91074Y-16687D01*
X91181Y-16492D01*
X91293Y-16300D01*
X91410Y-16111D01*
X91531Y-15924D01*
X91657Y-15741D01*
X91787Y-15561D01*
X91922Y-15384D01*
X92060Y-15211D01*
X92203Y-15041D01*
X92351Y-14874D01*
X92502Y-14711D01*
X92657Y-14552D01*
X92816Y-14397D01*
X92979Y-14246D01*
X93146Y-14098D01*
X93316Y-13955D01*
X93489Y-13817D01*
X93666Y-13682D01*
X93846Y-13552D01*
X94029Y-13426D01*
X94216Y-13305D01*
X94405Y-13188D01*
X94597Y-13076D01*
X94792Y-12969D01*
X94989Y-12867D01*
X95188Y-12769D01*
X95391Y-12677D01*
X95595Y-12589D01*
X95801Y-12507D01*
X96009Y-12429D01*
X96220Y-12357D01*
X96431Y-12290D01*
X96645Y-12228D01*
X96860Y-12171D01*
X97076Y-12120D01*
X97293Y-12074D01*
X97512Y-12033D01*
X97731Y-11998D01*
X97952Y-11968D01*
X98172Y-11944D01*
X98394Y-11925D01*
X98616Y-11911D01*
X98838Y-11903D01*
X99060Y-11900D01*
X99282Y-11903D01*
X99504Y-11911D01*
X99726Y-11925D01*
X99948Y-11944D01*
X100168Y-11968D01*
X100389Y-11998D01*
X100608Y-12033D01*
X100827Y-12074D01*
X101044Y-12120D01*
X101260Y-12171D01*
X101475Y-12228D01*
X101689Y-12290D01*
X101900Y-12357D01*
X102111Y-12429D01*
X102319Y-12507D01*
X102525Y-12589D01*
X102729Y-12677D01*
X102932Y-12769D01*
X103131Y-12867D01*
X103328Y-12969D01*
X103523Y-13076D01*
X103715Y-13188D01*
X103904Y-13305D01*
X104091Y-13426D01*
X104274Y-13552D01*
X104454Y-13682D01*
X104631Y-13817D01*
X104804Y-13955D01*
X104974Y-14098D01*
X105141Y-14246D01*
X105304Y-14397D01*
X105463Y-14552D01*
X105618Y-14711D01*
X105769Y-14874D01*
X105917Y-15041D01*
X106060Y-15211D01*
X106198Y-15384D01*
X106333Y-15561D01*
X106463Y-15741D01*
X106589Y-15924D01*
X106710Y-16111D01*
X106827Y-16300D01*
X106939Y-16492D01*
X107046Y-16687D01*
X107148Y-16884D01*
X107246Y-17083D01*
X107338Y-17286D01*
X107426Y-17490D01*
X107508Y-17696D01*
X107586Y-17904D01*
X107658Y-18115D01*
X107725Y-18326D01*
X107787Y-18540D01*
X107844Y-18755D01*
X107895Y-18971D01*
X107941Y-19188D01*
X107982Y-19407D01*
X108017Y-19626D01*
X108047Y-19847D01*
X108071Y-20067D01*
X108090Y-20289D01*
X108104Y-20511D01*
X108112Y-20733D01*
X108115Y-20955D01*
X108112Y-21177D01*
X108104Y-21399D01*
X108090Y-21621D01*
X108071Y-21843D01*
X108047Y-22063D01*
X108017Y-22284D01*
X107982Y-22503D01*
X107941Y-22722D01*
X107895Y-22939D01*
X107844Y-23155D01*
X107787Y-23370D01*
X107725Y-23584D01*
X107658Y-23795D01*
X107586Y-24006D01*
X107508Y-24214D01*
X107426Y-24420D01*
X107338Y-24624D01*
X107246Y-24827D01*
X107148Y-25026D01*
X107046Y-25223D01*
X106939Y-25418D01*
X106827Y-25610D01*
X106710Y-25799D01*
X106589Y-25986D01*
X106463Y-26169D01*
X106333Y-26349D01*
X106198Y-26526D01*
X106060Y-26699D01*
X105917Y-26869D01*
X105769Y-27036D01*
X105618Y-27199D01*
X105463Y-27358D01*
X105304Y-27513D01*
X105141Y-27664D01*
X104974Y-27812D01*
X104804Y-27955D01*
X104631Y-28093D01*
X104454Y-28228D01*
X104274Y-28358D01*
X104091Y-28484D01*
X103904Y-28605D01*
X103715Y-28722D01*
X103523Y-28834D01*
X103328Y-28941D01*
X103131Y-29043D01*
X102932Y-29141D01*
X102729Y-29233D01*
X102525Y-29321D01*
X102319Y-29403D01*
X102111Y-29481D01*
X101900Y-29553D01*
X101689Y-29620D01*
X101475Y-29682D01*
X101260Y-29739D01*
X101044Y-29790D01*
X100827Y-29836D01*
X100608Y-29877D01*
X100389Y-29912D01*
X100168Y-29942D01*
X99948Y-29966D01*
X99726Y-29985D01*
X99504Y-29999D01*
X99282Y-30007D01*
X99060Y-30010D01*
X98838Y-30007D01*
X98616Y-29999D01*
X98394Y-29985D01*
X98172Y-29966D01*
X97952Y-29942D01*
X97731Y-29912D01*
X97512Y-29877D01*
X97293Y-29836D01*
X97076Y-29790D01*
X96860Y-29739D01*
X96645Y-29682D01*
X96431Y-29620D01*
X96220Y-29553D01*
X96009Y-29481D01*
X95801Y-29403D01*
X95595Y-29321D01*
X95391Y-29233D01*
X95188Y-29141D01*
X94989Y-29043D01*
X94792Y-28941D01*
X94597Y-28834D01*
X94405Y-28722D01*
X94216Y-28605D01*
X94029Y-28484D01*
X93846Y-28358D01*
X93666Y-28228D01*
X93489Y-28093D01*
X93316Y-27955D01*
X93146Y-27812D01*
X92979Y-27664D01*
X92816Y-27513D01*
X92657Y-27358D01*
X92502Y-27199D01*
X92351Y-27036D01*
X92203Y-26869D01*
X92060Y-26699D01*
X91922Y-26526D01*
X91787Y-26349D01*
X91657Y-26169D01*
X91531Y-25986D01*
X91410Y-25799D01*
X91293Y-25610D01*
X91181Y-25418D01*
X91074Y-25223D01*
X90972Y-25026D01*
X90874Y-24827D01*
X90782Y-24624D01*
X90694Y-24420D01*
X90612Y-24214D01*
X90534Y-24006D01*
X90462Y-23795D01*
X90395Y-23584D01*
X90333Y-23370D01*
X90276Y-23155D01*
X90225Y-22939D01*
X90179Y-22722D01*
X90138Y-22503D01*
X90103Y-22284D01*
X90073Y-22063D01*
X90049Y-21843D01*
X90030Y-21621D01*
X90016Y-21399D01*
X90008Y-21177D01*
X90005Y-20955D01*
D21*
X99060Y-20955D03*
M02*
