G04 EAGLE Gerber RS-274X export*
G75*
%MOMM*%
%FSLAX34Y34*%
%LPD*%
%INSolderpaste Top*%
%IPPOS*%
%AMOC8*
5,1,8,0,0,1.08239X$1,22.5*%
G01*
%ADD10R,1.000000X0.300000*%
%ADD11R,1.000000X0.600000*%
%ADD12R,1.000000X1.100000*%
%ADD13R,1.375000X0.800000*%
%ADD14R,0.300000X0.650000*%
%ADD15R,1.100000X1.000000*%
%ADD16R,2.000000X1.200000*%
%ADD17R,1.350000X0.600000*%
%ADD18R,1.524000X0.762000*%
%ADD19R,1.000000X2.800000*%
%ADD20R,1.400000X1.600000*%
%ADD21R,1.400000X1.800000*%
%ADD22R,1.900000X1.400000*%
%ADD23R,1.500000X0.800000*%
%ADD24R,0.830000X0.630000*%
%ADD25C,0.300000*%
%ADD26R,2.750000X1.200000*%
%ADD27R,1.750000X0.300000*%
%ADD28R,2.400000X0.250000*%
%ADD29C,1.900000*%
%ADD30R,0.630000X0.830000*%

G36*
X438059Y1057071D02*
X438059Y1057071D01*
X438104Y1057072D01*
X438155Y1057094D01*
X438210Y1057107D01*
X438246Y1057133D01*
X438286Y1057151D01*
X438325Y1057192D01*
X438370Y1057225D01*
X438393Y1057263D01*
X438423Y1057295D01*
X438443Y1057348D01*
X438472Y1057396D01*
X438480Y1057447D01*
X438493Y1057481D01*
X438492Y1057515D01*
X438499Y1057560D01*
X438499Y1068560D01*
X438489Y1068613D01*
X438488Y1068666D01*
X438469Y1068709D01*
X438460Y1068755D01*
X438429Y1068799D01*
X438408Y1068848D01*
X438374Y1068880D01*
X438347Y1068919D01*
X438302Y1068948D01*
X438263Y1068984D01*
X438212Y1069005D01*
X438180Y1069026D01*
X438148Y1069031D01*
X438109Y1069047D01*
X435374Y1069658D01*
X432810Y1070686D01*
X430446Y1072113D01*
X428342Y1073902D01*
X426553Y1076006D01*
X425126Y1078370D01*
X424098Y1080934D01*
X423487Y1083669D01*
X423465Y1083718D01*
X423453Y1083770D01*
X423425Y1083808D01*
X423406Y1083850D01*
X423367Y1083887D01*
X423335Y1083930D01*
X423295Y1083954D01*
X423261Y1083986D01*
X423210Y1084004D01*
X423164Y1084032D01*
X423110Y1084041D01*
X423074Y1084054D01*
X423042Y1084052D01*
X423000Y1084059D01*
X412000Y1084059D01*
X411945Y1084048D01*
X411889Y1084047D01*
X411848Y1084028D01*
X411805Y1084020D01*
X411759Y1083988D01*
X411708Y1083965D01*
X411678Y1083932D01*
X411641Y1083907D01*
X411611Y1083860D01*
X411573Y1083818D01*
X411558Y1083777D01*
X411534Y1083740D01*
X411525Y1083684D01*
X411506Y1083631D01*
X411507Y1083579D01*
X411501Y1083543D01*
X411509Y1083511D01*
X411509Y1083506D01*
X411509Y1083504D01*
X411509Y1083503D01*
X411510Y1083465D01*
X412349Y1079144D01*
X412361Y1079115D01*
X412369Y1079073D01*
X413838Y1074923D01*
X413854Y1074896D01*
X413868Y1074856D01*
X415934Y1070969D01*
X415954Y1070945D01*
X415973Y1070907D01*
X418591Y1067368D01*
X418615Y1067347D01*
X418640Y1067312D01*
X421752Y1064200D01*
X421767Y1064190D01*
X421775Y1064179D01*
X421790Y1064170D01*
X421808Y1064151D01*
X425347Y1061533D01*
X425375Y1061520D01*
X425409Y1061494D01*
X429296Y1059428D01*
X429326Y1059419D01*
X429363Y1059398D01*
X433513Y1057929D01*
X433544Y1057924D01*
X433584Y1057909D01*
X437905Y1057070D01*
X437961Y1057070D01*
X438017Y1057061D01*
X438059Y1057071D01*
G37*
G36*
X1057819Y1057071D02*
X1057819Y1057071D01*
X1057864Y1057072D01*
X1057915Y1057094D01*
X1057970Y1057107D01*
X1058006Y1057133D01*
X1058046Y1057151D01*
X1058085Y1057192D01*
X1058130Y1057225D01*
X1058153Y1057263D01*
X1058183Y1057295D01*
X1058203Y1057348D01*
X1058232Y1057396D01*
X1058240Y1057447D01*
X1058253Y1057481D01*
X1058252Y1057515D01*
X1058259Y1057560D01*
X1058259Y1068560D01*
X1058249Y1068613D01*
X1058248Y1068666D01*
X1058229Y1068709D01*
X1058220Y1068755D01*
X1058189Y1068799D01*
X1058168Y1068848D01*
X1058134Y1068880D01*
X1058107Y1068919D01*
X1058062Y1068948D01*
X1058023Y1068984D01*
X1057972Y1069005D01*
X1057940Y1069026D01*
X1057908Y1069031D01*
X1057869Y1069047D01*
X1055134Y1069658D01*
X1052570Y1070686D01*
X1050206Y1072113D01*
X1048102Y1073902D01*
X1046313Y1076006D01*
X1044886Y1078370D01*
X1043858Y1080934D01*
X1043247Y1083669D01*
X1043225Y1083718D01*
X1043213Y1083770D01*
X1043185Y1083808D01*
X1043166Y1083850D01*
X1043127Y1083887D01*
X1043095Y1083930D01*
X1043055Y1083954D01*
X1043021Y1083986D01*
X1042970Y1084004D01*
X1042924Y1084032D01*
X1042870Y1084041D01*
X1042834Y1084054D01*
X1042802Y1084052D01*
X1042760Y1084059D01*
X1031760Y1084059D01*
X1031705Y1084048D01*
X1031649Y1084047D01*
X1031608Y1084028D01*
X1031565Y1084020D01*
X1031519Y1083988D01*
X1031468Y1083965D01*
X1031438Y1083932D01*
X1031401Y1083907D01*
X1031371Y1083860D01*
X1031333Y1083818D01*
X1031318Y1083777D01*
X1031294Y1083740D01*
X1031285Y1083684D01*
X1031266Y1083631D01*
X1031267Y1083579D01*
X1031261Y1083543D01*
X1031269Y1083511D01*
X1031269Y1083506D01*
X1031269Y1083504D01*
X1031269Y1083503D01*
X1031270Y1083465D01*
X1032109Y1079144D01*
X1032121Y1079115D01*
X1032129Y1079073D01*
X1033598Y1074923D01*
X1033614Y1074896D01*
X1033628Y1074856D01*
X1035694Y1070969D01*
X1035714Y1070945D01*
X1035733Y1070907D01*
X1038351Y1067368D01*
X1038375Y1067347D01*
X1038400Y1067312D01*
X1041512Y1064200D01*
X1041527Y1064190D01*
X1041535Y1064179D01*
X1041550Y1064170D01*
X1041568Y1064151D01*
X1045107Y1061533D01*
X1045135Y1061520D01*
X1045169Y1061494D01*
X1049056Y1059428D01*
X1049086Y1059419D01*
X1049123Y1059398D01*
X1053273Y1057929D01*
X1053304Y1057924D01*
X1053344Y1057909D01*
X1057665Y1057070D01*
X1057721Y1057070D01*
X1057777Y1057061D01*
X1057819Y1057071D01*
G37*
G36*
X1057819Y132511D02*
X1057819Y132511D01*
X1057864Y132512D01*
X1057915Y132534D01*
X1057970Y132547D01*
X1058006Y132573D01*
X1058046Y132591D01*
X1058085Y132632D01*
X1058130Y132665D01*
X1058153Y132703D01*
X1058183Y132735D01*
X1058203Y132788D01*
X1058232Y132836D01*
X1058240Y132887D01*
X1058253Y132921D01*
X1058252Y132955D01*
X1058259Y133000D01*
X1058259Y144000D01*
X1058249Y144053D01*
X1058248Y144106D01*
X1058229Y144149D01*
X1058220Y144195D01*
X1058189Y144239D01*
X1058168Y144288D01*
X1058134Y144320D01*
X1058107Y144359D01*
X1058062Y144388D01*
X1058023Y144424D01*
X1057972Y144445D01*
X1057940Y144466D01*
X1057908Y144471D01*
X1057869Y144487D01*
X1055134Y145098D01*
X1052570Y146126D01*
X1050206Y147553D01*
X1048102Y149342D01*
X1046313Y151446D01*
X1044886Y153810D01*
X1043858Y156374D01*
X1043247Y159109D01*
X1043225Y159158D01*
X1043213Y159210D01*
X1043185Y159248D01*
X1043166Y159290D01*
X1043127Y159327D01*
X1043095Y159370D01*
X1043055Y159394D01*
X1043021Y159426D01*
X1042970Y159444D01*
X1042924Y159472D01*
X1042870Y159481D01*
X1042834Y159494D01*
X1042802Y159492D01*
X1042760Y159499D01*
X1031760Y159499D01*
X1031705Y159488D01*
X1031649Y159487D01*
X1031608Y159468D01*
X1031565Y159460D01*
X1031519Y159428D01*
X1031468Y159405D01*
X1031438Y159372D01*
X1031401Y159347D01*
X1031371Y159300D01*
X1031333Y159258D01*
X1031318Y159217D01*
X1031294Y159180D01*
X1031285Y159124D01*
X1031266Y159071D01*
X1031267Y159019D01*
X1031261Y158983D01*
X1031269Y158951D01*
X1031269Y158946D01*
X1031269Y158944D01*
X1031269Y158943D01*
X1031270Y158905D01*
X1032109Y154584D01*
X1032121Y154555D01*
X1032129Y154513D01*
X1033598Y150363D01*
X1033614Y150336D01*
X1033628Y150296D01*
X1035694Y146409D01*
X1035714Y146385D01*
X1035733Y146347D01*
X1038351Y142808D01*
X1038375Y142787D01*
X1038400Y142752D01*
X1041512Y139640D01*
X1041527Y139630D01*
X1041535Y139619D01*
X1041550Y139610D01*
X1041568Y139591D01*
X1045107Y136973D01*
X1045135Y136960D01*
X1045169Y136934D01*
X1049056Y134868D01*
X1049086Y134859D01*
X1049123Y134838D01*
X1053273Y133369D01*
X1053304Y133364D01*
X1053344Y133349D01*
X1057665Y132510D01*
X1057721Y132510D01*
X1057777Y132501D01*
X1057819Y132511D01*
G37*
G36*
X438059Y132511D02*
X438059Y132511D01*
X438104Y132512D01*
X438155Y132534D01*
X438210Y132547D01*
X438246Y132573D01*
X438286Y132591D01*
X438325Y132632D01*
X438370Y132665D01*
X438393Y132703D01*
X438423Y132735D01*
X438443Y132788D01*
X438472Y132836D01*
X438480Y132887D01*
X438493Y132921D01*
X438492Y132955D01*
X438499Y133000D01*
X438499Y144000D01*
X438489Y144053D01*
X438488Y144106D01*
X438469Y144149D01*
X438460Y144195D01*
X438429Y144239D01*
X438408Y144288D01*
X438374Y144320D01*
X438347Y144359D01*
X438302Y144388D01*
X438263Y144424D01*
X438212Y144445D01*
X438180Y144466D01*
X438148Y144471D01*
X438109Y144487D01*
X435374Y145098D01*
X432810Y146126D01*
X430446Y147553D01*
X428342Y149342D01*
X426553Y151446D01*
X425126Y153810D01*
X424098Y156374D01*
X423487Y159109D01*
X423465Y159158D01*
X423453Y159210D01*
X423425Y159248D01*
X423406Y159290D01*
X423367Y159327D01*
X423335Y159370D01*
X423295Y159394D01*
X423261Y159426D01*
X423210Y159444D01*
X423164Y159472D01*
X423110Y159481D01*
X423074Y159494D01*
X423042Y159492D01*
X423000Y159499D01*
X412000Y159499D01*
X411945Y159488D01*
X411889Y159487D01*
X411848Y159468D01*
X411805Y159460D01*
X411759Y159428D01*
X411708Y159405D01*
X411678Y159372D01*
X411641Y159347D01*
X411611Y159300D01*
X411573Y159258D01*
X411558Y159217D01*
X411534Y159180D01*
X411525Y159124D01*
X411506Y159071D01*
X411507Y159019D01*
X411501Y158983D01*
X411509Y158951D01*
X411509Y158946D01*
X411509Y158944D01*
X411509Y158943D01*
X411510Y158905D01*
X412349Y154584D01*
X412361Y154555D01*
X412369Y154513D01*
X413838Y150363D01*
X413854Y150336D01*
X413868Y150296D01*
X415934Y146409D01*
X415954Y146385D01*
X415973Y146347D01*
X418591Y142808D01*
X418615Y142787D01*
X418640Y142752D01*
X421752Y139640D01*
X421767Y139630D01*
X421775Y139619D01*
X421790Y139610D01*
X421808Y139591D01*
X425347Y136973D01*
X425375Y136960D01*
X425409Y136934D01*
X429296Y134868D01*
X429326Y134859D01*
X429363Y134838D01*
X433513Y133369D01*
X433544Y133364D01*
X433584Y133349D01*
X437905Y132510D01*
X437961Y132510D01*
X438017Y132501D01*
X438059Y132511D01*
G37*
G36*
X1057819Y594791D02*
X1057819Y594791D01*
X1057864Y594792D01*
X1057915Y594814D01*
X1057970Y594827D01*
X1058006Y594853D01*
X1058046Y594871D01*
X1058085Y594912D01*
X1058130Y594945D01*
X1058153Y594983D01*
X1058183Y595015D01*
X1058203Y595068D01*
X1058232Y595116D01*
X1058240Y595167D01*
X1058253Y595201D01*
X1058252Y595235D01*
X1058259Y595280D01*
X1058259Y606280D01*
X1058249Y606333D01*
X1058248Y606386D01*
X1058229Y606429D01*
X1058220Y606475D01*
X1058189Y606519D01*
X1058168Y606568D01*
X1058134Y606600D01*
X1058107Y606639D01*
X1058062Y606668D01*
X1058023Y606704D01*
X1057972Y606725D01*
X1057940Y606746D01*
X1057908Y606751D01*
X1057869Y606767D01*
X1055134Y607378D01*
X1052570Y608406D01*
X1050206Y609833D01*
X1048102Y611622D01*
X1046313Y613726D01*
X1044886Y616090D01*
X1043858Y618654D01*
X1043247Y621389D01*
X1043225Y621438D01*
X1043213Y621490D01*
X1043185Y621528D01*
X1043166Y621570D01*
X1043127Y621607D01*
X1043095Y621650D01*
X1043055Y621674D01*
X1043021Y621706D01*
X1042970Y621724D01*
X1042924Y621752D01*
X1042870Y621761D01*
X1042834Y621774D01*
X1042802Y621772D01*
X1042760Y621779D01*
X1031760Y621779D01*
X1031705Y621768D01*
X1031649Y621767D01*
X1031608Y621748D01*
X1031565Y621740D01*
X1031519Y621708D01*
X1031468Y621685D01*
X1031438Y621652D01*
X1031401Y621627D01*
X1031371Y621580D01*
X1031333Y621538D01*
X1031318Y621497D01*
X1031294Y621460D01*
X1031285Y621404D01*
X1031266Y621351D01*
X1031267Y621299D01*
X1031261Y621263D01*
X1031269Y621231D01*
X1031269Y621226D01*
X1031269Y621224D01*
X1031269Y621223D01*
X1031270Y621185D01*
X1032109Y616864D01*
X1032121Y616835D01*
X1032129Y616793D01*
X1033598Y612643D01*
X1033614Y612616D01*
X1033628Y612576D01*
X1035694Y608689D01*
X1035714Y608665D01*
X1035733Y608627D01*
X1038351Y605088D01*
X1038375Y605067D01*
X1038400Y605032D01*
X1041512Y601920D01*
X1041527Y601910D01*
X1041535Y601899D01*
X1041550Y601890D01*
X1041568Y601871D01*
X1045107Y599253D01*
X1045135Y599240D01*
X1045169Y599214D01*
X1049056Y597148D01*
X1049086Y597139D01*
X1049123Y597118D01*
X1053273Y595649D01*
X1053304Y595644D01*
X1053344Y595629D01*
X1057665Y594790D01*
X1057721Y594790D01*
X1057777Y594781D01*
X1057819Y594791D01*
G37*
G36*
X438059Y594791D02*
X438059Y594791D01*
X438104Y594792D01*
X438155Y594814D01*
X438210Y594827D01*
X438246Y594853D01*
X438286Y594871D01*
X438325Y594912D01*
X438370Y594945D01*
X438393Y594983D01*
X438423Y595015D01*
X438443Y595068D01*
X438472Y595116D01*
X438480Y595167D01*
X438493Y595201D01*
X438492Y595235D01*
X438499Y595280D01*
X438499Y606280D01*
X438489Y606333D01*
X438488Y606386D01*
X438469Y606429D01*
X438460Y606475D01*
X438429Y606519D01*
X438408Y606568D01*
X438374Y606600D01*
X438347Y606639D01*
X438302Y606668D01*
X438263Y606704D01*
X438212Y606725D01*
X438180Y606746D01*
X438148Y606751D01*
X438109Y606767D01*
X435374Y607378D01*
X432810Y608406D01*
X430446Y609833D01*
X428342Y611622D01*
X426553Y613726D01*
X425126Y616090D01*
X424098Y618654D01*
X423487Y621389D01*
X423465Y621438D01*
X423453Y621490D01*
X423425Y621528D01*
X423406Y621570D01*
X423367Y621607D01*
X423335Y621650D01*
X423295Y621674D01*
X423261Y621706D01*
X423210Y621724D01*
X423164Y621752D01*
X423110Y621761D01*
X423074Y621774D01*
X423042Y621772D01*
X423000Y621779D01*
X412000Y621779D01*
X411945Y621768D01*
X411889Y621767D01*
X411848Y621748D01*
X411805Y621740D01*
X411759Y621708D01*
X411708Y621685D01*
X411678Y621652D01*
X411641Y621627D01*
X411611Y621580D01*
X411573Y621538D01*
X411558Y621497D01*
X411534Y621460D01*
X411525Y621404D01*
X411506Y621351D01*
X411507Y621299D01*
X411501Y621263D01*
X411509Y621231D01*
X411509Y621226D01*
X411509Y621224D01*
X411509Y621223D01*
X411510Y621185D01*
X412349Y616864D01*
X412361Y616835D01*
X412369Y616793D01*
X413838Y612643D01*
X413854Y612616D01*
X413868Y612576D01*
X415934Y608689D01*
X415954Y608665D01*
X415973Y608627D01*
X418591Y605088D01*
X418615Y605067D01*
X418640Y605032D01*
X421752Y601920D01*
X421767Y601910D01*
X421775Y601899D01*
X421790Y601890D01*
X421808Y601871D01*
X425347Y599253D01*
X425375Y599240D01*
X425409Y599214D01*
X429296Y597148D01*
X429326Y597139D01*
X429363Y597118D01*
X433513Y595649D01*
X433544Y595644D01*
X433584Y595629D01*
X437905Y594790D01*
X437961Y594790D01*
X438017Y594781D01*
X438059Y594791D01*
G37*
G36*
X1042813Y1091071D02*
X1042813Y1091071D01*
X1042866Y1091072D01*
X1042909Y1091091D01*
X1042955Y1091100D01*
X1042999Y1091131D01*
X1043048Y1091152D01*
X1043080Y1091186D01*
X1043119Y1091213D01*
X1043148Y1091258D01*
X1043184Y1091297D01*
X1043205Y1091348D01*
X1043226Y1091380D01*
X1043231Y1091412D01*
X1043247Y1091451D01*
X1043858Y1094186D01*
X1044886Y1096750D01*
X1046313Y1099114D01*
X1048102Y1101218D01*
X1050206Y1103007D01*
X1052570Y1104434D01*
X1055134Y1105462D01*
X1057869Y1106073D01*
X1057918Y1106095D01*
X1057970Y1106107D01*
X1058008Y1106135D01*
X1058050Y1106154D01*
X1058087Y1106193D01*
X1058130Y1106225D01*
X1058154Y1106265D01*
X1058186Y1106299D01*
X1058204Y1106350D01*
X1058232Y1106396D01*
X1058241Y1106450D01*
X1058254Y1106486D01*
X1058252Y1106518D01*
X1058259Y1106560D01*
X1058259Y1117560D01*
X1058248Y1117615D01*
X1058247Y1117671D01*
X1058228Y1117712D01*
X1058220Y1117755D01*
X1058188Y1117801D01*
X1058165Y1117853D01*
X1058132Y1117882D01*
X1058107Y1117919D01*
X1058060Y1117949D01*
X1058018Y1117987D01*
X1057977Y1118002D01*
X1057940Y1118026D01*
X1057884Y1118035D01*
X1057831Y1118054D01*
X1057779Y1118053D01*
X1057743Y1118059D01*
X1057711Y1118051D01*
X1057665Y1118050D01*
X1053344Y1117211D01*
X1053315Y1117199D01*
X1053273Y1117191D01*
X1049123Y1115722D01*
X1049096Y1115706D01*
X1049056Y1115692D01*
X1045169Y1113626D01*
X1045145Y1113606D01*
X1045107Y1113587D01*
X1041568Y1110969D01*
X1041547Y1110945D01*
X1041512Y1110920D01*
X1038400Y1107808D01*
X1038382Y1107782D01*
X1038351Y1107752D01*
X1035733Y1104214D01*
X1035720Y1104185D01*
X1035694Y1104151D01*
X1033628Y1100264D01*
X1033621Y1100241D01*
X1033612Y1100227D01*
X1033611Y1100219D01*
X1033598Y1100197D01*
X1032129Y1096047D01*
X1032124Y1096016D01*
X1032109Y1095976D01*
X1031270Y1091655D01*
X1031270Y1091599D01*
X1031261Y1091543D01*
X1031271Y1091501D01*
X1031272Y1091456D01*
X1031294Y1091405D01*
X1031307Y1091350D01*
X1031333Y1091315D01*
X1031351Y1091274D01*
X1031392Y1091235D01*
X1031425Y1091190D01*
X1031463Y1091167D01*
X1031495Y1091137D01*
X1031548Y1091117D01*
X1031596Y1091088D01*
X1031647Y1091080D01*
X1031681Y1091067D01*
X1031715Y1091068D01*
X1031760Y1091061D01*
X1042760Y1091061D01*
X1042813Y1091071D01*
G37*
G36*
X423053Y1091071D02*
X423053Y1091071D01*
X423106Y1091072D01*
X423149Y1091091D01*
X423195Y1091100D01*
X423239Y1091131D01*
X423288Y1091152D01*
X423320Y1091186D01*
X423359Y1091213D01*
X423388Y1091258D01*
X423424Y1091297D01*
X423445Y1091348D01*
X423466Y1091380D01*
X423471Y1091412D01*
X423487Y1091451D01*
X424098Y1094186D01*
X425126Y1096750D01*
X426553Y1099114D01*
X428342Y1101218D01*
X430446Y1103007D01*
X432810Y1104434D01*
X435374Y1105462D01*
X438109Y1106073D01*
X438158Y1106095D01*
X438210Y1106107D01*
X438248Y1106135D01*
X438290Y1106154D01*
X438327Y1106193D01*
X438370Y1106225D01*
X438394Y1106265D01*
X438426Y1106299D01*
X438444Y1106350D01*
X438472Y1106396D01*
X438481Y1106450D01*
X438494Y1106486D01*
X438492Y1106518D01*
X438499Y1106560D01*
X438499Y1117560D01*
X438488Y1117615D01*
X438487Y1117671D01*
X438468Y1117712D01*
X438460Y1117755D01*
X438428Y1117801D01*
X438405Y1117853D01*
X438372Y1117882D01*
X438347Y1117919D01*
X438300Y1117949D01*
X438258Y1117987D01*
X438217Y1118002D01*
X438180Y1118026D01*
X438124Y1118035D01*
X438071Y1118054D01*
X438019Y1118053D01*
X437983Y1118059D01*
X437951Y1118051D01*
X437905Y1118050D01*
X433584Y1117211D01*
X433555Y1117199D01*
X433513Y1117191D01*
X429363Y1115722D01*
X429336Y1115706D01*
X429296Y1115692D01*
X425409Y1113626D01*
X425385Y1113606D01*
X425347Y1113587D01*
X421808Y1110969D01*
X421787Y1110945D01*
X421752Y1110920D01*
X418640Y1107808D01*
X418622Y1107782D01*
X418591Y1107752D01*
X415973Y1104214D01*
X415960Y1104185D01*
X415934Y1104151D01*
X413868Y1100264D01*
X413861Y1100241D01*
X413852Y1100227D01*
X413851Y1100219D01*
X413838Y1100197D01*
X412369Y1096047D01*
X412364Y1096016D01*
X412349Y1095976D01*
X411510Y1091655D01*
X411510Y1091599D01*
X411501Y1091543D01*
X411511Y1091501D01*
X411512Y1091456D01*
X411534Y1091405D01*
X411547Y1091350D01*
X411573Y1091315D01*
X411591Y1091274D01*
X411632Y1091235D01*
X411665Y1091190D01*
X411703Y1091167D01*
X411735Y1091137D01*
X411788Y1091117D01*
X411836Y1091088D01*
X411887Y1091080D01*
X411921Y1091067D01*
X411955Y1091068D01*
X412000Y1091061D01*
X423000Y1091061D01*
X423053Y1091071D01*
G37*
G36*
X423053Y166511D02*
X423053Y166511D01*
X423106Y166512D01*
X423149Y166531D01*
X423195Y166540D01*
X423239Y166571D01*
X423288Y166592D01*
X423320Y166626D01*
X423359Y166653D01*
X423388Y166698D01*
X423424Y166737D01*
X423445Y166788D01*
X423466Y166820D01*
X423471Y166852D01*
X423487Y166891D01*
X424098Y169626D01*
X425126Y172190D01*
X426553Y174554D01*
X428342Y176658D01*
X430446Y178447D01*
X432810Y179874D01*
X435374Y180902D01*
X438109Y181513D01*
X438158Y181535D01*
X438210Y181547D01*
X438248Y181575D01*
X438290Y181594D01*
X438327Y181633D01*
X438370Y181665D01*
X438394Y181705D01*
X438426Y181739D01*
X438444Y181790D01*
X438472Y181836D01*
X438481Y181890D01*
X438494Y181926D01*
X438492Y181958D01*
X438499Y182000D01*
X438499Y193000D01*
X438488Y193055D01*
X438487Y193111D01*
X438468Y193152D01*
X438460Y193195D01*
X438428Y193241D01*
X438405Y193293D01*
X438372Y193322D01*
X438347Y193359D01*
X438300Y193389D01*
X438258Y193427D01*
X438217Y193442D01*
X438180Y193466D01*
X438124Y193475D01*
X438071Y193494D01*
X438019Y193493D01*
X437983Y193499D01*
X437951Y193491D01*
X437905Y193490D01*
X433584Y192651D01*
X433555Y192639D01*
X433513Y192631D01*
X429363Y191162D01*
X429336Y191146D01*
X429296Y191132D01*
X425409Y189066D01*
X425385Y189046D01*
X425347Y189027D01*
X421808Y186409D01*
X421787Y186385D01*
X421752Y186360D01*
X418640Y183248D01*
X418622Y183222D01*
X418591Y183192D01*
X415973Y179654D01*
X415960Y179625D01*
X415934Y179591D01*
X413868Y175704D01*
X413861Y175681D01*
X413852Y175667D01*
X413851Y175659D01*
X413838Y175637D01*
X412369Y171487D01*
X412364Y171456D01*
X412349Y171416D01*
X411510Y167095D01*
X411510Y167039D01*
X411501Y166983D01*
X411511Y166941D01*
X411512Y166896D01*
X411534Y166845D01*
X411547Y166790D01*
X411573Y166755D01*
X411591Y166714D01*
X411632Y166675D01*
X411665Y166630D01*
X411703Y166607D01*
X411735Y166577D01*
X411788Y166557D01*
X411836Y166528D01*
X411887Y166520D01*
X411921Y166507D01*
X411955Y166508D01*
X412000Y166501D01*
X423000Y166501D01*
X423053Y166511D01*
G37*
G36*
X1042813Y166511D02*
X1042813Y166511D01*
X1042866Y166512D01*
X1042909Y166531D01*
X1042955Y166540D01*
X1042999Y166571D01*
X1043048Y166592D01*
X1043080Y166626D01*
X1043119Y166653D01*
X1043148Y166698D01*
X1043184Y166737D01*
X1043205Y166788D01*
X1043226Y166820D01*
X1043231Y166852D01*
X1043247Y166891D01*
X1043858Y169626D01*
X1044886Y172190D01*
X1046313Y174554D01*
X1048102Y176658D01*
X1050206Y178447D01*
X1052570Y179874D01*
X1055134Y180902D01*
X1057869Y181513D01*
X1057918Y181535D01*
X1057970Y181547D01*
X1058008Y181575D01*
X1058050Y181594D01*
X1058087Y181633D01*
X1058130Y181665D01*
X1058154Y181705D01*
X1058186Y181739D01*
X1058204Y181790D01*
X1058232Y181836D01*
X1058241Y181890D01*
X1058254Y181926D01*
X1058252Y181958D01*
X1058259Y182000D01*
X1058259Y193000D01*
X1058248Y193055D01*
X1058247Y193111D01*
X1058228Y193152D01*
X1058220Y193195D01*
X1058188Y193241D01*
X1058165Y193293D01*
X1058132Y193322D01*
X1058107Y193359D01*
X1058060Y193389D01*
X1058018Y193427D01*
X1057977Y193442D01*
X1057940Y193466D01*
X1057884Y193475D01*
X1057831Y193494D01*
X1057779Y193493D01*
X1057743Y193499D01*
X1057711Y193491D01*
X1057665Y193490D01*
X1053344Y192651D01*
X1053315Y192639D01*
X1053273Y192631D01*
X1049123Y191162D01*
X1049096Y191146D01*
X1049056Y191132D01*
X1045169Y189066D01*
X1045145Y189046D01*
X1045107Y189027D01*
X1041568Y186409D01*
X1041547Y186385D01*
X1041512Y186360D01*
X1038400Y183248D01*
X1038382Y183222D01*
X1038351Y183192D01*
X1035733Y179654D01*
X1035720Y179625D01*
X1035694Y179591D01*
X1033628Y175704D01*
X1033621Y175681D01*
X1033612Y175667D01*
X1033611Y175659D01*
X1033598Y175637D01*
X1032129Y171487D01*
X1032124Y171456D01*
X1032109Y171416D01*
X1031270Y167095D01*
X1031270Y167039D01*
X1031261Y166983D01*
X1031271Y166941D01*
X1031272Y166896D01*
X1031294Y166845D01*
X1031307Y166790D01*
X1031333Y166755D01*
X1031351Y166714D01*
X1031392Y166675D01*
X1031425Y166630D01*
X1031463Y166607D01*
X1031495Y166577D01*
X1031548Y166557D01*
X1031596Y166528D01*
X1031647Y166520D01*
X1031681Y166507D01*
X1031715Y166508D01*
X1031760Y166501D01*
X1042760Y166501D01*
X1042813Y166511D01*
G37*
G36*
X423053Y628791D02*
X423053Y628791D01*
X423106Y628792D01*
X423149Y628811D01*
X423195Y628820D01*
X423239Y628851D01*
X423288Y628872D01*
X423320Y628906D01*
X423359Y628933D01*
X423388Y628978D01*
X423424Y629017D01*
X423445Y629068D01*
X423466Y629100D01*
X423471Y629132D01*
X423487Y629171D01*
X424098Y631906D01*
X425126Y634470D01*
X426553Y636834D01*
X428342Y638938D01*
X430446Y640727D01*
X432810Y642154D01*
X435374Y643182D01*
X438109Y643793D01*
X438158Y643815D01*
X438210Y643827D01*
X438248Y643855D01*
X438290Y643874D01*
X438327Y643913D01*
X438370Y643945D01*
X438394Y643985D01*
X438426Y644019D01*
X438444Y644070D01*
X438472Y644116D01*
X438481Y644170D01*
X438494Y644206D01*
X438492Y644238D01*
X438499Y644280D01*
X438499Y655280D01*
X438488Y655335D01*
X438487Y655391D01*
X438468Y655432D01*
X438460Y655475D01*
X438428Y655521D01*
X438405Y655573D01*
X438372Y655602D01*
X438347Y655639D01*
X438300Y655669D01*
X438258Y655707D01*
X438217Y655722D01*
X438180Y655746D01*
X438124Y655755D01*
X438071Y655774D01*
X438019Y655773D01*
X437983Y655779D01*
X437951Y655771D01*
X437905Y655770D01*
X433584Y654931D01*
X433555Y654919D01*
X433513Y654911D01*
X429363Y653442D01*
X429336Y653426D01*
X429296Y653412D01*
X425409Y651346D01*
X425385Y651326D01*
X425347Y651307D01*
X421808Y648689D01*
X421787Y648665D01*
X421752Y648640D01*
X418640Y645528D01*
X418622Y645502D01*
X418591Y645472D01*
X415973Y641934D01*
X415960Y641905D01*
X415934Y641871D01*
X413868Y637984D01*
X413861Y637961D01*
X413852Y637947D01*
X413851Y637939D01*
X413838Y637917D01*
X412369Y633767D01*
X412364Y633736D01*
X412349Y633696D01*
X411510Y629375D01*
X411510Y629319D01*
X411501Y629263D01*
X411511Y629221D01*
X411512Y629176D01*
X411534Y629125D01*
X411547Y629070D01*
X411573Y629035D01*
X411591Y628994D01*
X411632Y628955D01*
X411665Y628910D01*
X411703Y628887D01*
X411735Y628857D01*
X411788Y628837D01*
X411836Y628808D01*
X411887Y628800D01*
X411921Y628787D01*
X411955Y628788D01*
X412000Y628781D01*
X423000Y628781D01*
X423053Y628791D01*
G37*
G36*
X1042813Y628791D02*
X1042813Y628791D01*
X1042866Y628792D01*
X1042909Y628811D01*
X1042955Y628820D01*
X1042999Y628851D01*
X1043048Y628872D01*
X1043080Y628906D01*
X1043119Y628933D01*
X1043148Y628978D01*
X1043184Y629017D01*
X1043205Y629068D01*
X1043226Y629100D01*
X1043231Y629132D01*
X1043247Y629171D01*
X1043858Y631906D01*
X1044886Y634470D01*
X1046313Y636834D01*
X1048102Y638938D01*
X1050206Y640727D01*
X1052570Y642154D01*
X1055134Y643182D01*
X1057869Y643793D01*
X1057918Y643815D01*
X1057970Y643827D01*
X1058008Y643855D01*
X1058050Y643874D01*
X1058087Y643913D01*
X1058130Y643945D01*
X1058154Y643985D01*
X1058186Y644019D01*
X1058204Y644070D01*
X1058232Y644116D01*
X1058241Y644170D01*
X1058254Y644206D01*
X1058252Y644238D01*
X1058259Y644280D01*
X1058259Y655280D01*
X1058248Y655335D01*
X1058247Y655391D01*
X1058228Y655432D01*
X1058220Y655475D01*
X1058188Y655521D01*
X1058165Y655573D01*
X1058132Y655602D01*
X1058107Y655639D01*
X1058060Y655669D01*
X1058018Y655707D01*
X1057977Y655722D01*
X1057940Y655746D01*
X1057884Y655755D01*
X1057831Y655774D01*
X1057779Y655773D01*
X1057743Y655779D01*
X1057711Y655771D01*
X1057665Y655770D01*
X1053344Y654931D01*
X1053315Y654919D01*
X1053273Y654911D01*
X1049123Y653442D01*
X1049096Y653426D01*
X1049056Y653412D01*
X1045169Y651346D01*
X1045145Y651326D01*
X1045107Y651307D01*
X1041568Y648689D01*
X1041547Y648665D01*
X1041512Y648640D01*
X1038400Y645528D01*
X1038382Y645502D01*
X1038351Y645472D01*
X1035733Y641934D01*
X1035720Y641905D01*
X1035694Y641871D01*
X1033628Y637984D01*
X1033621Y637961D01*
X1033612Y637947D01*
X1033611Y637939D01*
X1033598Y637917D01*
X1032129Y633767D01*
X1032124Y633736D01*
X1032109Y633696D01*
X1031270Y629375D01*
X1031270Y629319D01*
X1031261Y629263D01*
X1031271Y629221D01*
X1031272Y629176D01*
X1031294Y629125D01*
X1031307Y629070D01*
X1031333Y629035D01*
X1031351Y628994D01*
X1031392Y628955D01*
X1031425Y628910D01*
X1031463Y628887D01*
X1031495Y628857D01*
X1031548Y628837D01*
X1031596Y628808D01*
X1031647Y628800D01*
X1031681Y628787D01*
X1031715Y628788D01*
X1031760Y628781D01*
X1042760Y628781D01*
X1042813Y628791D01*
G37*
G36*
X1091815Y1091072D02*
X1091815Y1091072D01*
X1091871Y1091073D01*
X1091912Y1091092D01*
X1091955Y1091100D01*
X1092001Y1091132D01*
X1092053Y1091155D01*
X1092082Y1091188D01*
X1092119Y1091213D01*
X1092149Y1091260D01*
X1092187Y1091302D01*
X1092202Y1091343D01*
X1092226Y1091380D01*
X1092235Y1091436D01*
X1092254Y1091489D01*
X1092253Y1091541D01*
X1092259Y1091577D01*
X1092251Y1091609D01*
X1092250Y1091655D01*
X1091411Y1095976D01*
X1091399Y1096005D01*
X1091391Y1096047D01*
X1089922Y1100197D01*
X1089906Y1100224D01*
X1089897Y1100251D01*
X1089895Y1100257D01*
X1089894Y1100259D01*
X1089892Y1100264D01*
X1087826Y1104151D01*
X1087806Y1104175D01*
X1087787Y1104214D01*
X1085169Y1107752D01*
X1085145Y1107773D01*
X1085120Y1107808D01*
X1082008Y1110920D01*
X1081982Y1110938D01*
X1081952Y1110969D01*
X1078414Y1113587D01*
X1078385Y1113600D01*
X1078351Y1113626D01*
X1074464Y1115692D01*
X1074434Y1115701D01*
X1074397Y1115722D01*
X1070247Y1117191D01*
X1070216Y1117196D01*
X1070176Y1117211D01*
X1065855Y1118050D01*
X1065799Y1118050D01*
X1065743Y1118059D01*
X1065701Y1118049D01*
X1065656Y1118048D01*
X1065605Y1118026D01*
X1065550Y1118013D01*
X1065515Y1117987D01*
X1065474Y1117969D01*
X1065435Y1117928D01*
X1065390Y1117895D01*
X1065367Y1117857D01*
X1065337Y1117825D01*
X1065317Y1117772D01*
X1065288Y1117724D01*
X1065280Y1117673D01*
X1065267Y1117639D01*
X1065268Y1117605D01*
X1065261Y1117560D01*
X1065261Y1106560D01*
X1065271Y1106507D01*
X1065272Y1106454D01*
X1065291Y1106411D01*
X1065300Y1106365D01*
X1065331Y1106321D01*
X1065352Y1106272D01*
X1065386Y1106240D01*
X1065413Y1106201D01*
X1065458Y1106172D01*
X1065497Y1106136D01*
X1065548Y1106115D01*
X1065580Y1106094D01*
X1065612Y1106089D01*
X1065651Y1106073D01*
X1068386Y1105462D01*
X1070950Y1104434D01*
X1073314Y1103007D01*
X1075418Y1101218D01*
X1077207Y1099114D01*
X1078634Y1096750D01*
X1079662Y1094186D01*
X1080273Y1091451D01*
X1080295Y1091402D01*
X1080307Y1091350D01*
X1080335Y1091312D01*
X1080354Y1091270D01*
X1080393Y1091233D01*
X1080425Y1091190D01*
X1080465Y1091166D01*
X1080499Y1091134D01*
X1080550Y1091116D01*
X1080596Y1091088D01*
X1080650Y1091079D01*
X1080686Y1091066D01*
X1080718Y1091068D01*
X1080760Y1091061D01*
X1091760Y1091061D01*
X1091815Y1091072D01*
G37*
G36*
X472055Y1091072D02*
X472055Y1091072D01*
X472111Y1091073D01*
X472152Y1091092D01*
X472195Y1091100D01*
X472241Y1091132D01*
X472293Y1091155D01*
X472322Y1091188D01*
X472359Y1091213D01*
X472389Y1091260D01*
X472427Y1091302D01*
X472442Y1091343D01*
X472466Y1091380D01*
X472475Y1091436D01*
X472494Y1091489D01*
X472493Y1091541D01*
X472499Y1091577D01*
X472491Y1091609D01*
X472490Y1091655D01*
X471651Y1095976D01*
X471639Y1096005D01*
X471631Y1096047D01*
X470162Y1100197D01*
X470146Y1100224D01*
X470137Y1100251D01*
X470135Y1100257D01*
X470134Y1100259D01*
X470132Y1100264D01*
X468066Y1104151D01*
X468046Y1104175D01*
X468027Y1104214D01*
X465409Y1107752D01*
X465385Y1107773D01*
X465360Y1107808D01*
X462248Y1110920D01*
X462222Y1110938D01*
X462192Y1110969D01*
X458654Y1113587D01*
X458625Y1113600D01*
X458591Y1113626D01*
X454704Y1115692D01*
X454674Y1115701D01*
X454637Y1115722D01*
X450487Y1117191D01*
X450456Y1117196D01*
X450416Y1117211D01*
X446095Y1118050D01*
X446039Y1118050D01*
X445983Y1118059D01*
X445941Y1118049D01*
X445896Y1118048D01*
X445845Y1118026D01*
X445790Y1118013D01*
X445755Y1117987D01*
X445714Y1117969D01*
X445675Y1117928D01*
X445630Y1117895D01*
X445607Y1117857D01*
X445577Y1117825D01*
X445557Y1117772D01*
X445528Y1117724D01*
X445520Y1117673D01*
X445507Y1117639D01*
X445508Y1117605D01*
X445501Y1117560D01*
X445501Y1106560D01*
X445511Y1106507D01*
X445512Y1106454D01*
X445531Y1106411D01*
X445540Y1106365D01*
X445571Y1106321D01*
X445592Y1106272D01*
X445626Y1106240D01*
X445653Y1106201D01*
X445698Y1106172D01*
X445737Y1106136D01*
X445788Y1106115D01*
X445820Y1106094D01*
X445852Y1106089D01*
X445891Y1106073D01*
X448626Y1105462D01*
X451190Y1104434D01*
X453554Y1103007D01*
X455658Y1101218D01*
X457447Y1099114D01*
X458874Y1096750D01*
X459902Y1094186D01*
X460513Y1091451D01*
X460535Y1091402D01*
X460547Y1091350D01*
X460575Y1091312D01*
X460594Y1091270D01*
X460633Y1091233D01*
X460665Y1091190D01*
X460705Y1091166D01*
X460739Y1091134D01*
X460790Y1091116D01*
X460836Y1091088D01*
X460890Y1091079D01*
X460926Y1091066D01*
X460958Y1091068D01*
X461000Y1091061D01*
X472000Y1091061D01*
X472055Y1091072D01*
G37*
G36*
X472055Y166512D02*
X472055Y166512D01*
X472111Y166513D01*
X472152Y166532D01*
X472195Y166540D01*
X472241Y166572D01*
X472293Y166595D01*
X472322Y166628D01*
X472359Y166653D01*
X472389Y166700D01*
X472427Y166742D01*
X472442Y166783D01*
X472466Y166820D01*
X472475Y166876D01*
X472494Y166929D01*
X472493Y166981D01*
X472499Y167017D01*
X472491Y167049D01*
X472490Y167095D01*
X471651Y171416D01*
X471639Y171445D01*
X471631Y171487D01*
X470162Y175637D01*
X470146Y175664D01*
X470137Y175691D01*
X470135Y175697D01*
X470134Y175699D01*
X470132Y175704D01*
X468066Y179591D01*
X468046Y179615D01*
X468027Y179654D01*
X465409Y183192D01*
X465385Y183213D01*
X465360Y183248D01*
X462248Y186360D01*
X462222Y186378D01*
X462192Y186409D01*
X458654Y189027D01*
X458625Y189040D01*
X458591Y189066D01*
X454704Y191132D01*
X454674Y191141D01*
X454637Y191162D01*
X450487Y192631D01*
X450456Y192636D01*
X450416Y192651D01*
X446095Y193490D01*
X446039Y193490D01*
X445983Y193499D01*
X445941Y193489D01*
X445896Y193488D01*
X445845Y193466D01*
X445790Y193453D01*
X445755Y193427D01*
X445714Y193409D01*
X445675Y193368D01*
X445630Y193335D01*
X445607Y193297D01*
X445577Y193265D01*
X445557Y193212D01*
X445528Y193164D01*
X445520Y193113D01*
X445507Y193079D01*
X445508Y193045D01*
X445501Y193000D01*
X445501Y182000D01*
X445511Y181947D01*
X445512Y181894D01*
X445531Y181851D01*
X445540Y181805D01*
X445571Y181761D01*
X445592Y181712D01*
X445626Y181680D01*
X445653Y181641D01*
X445698Y181612D01*
X445737Y181576D01*
X445788Y181555D01*
X445820Y181534D01*
X445852Y181529D01*
X445891Y181513D01*
X448626Y180902D01*
X451190Y179874D01*
X453554Y178447D01*
X455658Y176658D01*
X457447Y174554D01*
X458874Y172190D01*
X459902Y169626D01*
X460513Y166891D01*
X460535Y166842D01*
X460547Y166790D01*
X460575Y166752D01*
X460594Y166710D01*
X460633Y166673D01*
X460665Y166630D01*
X460705Y166606D01*
X460739Y166574D01*
X460790Y166556D01*
X460836Y166528D01*
X460890Y166519D01*
X460926Y166506D01*
X460958Y166508D01*
X461000Y166501D01*
X472000Y166501D01*
X472055Y166512D01*
G37*
G36*
X1091815Y166512D02*
X1091815Y166512D01*
X1091871Y166513D01*
X1091912Y166532D01*
X1091955Y166540D01*
X1092001Y166572D01*
X1092053Y166595D01*
X1092082Y166628D01*
X1092119Y166653D01*
X1092149Y166700D01*
X1092187Y166742D01*
X1092202Y166783D01*
X1092226Y166820D01*
X1092235Y166876D01*
X1092254Y166929D01*
X1092253Y166981D01*
X1092259Y167017D01*
X1092251Y167049D01*
X1092250Y167095D01*
X1091411Y171416D01*
X1091399Y171445D01*
X1091391Y171487D01*
X1089922Y175637D01*
X1089906Y175664D01*
X1089897Y175691D01*
X1089895Y175697D01*
X1089894Y175699D01*
X1089892Y175704D01*
X1087826Y179591D01*
X1087806Y179615D01*
X1087787Y179654D01*
X1085169Y183192D01*
X1085145Y183213D01*
X1085120Y183248D01*
X1082008Y186360D01*
X1081982Y186378D01*
X1081952Y186409D01*
X1078414Y189027D01*
X1078385Y189040D01*
X1078351Y189066D01*
X1074464Y191132D01*
X1074434Y191141D01*
X1074397Y191162D01*
X1070247Y192631D01*
X1070216Y192636D01*
X1070176Y192651D01*
X1065855Y193490D01*
X1065799Y193490D01*
X1065743Y193499D01*
X1065701Y193489D01*
X1065656Y193488D01*
X1065605Y193466D01*
X1065550Y193453D01*
X1065515Y193427D01*
X1065474Y193409D01*
X1065435Y193368D01*
X1065390Y193335D01*
X1065367Y193297D01*
X1065337Y193265D01*
X1065317Y193212D01*
X1065288Y193164D01*
X1065280Y193113D01*
X1065267Y193079D01*
X1065268Y193045D01*
X1065261Y193000D01*
X1065261Y182000D01*
X1065271Y181947D01*
X1065272Y181894D01*
X1065291Y181851D01*
X1065300Y181805D01*
X1065331Y181761D01*
X1065352Y181712D01*
X1065386Y181680D01*
X1065413Y181641D01*
X1065458Y181612D01*
X1065497Y181576D01*
X1065548Y181555D01*
X1065580Y181534D01*
X1065612Y181529D01*
X1065651Y181513D01*
X1068386Y180902D01*
X1070950Y179874D01*
X1073314Y178447D01*
X1075418Y176658D01*
X1077207Y174554D01*
X1078634Y172190D01*
X1079662Y169626D01*
X1080273Y166891D01*
X1080295Y166842D01*
X1080307Y166790D01*
X1080335Y166752D01*
X1080354Y166710D01*
X1080393Y166673D01*
X1080425Y166630D01*
X1080465Y166606D01*
X1080499Y166574D01*
X1080550Y166556D01*
X1080596Y166528D01*
X1080650Y166519D01*
X1080686Y166506D01*
X1080718Y166508D01*
X1080760Y166501D01*
X1091760Y166501D01*
X1091815Y166512D01*
G37*
G36*
X1091815Y628792D02*
X1091815Y628792D01*
X1091871Y628793D01*
X1091912Y628812D01*
X1091955Y628820D01*
X1092001Y628852D01*
X1092053Y628875D01*
X1092082Y628908D01*
X1092119Y628933D01*
X1092149Y628980D01*
X1092187Y629022D01*
X1092202Y629063D01*
X1092226Y629100D01*
X1092235Y629156D01*
X1092254Y629209D01*
X1092253Y629261D01*
X1092259Y629297D01*
X1092251Y629329D01*
X1092250Y629375D01*
X1091411Y633696D01*
X1091399Y633725D01*
X1091391Y633767D01*
X1089922Y637917D01*
X1089906Y637944D01*
X1089897Y637971D01*
X1089895Y637977D01*
X1089894Y637979D01*
X1089892Y637984D01*
X1087826Y641871D01*
X1087806Y641895D01*
X1087787Y641934D01*
X1085169Y645472D01*
X1085145Y645493D01*
X1085120Y645528D01*
X1082008Y648640D01*
X1081982Y648658D01*
X1081952Y648689D01*
X1078414Y651307D01*
X1078385Y651320D01*
X1078351Y651346D01*
X1074464Y653412D01*
X1074434Y653421D01*
X1074397Y653442D01*
X1070247Y654911D01*
X1070216Y654916D01*
X1070176Y654931D01*
X1065855Y655770D01*
X1065799Y655770D01*
X1065743Y655779D01*
X1065701Y655769D01*
X1065656Y655768D01*
X1065605Y655746D01*
X1065550Y655733D01*
X1065515Y655707D01*
X1065474Y655689D01*
X1065435Y655648D01*
X1065390Y655615D01*
X1065367Y655577D01*
X1065337Y655545D01*
X1065317Y655492D01*
X1065288Y655444D01*
X1065280Y655393D01*
X1065267Y655359D01*
X1065268Y655325D01*
X1065261Y655280D01*
X1065261Y644280D01*
X1065271Y644227D01*
X1065272Y644174D01*
X1065291Y644131D01*
X1065300Y644085D01*
X1065331Y644041D01*
X1065352Y643992D01*
X1065386Y643960D01*
X1065413Y643921D01*
X1065458Y643892D01*
X1065497Y643856D01*
X1065548Y643835D01*
X1065580Y643814D01*
X1065612Y643809D01*
X1065651Y643793D01*
X1068386Y643182D01*
X1070950Y642154D01*
X1073314Y640727D01*
X1075418Y638938D01*
X1077207Y636834D01*
X1078634Y634470D01*
X1079662Y631906D01*
X1080273Y629171D01*
X1080295Y629122D01*
X1080307Y629070D01*
X1080335Y629032D01*
X1080354Y628990D01*
X1080393Y628953D01*
X1080425Y628910D01*
X1080465Y628886D01*
X1080499Y628854D01*
X1080550Y628836D01*
X1080596Y628808D01*
X1080650Y628799D01*
X1080686Y628786D01*
X1080718Y628788D01*
X1080760Y628781D01*
X1091760Y628781D01*
X1091815Y628792D01*
G37*
G36*
X472055Y628792D02*
X472055Y628792D01*
X472111Y628793D01*
X472152Y628812D01*
X472195Y628820D01*
X472241Y628852D01*
X472293Y628875D01*
X472322Y628908D01*
X472359Y628933D01*
X472389Y628980D01*
X472427Y629022D01*
X472442Y629063D01*
X472466Y629100D01*
X472475Y629156D01*
X472494Y629209D01*
X472493Y629261D01*
X472499Y629297D01*
X472491Y629329D01*
X472490Y629375D01*
X471651Y633696D01*
X471639Y633725D01*
X471631Y633767D01*
X470162Y637917D01*
X470146Y637944D01*
X470137Y637971D01*
X470135Y637977D01*
X470134Y637979D01*
X470132Y637984D01*
X468066Y641871D01*
X468046Y641895D01*
X468027Y641934D01*
X465409Y645472D01*
X465385Y645493D01*
X465360Y645528D01*
X462248Y648640D01*
X462222Y648658D01*
X462192Y648689D01*
X458654Y651307D01*
X458625Y651320D01*
X458591Y651346D01*
X454704Y653412D01*
X454674Y653421D01*
X454637Y653442D01*
X450487Y654911D01*
X450456Y654916D01*
X450416Y654931D01*
X446095Y655770D01*
X446039Y655770D01*
X445983Y655779D01*
X445941Y655769D01*
X445896Y655768D01*
X445845Y655746D01*
X445790Y655733D01*
X445755Y655707D01*
X445714Y655689D01*
X445675Y655648D01*
X445630Y655615D01*
X445607Y655577D01*
X445577Y655545D01*
X445557Y655492D01*
X445528Y655444D01*
X445520Y655393D01*
X445507Y655359D01*
X445508Y655325D01*
X445501Y655280D01*
X445501Y644280D01*
X445511Y644227D01*
X445512Y644174D01*
X445531Y644131D01*
X445540Y644085D01*
X445571Y644041D01*
X445592Y643992D01*
X445626Y643960D01*
X445653Y643921D01*
X445698Y643892D01*
X445737Y643856D01*
X445788Y643835D01*
X445820Y643814D01*
X445852Y643809D01*
X445891Y643793D01*
X448626Y643182D01*
X451190Y642154D01*
X453554Y640727D01*
X455658Y638938D01*
X457447Y636834D01*
X458874Y634470D01*
X459902Y631906D01*
X460513Y629171D01*
X460535Y629122D01*
X460547Y629070D01*
X460575Y629032D01*
X460594Y628990D01*
X460633Y628953D01*
X460665Y628910D01*
X460705Y628886D01*
X460739Y628854D01*
X460790Y628836D01*
X460836Y628808D01*
X460890Y628799D01*
X460926Y628786D01*
X460958Y628788D01*
X461000Y628781D01*
X472000Y628781D01*
X472055Y628792D01*
G37*
G36*
X446049Y1057069D02*
X446049Y1057069D01*
X446095Y1057070D01*
X450416Y1057909D01*
X450445Y1057921D01*
X450487Y1057929D01*
X454637Y1059398D01*
X454664Y1059414D01*
X454704Y1059428D01*
X458591Y1061494D01*
X458615Y1061514D01*
X458654Y1061533D01*
X462192Y1064151D01*
X462213Y1064175D01*
X462248Y1064200D01*
X465360Y1067312D01*
X465378Y1067339D01*
X465409Y1067368D01*
X468027Y1070907D01*
X468040Y1070935D01*
X468066Y1070969D01*
X470132Y1074856D01*
X470141Y1074886D01*
X470162Y1074923D01*
X471631Y1079073D01*
X471636Y1079104D01*
X471651Y1079144D01*
X472490Y1083465D01*
X472490Y1083521D01*
X472499Y1083577D01*
X472489Y1083619D01*
X472488Y1083664D01*
X472466Y1083715D01*
X472453Y1083770D01*
X472427Y1083806D01*
X472409Y1083846D01*
X472368Y1083885D01*
X472335Y1083930D01*
X472297Y1083953D01*
X472265Y1083983D01*
X472212Y1084003D01*
X472164Y1084032D01*
X472113Y1084040D01*
X472079Y1084053D01*
X472045Y1084052D01*
X472000Y1084059D01*
X461000Y1084059D01*
X460947Y1084049D01*
X460894Y1084048D01*
X460851Y1084029D01*
X460805Y1084020D01*
X460761Y1083989D01*
X460712Y1083968D01*
X460680Y1083934D01*
X460641Y1083907D01*
X460612Y1083862D01*
X460576Y1083823D01*
X460555Y1083772D01*
X460534Y1083740D01*
X460529Y1083708D01*
X460526Y1083702D01*
X460525Y1083701D01*
X460525Y1083700D01*
X460513Y1083669D01*
X459902Y1080934D01*
X458874Y1078370D01*
X457447Y1076006D01*
X455658Y1073902D01*
X453554Y1072113D01*
X451190Y1070686D01*
X448626Y1069658D01*
X445891Y1069047D01*
X445842Y1069025D01*
X445790Y1069013D01*
X445752Y1068985D01*
X445710Y1068966D01*
X445673Y1068927D01*
X445630Y1068895D01*
X445606Y1068855D01*
X445574Y1068821D01*
X445556Y1068770D01*
X445528Y1068724D01*
X445519Y1068670D01*
X445506Y1068634D01*
X445508Y1068602D01*
X445501Y1068560D01*
X445501Y1057560D01*
X445512Y1057505D01*
X445513Y1057449D01*
X445532Y1057408D01*
X445540Y1057365D01*
X445572Y1057319D01*
X445595Y1057268D01*
X445628Y1057238D01*
X445653Y1057201D01*
X445700Y1057171D01*
X445742Y1057133D01*
X445783Y1057118D01*
X445820Y1057094D01*
X445876Y1057085D01*
X445929Y1057066D01*
X445981Y1057067D01*
X446017Y1057061D01*
X446049Y1057069D01*
G37*
G36*
X1065809Y1057069D02*
X1065809Y1057069D01*
X1065855Y1057070D01*
X1070176Y1057909D01*
X1070205Y1057921D01*
X1070247Y1057929D01*
X1074397Y1059398D01*
X1074424Y1059414D01*
X1074464Y1059428D01*
X1078351Y1061494D01*
X1078375Y1061514D01*
X1078414Y1061533D01*
X1081952Y1064151D01*
X1081973Y1064175D01*
X1082008Y1064200D01*
X1085120Y1067312D01*
X1085138Y1067339D01*
X1085169Y1067368D01*
X1087787Y1070907D01*
X1087800Y1070935D01*
X1087826Y1070969D01*
X1089892Y1074856D01*
X1089901Y1074886D01*
X1089922Y1074923D01*
X1091391Y1079073D01*
X1091396Y1079104D01*
X1091411Y1079144D01*
X1092250Y1083465D01*
X1092250Y1083521D01*
X1092259Y1083577D01*
X1092249Y1083619D01*
X1092248Y1083664D01*
X1092226Y1083715D01*
X1092213Y1083770D01*
X1092187Y1083806D01*
X1092169Y1083846D01*
X1092128Y1083885D01*
X1092095Y1083930D01*
X1092057Y1083953D01*
X1092025Y1083983D01*
X1091972Y1084003D01*
X1091924Y1084032D01*
X1091873Y1084040D01*
X1091839Y1084053D01*
X1091805Y1084052D01*
X1091760Y1084059D01*
X1080760Y1084059D01*
X1080707Y1084049D01*
X1080654Y1084048D01*
X1080611Y1084029D01*
X1080565Y1084020D01*
X1080521Y1083989D01*
X1080472Y1083968D01*
X1080440Y1083934D01*
X1080401Y1083907D01*
X1080372Y1083862D01*
X1080336Y1083823D01*
X1080315Y1083772D01*
X1080294Y1083740D01*
X1080289Y1083708D01*
X1080286Y1083702D01*
X1080285Y1083701D01*
X1080285Y1083700D01*
X1080273Y1083669D01*
X1079662Y1080934D01*
X1078634Y1078370D01*
X1077207Y1076006D01*
X1075418Y1073902D01*
X1073314Y1072113D01*
X1070950Y1070686D01*
X1068386Y1069658D01*
X1065651Y1069047D01*
X1065602Y1069025D01*
X1065550Y1069013D01*
X1065512Y1068985D01*
X1065470Y1068966D01*
X1065433Y1068927D01*
X1065390Y1068895D01*
X1065366Y1068855D01*
X1065334Y1068821D01*
X1065316Y1068770D01*
X1065288Y1068724D01*
X1065279Y1068670D01*
X1065266Y1068634D01*
X1065268Y1068602D01*
X1065261Y1068560D01*
X1065261Y1057560D01*
X1065272Y1057505D01*
X1065273Y1057449D01*
X1065292Y1057408D01*
X1065300Y1057365D01*
X1065332Y1057319D01*
X1065355Y1057268D01*
X1065388Y1057238D01*
X1065413Y1057201D01*
X1065460Y1057171D01*
X1065502Y1057133D01*
X1065543Y1057118D01*
X1065580Y1057094D01*
X1065636Y1057085D01*
X1065689Y1057066D01*
X1065741Y1057067D01*
X1065777Y1057061D01*
X1065809Y1057069D01*
G37*
G36*
X446049Y132509D02*
X446049Y132509D01*
X446095Y132510D01*
X450416Y133349D01*
X450445Y133361D01*
X450487Y133369D01*
X454637Y134838D01*
X454664Y134854D01*
X454704Y134868D01*
X458591Y136934D01*
X458615Y136954D01*
X458654Y136973D01*
X462192Y139591D01*
X462213Y139615D01*
X462248Y139640D01*
X465360Y142752D01*
X465378Y142779D01*
X465409Y142808D01*
X468027Y146347D01*
X468040Y146375D01*
X468066Y146409D01*
X470132Y150296D01*
X470141Y150326D01*
X470162Y150363D01*
X471631Y154513D01*
X471636Y154544D01*
X471651Y154584D01*
X472490Y158905D01*
X472490Y158961D01*
X472499Y159017D01*
X472489Y159059D01*
X472488Y159104D01*
X472466Y159155D01*
X472453Y159210D01*
X472427Y159246D01*
X472409Y159286D01*
X472368Y159325D01*
X472335Y159370D01*
X472297Y159393D01*
X472265Y159423D01*
X472212Y159443D01*
X472164Y159472D01*
X472113Y159480D01*
X472079Y159493D01*
X472045Y159492D01*
X472000Y159499D01*
X461000Y159499D01*
X460947Y159489D01*
X460894Y159488D01*
X460851Y159469D01*
X460805Y159460D01*
X460761Y159429D01*
X460712Y159408D01*
X460680Y159374D01*
X460641Y159347D01*
X460612Y159302D01*
X460576Y159263D01*
X460555Y159212D01*
X460534Y159180D01*
X460529Y159148D01*
X460526Y159142D01*
X460525Y159141D01*
X460525Y159140D01*
X460513Y159109D01*
X459902Y156374D01*
X458874Y153810D01*
X457447Y151446D01*
X455658Y149342D01*
X453554Y147553D01*
X451190Y146126D01*
X448626Y145098D01*
X445891Y144487D01*
X445842Y144465D01*
X445790Y144453D01*
X445752Y144425D01*
X445710Y144406D01*
X445673Y144367D01*
X445630Y144335D01*
X445606Y144295D01*
X445574Y144261D01*
X445556Y144210D01*
X445528Y144164D01*
X445519Y144110D01*
X445506Y144074D01*
X445508Y144042D01*
X445501Y144000D01*
X445501Y133000D01*
X445512Y132945D01*
X445513Y132889D01*
X445532Y132848D01*
X445540Y132805D01*
X445572Y132759D01*
X445595Y132708D01*
X445628Y132678D01*
X445653Y132641D01*
X445700Y132611D01*
X445742Y132573D01*
X445783Y132558D01*
X445820Y132534D01*
X445876Y132525D01*
X445929Y132506D01*
X445981Y132507D01*
X446017Y132501D01*
X446049Y132509D01*
G37*
G36*
X1065809Y132509D02*
X1065809Y132509D01*
X1065855Y132510D01*
X1070176Y133349D01*
X1070205Y133361D01*
X1070247Y133369D01*
X1074397Y134838D01*
X1074424Y134854D01*
X1074464Y134868D01*
X1078351Y136934D01*
X1078375Y136954D01*
X1078414Y136973D01*
X1081952Y139591D01*
X1081973Y139615D01*
X1082008Y139640D01*
X1085120Y142752D01*
X1085138Y142779D01*
X1085169Y142808D01*
X1087787Y146347D01*
X1087800Y146375D01*
X1087826Y146409D01*
X1089892Y150296D01*
X1089901Y150326D01*
X1089922Y150363D01*
X1091391Y154513D01*
X1091396Y154544D01*
X1091411Y154584D01*
X1092250Y158905D01*
X1092250Y158961D01*
X1092259Y159017D01*
X1092249Y159059D01*
X1092248Y159104D01*
X1092226Y159155D01*
X1092213Y159210D01*
X1092187Y159246D01*
X1092169Y159286D01*
X1092128Y159325D01*
X1092095Y159370D01*
X1092057Y159393D01*
X1092025Y159423D01*
X1091972Y159443D01*
X1091924Y159472D01*
X1091873Y159480D01*
X1091839Y159493D01*
X1091805Y159492D01*
X1091760Y159499D01*
X1080760Y159499D01*
X1080707Y159489D01*
X1080654Y159488D01*
X1080611Y159469D01*
X1080565Y159460D01*
X1080521Y159429D01*
X1080472Y159408D01*
X1080440Y159374D01*
X1080401Y159347D01*
X1080372Y159302D01*
X1080336Y159263D01*
X1080315Y159212D01*
X1080294Y159180D01*
X1080289Y159148D01*
X1080286Y159142D01*
X1080285Y159141D01*
X1080285Y159140D01*
X1080273Y159109D01*
X1079662Y156374D01*
X1078634Y153810D01*
X1077207Y151446D01*
X1075418Y149342D01*
X1073314Y147553D01*
X1070950Y146126D01*
X1068386Y145098D01*
X1065651Y144487D01*
X1065602Y144465D01*
X1065550Y144453D01*
X1065512Y144425D01*
X1065470Y144406D01*
X1065433Y144367D01*
X1065390Y144335D01*
X1065366Y144295D01*
X1065334Y144261D01*
X1065316Y144210D01*
X1065288Y144164D01*
X1065279Y144110D01*
X1065266Y144074D01*
X1065268Y144042D01*
X1065261Y144000D01*
X1065261Y133000D01*
X1065272Y132945D01*
X1065273Y132889D01*
X1065292Y132848D01*
X1065300Y132805D01*
X1065332Y132759D01*
X1065355Y132708D01*
X1065388Y132678D01*
X1065413Y132641D01*
X1065460Y132611D01*
X1065502Y132573D01*
X1065543Y132558D01*
X1065580Y132534D01*
X1065636Y132525D01*
X1065689Y132506D01*
X1065741Y132507D01*
X1065777Y132501D01*
X1065809Y132509D01*
G37*
G36*
X1065809Y594789D02*
X1065809Y594789D01*
X1065855Y594790D01*
X1070176Y595629D01*
X1070205Y595641D01*
X1070247Y595649D01*
X1074397Y597118D01*
X1074424Y597134D01*
X1074464Y597148D01*
X1078351Y599214D01*
X1078375Y599234D01*
X1078414Y599253D01*
X1081952Y601871D01*
X1081973Y601895D01*
X1082008Y601920D01*
X1085120Y605032D01*
X1085138Y605059D01*
X1085169Y605088D01*
X1087787Y608627D01*
X1087800Y608655D01*
X1087826Y608689D01*
X1089892Y612576D01*
X1089901Y612606D01*
X1089922Y612643D01*
X1091391Y616793D01*
X1091396Y616824D01*
X1091411Y616864D01*
X1092250Y621185D01*
X1092250Y621241D01*
X1092259Y621297D01*
X1092249Y621339D01*
X1092248Y621384D01*
X1092226Y621435D01*
X1092213Y621490D01*
X1092187Y621526D01*
X1092169Y621566D01*
X1092128Y621605D01*
X1092095Y621650D01*
X1092057Y621673D01*
X1092025Y621703D01*
X1091972Y621723D01*
X1091924Y621752D01*
X1091873Y621760D01*
X1091839Y621773D01*
X1091805Y621772D01*
X1091760Y621779D01*
X1080760Y621779D01*
X1080707Y621769D01*
X1080654Y621768D01*
X1080611Y621749D01*
X1080565Y621740D01*
X1080521Y621709D01*
X1080472Y621688D01*
X1080440Y621654D01*
X1080401Y621627D01*
X1080372Y621582D01*
X1080336Y621543D01*
X1080315Y621492D01*
X1080294Y621460D01*
X1080289Y621428D01*
X1080286Y621422D01*
X1080285Y621421D01*
X1080285Y621420D01*
X1080273Y621389D01*
X1079662Y618654D01*
X1078634Y616090D01*
X1077207Y613726D01*
X1075418Y611622D01*
X1073314Y609833D01*
X1070950Y608406D01*
X1068386Y607378D01*
X1065651Y606767D01*
X1065602Y606745D01*
X1065550Y606733D01*
X1065512Y606705D01*
X1065470Y606686D01*
X1065433Y606647D01*
X1065390Y606615D01*
X1065366Y606575D01*
X1065334Y606541D01*
X1065316Y606490D01*
X1065288Y606444D01*
X1065279Y606390D01*
X1065266Y606354D01*
X1065268Y606322D01*
X1065261Y606280D01*
X1065261Y595280D01*
X1065272Y595225D01*
X1065273Y595169D01*
X1065292Y595128D01*
X1065300Y595085D01*
X1065332Y595039D01*
X1065355Y594988D01*
X1065388Y594958D01*
X1065413Y594921D01*
X1065460Y594891D01*
X1065502Y594853D01*
X1065543Y594838D01*
X1065580Y594814D01*
X1065636Y594805D01*
X1065689Y594786D01*
X1065741Y594787D01*
X1065777Y594781D01*
X1065809Y594789D01*
G37*
G36*
X446049Y594789D02*
X446049Y594789D01*
X446095Y594790D01*
X450416Y595629D01*
X450445Y595641D01*
X450487Y595649D01*
X454637Y597118D01*
X454664Y597134D01*
X454704Y597148D01*
X458591Y599214D01*
X458615Y599234D01*
X458654Y599253D01*
X462192Y601871D01*
X462213Y601895D01*
X462248Y601920D01*
X465360Y605032D01*
X465378Y605059D01*
X465409Y605088D01*
X468027Y608627D01*
X468040Y608655D01*
X468066Y608689D01*
X470132Y612576D01*
X470141Y612606D01*
X470162Y612643D01*
X471631Y616793D01*
X471636Y616824D01*
X471651Y616864D01*
X472490Y621185D01*
X472490Y621241D01*
X472499Y621297D01*
X472489Y621339D01*
X472488Y621384D01*
X472466Y621435D01*
X472453Y621490D01*
X472427Y621526D01*
X472409Y621566D01*
X472368Y621605D01*
X472335Y621650D01*
X472297Y621673D01*
X472265Y621703D01*
X472212Y621723D01*
X472164Y621752D01*
X472113Y621760D01*
X472079Y621773D01*
X472045Y621772D01*
X472000Y621779D01*
X461000Y621779D01*
X460947Y621769D01*
X460894Y621768D01*
X460851Y621749D01*
X460805Y621740D01*
X460761Y621709D01*
X460712Y621688D01*
X460680Y621654D01*
X460641Y621627D01*
X460612Y621582D01*
X460576Y621543D01*
X460555Y621492D01*
X460534Y621460D01*
X460529Y621428D01*
X460526Y621422D01*
X460525Y621421D01*
X460525Y621420D01*
X460513Y621389D01*
X459902Y618654D01*
X458874Y616090D01*
X457447Y613726D01*
X455658Y611622D01*
X453554Y609833D01*
X451190Y608406D01*
X448626Y607378D01*
X445891Y606767D01*
X445842Y606745D01*
X445790Y606733D01*
X445752Y606705D01*
X445710Y606686D01*
X445673Y606647D01*
X445630Y606615D01*
X445606Y606575D01*
X445574Y606541D01*
X445556Y606490D01*
X445528Y606444D01*
X445519Y606390D01*
X445506Y606354D01*
X445508Y606322D01*
X445501Y606280D01*
X445501Y595280D01*
X445512Y595225D01*
X445513Y595169D01*
X445532Y595128D01*
X445540Y595085D01*
X445572Y595039D01*
X445595Y594988D01*
X445628Y594958D01*
X445653Y594921D01*
X445700Y594891D01*
X445742Y594853D01*
X445783Y594838D01*
X445820Y594814D01*
X445876Y594805D01*
X445929Y594786D01*
X445981Y594787D01*
X446017Y594781D01*
X446049Y594789D01*
G37*
G36*
X680065Y515634D02*
X680065Y515634D01*
X680068Y515631D01*
X681163Y515811D01*
X681169Y515817D01*
X681174Y515814D01*
X682202Y516233D01*
X682206Y516240D01*
X682211Y516238D01*
X683120Y516876D01*
X683123Y516883D01*
X683128Y516883D01*
X683872Y517706D01*
X683873Y517714D01*
X683879Y517715D01*
X684421Y518683D01*
X684420Y518692D01*
X684426Y518694D01*
X684739Y519758D01*
X684736Y519766D01*
X684741Y519769D01*
X684809Y520877D01*
X684805Y520884D01*
X684809Y520887D01*
X684639Y521995D01*
X684633Y522001D01*
X684636Y522006D01*
X684224Y523048D01*
X684217Y523052D01*
X684219Y523057D01*
X683585Y523982D01*
X683577Y523984D01*
X683578Y523990D01*
X682755Y524750D01*
X682746Y524751D01*
X682746Y524757D01*
X681774Y525314D01*
X681766Y525313D01*
X681764Y525319D01*
X680692Y525646D01*
X680684Y525643D01*
X680681Y525648D01*
X679564Y525729D01*
X679561Y525728D01*
X679560Y525729D01*
X667560Y525729D01*
X667557Y525727D01*
X667550Y525727D01*
X667549Y525728D01*
X666605Y525509D01*
X666599Y525503D01*
X666594Y525505D01*
X665722Y525082D01*
X665719Y525074D01*
X665713Y525076D01*
X664957Y524469D01*
X664955Y524461D01*
X664949Y524461D01*
X664348Y523701D01*
X664348Y523692D01*
X664342Y523691D01*
X663924Y522816D01*
X663926Y522808D01*
X663921Y522806D01*
X663709Y521860D01*
X663712Y521853D01*
X663707Y521849D01*
X663711Y520880D01*
X663711Y520879D01*
X663730Y519811D01*
X663735Y519804D01*
X663731Y519800D01*
X663987Y518763D01*
X663994Y518758D01*
X663991Y518752D01*
X664472Y517798D01*
X664479Y517795D01*
X664478Y517789D01*
X665159Y516966D01*
X665167Y516964D01*
X665167Y516958D01*
X666014Y516307D01*
X666022Y516307D01*
X666023Y516301D01*
X666994Y515854D01*
X667002Y515856D01*
X667004Y515851D01*
X668050Y515632D01*
X668057Y515635D01*
X668060Y515631D01*
X680060Y515631D01*
X680065Y515634D01*
G37*
G36*
X60305Y515634D02*
X60305Y515634D01*
X60308Y515631D01*
X61403Y515811D01*
X61409Y515817D01*
X61414Y515814D01*
X62442Y516233D01*
X62446Y516240D01*
X62451Y516238D01*
X63360Y516876D01*
X63363Y516883D01*
X63368Y516883D01*
X64112Y517706D01*
X64113Y517714D01*
X64119Y517715D01*
X64661Y518683D01*
X64660Y518692D01*
X64666Y518694D01*
X64979Y519758D01*
X64976Y519766D01*
X64981Y519769D01*
X65049Y520877D01*
X65045Y520884D01*
X65049Y520887D01*
X64879Y521995D01*
X64873Y522001D01*
X64876Y522006D01*
X64464Y523048D01*
X64457Y523052D01*
X64459Y523057D01*
X63825Y523982D01*
X63817Y523984D01*
X63818Y523990D01*
X62995Y524750D01*
X62986Y524751D01*
X62986Y524757D01*
X62014Y525314D01*
X62006Y525313D01*
X62004Y525319D01*
X60932Y525646D01*
X60924Y525643D01*
X60921Y525648D01*
X59804Y525729D01*
X59801Y525728D01*
X59800Y525729D01*
X47800Y525729D01*
X47797Y525727D01*
X47790Y525727D01*
X47789Y525728D01*
X46845Y525509D01*
X46839Y525503D01*
X46834Y525505D01*
X45962Y525082D01*
X45959Y525074D01*
X45953Y525076D01*
X45197Y524469D01*
X45195Y524461D01*
X45189Y524461D01*
X44588Y523701D01*
X44588Y523692D01*
X44582Y523691D01*
X44164Y522816D01*
X44166Y522808D01*
X44161Y522806D01*
X43949Y521860D01*
X43952Y521853D01*
X43947Y521849D01*
X43951Y520880D01*
X43951Y520879D01*
X43970Y519811D01*
X43975Y519804D01*
X43971Y519800D01*
X44227Y518763D01*
X44234Y518758D01*
X44231Y518752D01*
X44712Y517798D01*
X44719Y517795D01*
X44718Y517789D01*
X45399Y516966D01*
X45407Y516964D01*
X45407Y516958D01*
X46254Y516307D01*
X46262Y516307D01*
X46263Y516301D01*
X47234Y515854D01*
X47242Y515856D01*
X47244Y515851D01*
X48290Y515632D01*
X48297Y515635D01*
X48300Y515631D01*
X60300Y515631D01*
X60305Y515634D01*
G37*
G36*
X60305Y53354D02*
X60305Y53354D01*
X60308Y53351D01*
X61403Y53531D01*
X61409Y53537D01*
X61414Y53534D01*
X62442Y53953D01*
X62446Y53960D01*
X62451Y53958D01*
X63360Y54596D01*
X63363Y54603D01*
X63368Y54603D01*
X64112Y55426D01*
X64113Y55434D01*
X64119Y55435D01*
X64661Y56403D01*
X64660Y56412D01*
X64666Y56414D01*
X64979Y57478D01*
X64976Y57486D01*
X64981Y57489D01*
X65049Y58597D01*
X65045Y58604D01*
X65049Y58607D01*
X64879Y59715D01*
X64873Y59721D01*
X64876Y59726D01*
X64464Y60768D01*
X64457Y60772D01*
X64459Y60777D01*
X63825Y61702D01*
X63817Y61704D01*
X63818Y61710D01*
X62995Y62470D01*
X62986Y62471D01*
X62986Y62477D01*
X62014Y63034D01*
X62006Y63033D01*
X62004Y63039D01*
X60932Y63366D01*
X60924Y63363D01*
X60921Y63368D01*
X59804Y63449D01*
X59801Y63448D01*
X59800Y63449D01*
X47800Y63449D01*
X47797Y63447D01*
X47790Y63447D01*
X47789Y63448D01*
X46845Y63229D01*
X46839Y63223D01*
X46834Y63225D01*
X45962Y62802D01*
X45959Y62794D01*
X45953Y62796D01*
X45197Y62189D01*
X45195Y62181D01*
X45189Y62181D01*
X44588Y61421D01*
X44588Y61412D01*
X44582Y61411D01*
X44164Y60536D01*
X44166Y60528D01*
X44161Y60526D01*
X43949Y59580D01*
X43952Y59573D01*
X43947Y59569D01*
X43951Y58600D01*
X43951Y58599D01*
X43970Y57531D01*
X43975Y57524D01*
X43971Y57520D01*
X44227Y56483D01*
X44234Y56478D01*
X44231Y56472D01*
X44712Y55518D01*
X44719Y55515D01*
X44718Y55509D01*
X45399Y54686D01*
X45407Y54684D01*
X45407Y54678D01*
X46254Y54027D01*
X46262Y54027D01*
X46263Y54021D01*
X47234Y53574D01*
X47242Y53576D01*
X47244Y53571D01*
X48290Y53352D01*
X48297Y53355D01*
X48300Y53351D01*
X60300Y53351D01*
X60305Y53354D01*
G37*
G36*
X680065Y53354D02*
X680065Y53354D01*
X680068Y53351D01*
X681163Y53531D01*
X681169Y53537D01*
X681174Y53534D01*
X682202Y53953D01*
X682206Y53960D01*
X682211Y53958D01*
X683120Y54596D01*
X683123Y54603D01*
X683128Y54603D01*
X683872Y55426D01*
X683873Y55434D01*
X683879Y55435D01*
X684421Y56403D01*
X684420Y56412D01*
X684426Y56414D01*
X684739Y57478D01*
X684736Y57486D01*
X684741Y57489D01*
X684809Y58597D01*
X684805Y58604D01*
X684809Y58607D01*
X684639Y59715D01*
X684633Y59721D01*
X684636Y59726D01*
X684224Y60768D01*
X684217Y60772D01*
X684219Y60777D01*
X683585Y61702D01*
X683577Y61704D01*
X683578Y61710D01*
X682755Y62470D01*
X682746Y62471D01*
X682746Y62477D01*
X681774Y63034D01*
X681766Y63033D01*
X681764Y63039D01*
X680692Y63366D01*
X680684Y63363D01*
X680681Y63368D01*
X679564Y63449D01*
X679561Y63448D01*
X679560Y63449D01*
X667560Y63449D01*
X667557Y63447D01*
X667550Y63447D01*
X667549Y63448D01*
X666605Y63229D01*
X666599Y63223D01*
X666594Y63225D01*
X665722Y62802D01*
X665719Y62794D01*
X665713Y62796D01*
X664957Y62189D01*
X664955Y62181D01*
X664949Y62181D01*
X664348Y61421D01*
X664348Y61412D01*
X664342Y61411D01*
X663924Y60536D01*
X663926Y60528D01*
X663921Y60526D01*
X663709Y59580D01*
X663712Y59573D01*
X663707Y59569D01*
X663711Y58600D01*
X663711Y58599D01*
X663730Y57531D01*
X663735Y57524D01*
X663731Y57520D01*
X663987Y56483D01*
X663994Y56478D01*
X663991Y56472D01*
X664472Y55518D01*
X664479Y55515D01*
X664478Y55509D01*
X665159Y54686D01*
X665167Y54684D01*
X665167Y54678D01*
X666014Y54027D01*
X666022Y54027D01*
X666023Y54021D01*
X666994Y53574D01*
X667002Y53576D01*
X667004Y53571D01*
X668050Y53352D01*
X668057Y53355D01*
X668060Y53351D01*
X680060Y53351D01*
X680065Y53354D01*
G37*
G36*
X680065Y977914D02*
X680065Y977914D01*
X680068Y977911D01*
X681163Y978091D01*
X681169Y978097D01*
X681174Y978094D01*
X682202Y978513D01*
X682206Y978520D01*
X682211Y978518D01*
X683120Y979156D01*
X683123Y979163D01*
X683128Y979163D01*
X683872Y979986D01*
X683873Y979994D01*
X683879Y979995D01*
X684421Y980963D01*
X684420Y980972D01*
X684426Y980974D01*
X684739Y982038D01*
X684736Y982046D01*
X684741Y982049D01*
X684809Y983157D01*
X684805Y983164D01*
X684809Y983167D01*
X684639Y984275D01*
X684633Y984281D01*
X684636Y984286D01*
X684224Y985328D01*
X684217Y985332D01*
X684219Y985337D01*
X683585Y986262D01*
X683577Y986264D01*
X683578Y986270D01*
X682755Y987030D01*
X682746Y987031D01*
X682746Y987037D01*
X681774Y987594D01*
X681766Y987593D01*
X681764Y987599D01*
X680692Y987926D01*
X680684Y987923D01*
X680681Y987928D01*
X679564Y988009D01*
X679561Y988008D01*
X679560Y988009D01*
X667560Y988009D01*
X667557Y988007D01*
X667550Y988007D01*
X667549Y988008D01*
X666605Y987789D01*
X666599Y987783D01*
X666594Y987785D01*
X665722Y987362D01*
X665719Y987354D01*
X665713Y987356D01*
X664957Y986749D01*
X664955Y986741D01*
X664949Y986741D01*
X664348Y985981D01*
X664348Y985972D01*
X664342Y985971D01*
X663924Y985096D01*
X663926Y985088D01*
X663921Y985086D01*
X663709Y984140D01*
X663712Y984133D01*
X663707Y984129D01*
X663711Y983160D01*
X663711Y983159D01*
X663730Y982091D01*
X663735Y982084D01*
X663731Y982080D01*
X663987Y981043D01*
X663994Y981038D01*
X663991Y981032D01*
X664472Y980078D01*
X664479Y980075D01*
X664478Y980069D01*
X665159Y979246D01*
X665167Y979244D01*
X665167Y979238D01*
X666014Y978587D01*
X666022Y978587D01*
X666023Y978581D01*
X666994Y978134D01*
X667002Y978136D01*
X667004Y978131D01*
X668050Y977912D01*
X668057Y977915D01*
X668060Y977911D01*
X680060Y977911D01*
X680065Y977914D01*
G37*
G36*
X60305Y977914D02*
X60305Y977914D01*
X60308Y977911D01*
X61403Y978091D01*
X61409Y978097D01*
X61414Y978094D01*
X62442Y978513D01*
X62446Y978520D01*
X62451Y978518D01*
X63360Y979156D01*
X63363Y979163D01*
X63368Y979163D01*
X64112Y979986D01*
X64113Y979994D01*
X64119Y979995D01*
X64661Y980963D01*
X64660Y980972D01*
X64666Y980974D01*
X64979Y982038D01*
X64976Y982046D01*
X64981Y982049D01*
X65049Y983157D01*
X65045Y983164D01*
X65049Y983167D01*
X64879Y984275D01*
X64873Y984281D01*
X64876Y984286D01*
X64464Y985328D01*
X64457Y985332D01*
X64459Y985337D01*
X63825Y986262D01*
X63817Y986264D01*
X63818Y986270D01*
X62995Y987030D01*
X62986Y987031D01*
X62986Y987037D01*
X62014Y987594D01*
X62006Y987593D01*
X62004Y987599D01*
X60932Y987926D01*
X60924Y987923D01*
X60921Y987928D01*
X59804Y988009D01*
X59801Y988008D01*
X59800Y988009D01*
X47800Y988009D01*
X47797Y988007D01*
X47790Y988007D01*
X47789Y988008D01*
X46845Y987789D01*
X46839Y987783D01*
X46834Y987785D01*
X45962Y987362D01*
X45959Y987354D01*
X45953Y987356D01*
X45197Y986749D01*
X45195Y986741D01*
X45189Y986741D01*
X44588Y985981D01*
X44588Y985972D01*
X44582Y985971D01*
X44164Y985096D01*
X44166Y985088D01*
X44161Y985086D01*
X43949Y984140D01*
X43952Y984133D01*
X43947Y984129D01*
X43951Y983160D01*
X43951Y983159D01*
X43970Y982091D01*
X43975Y982084D01*
X43971Y982080D01*
X44227Y981043D01*
X44234Y981038D01*
X44231Y981032D01*
X44712Y980078D01*
X44719Y980075D01*
X44718Y980069D01*
X45399Y979246D01*
X45407Y979244D01*
X45407Y979238D01*
X46254Y978587D01*
X46262Y978587D01*
X46263Y978581D01*
X47234Y978134D01*
X47242Y978136D01*
X47244Y978131D01*
X48290Y977912D01*
X48297Y977915D01*
X48300Y977911D01*
X60300Y977911D01*
X60305Y977914D01*
G37*
G36*
X60305Y602035D02*
X60305Y602035D01*
X60308Y602031D01*
X61414Y602224D01*
X61419Y602229D01*
X61419Y602230D01*
X61424Y602227D01*
X62459Y602660D01*
X62463Y602667D01*
X62468Y602665D01*
X63381Y603318D01*
X63383Y603326D01*
X63389Y603325D01*
X64133Y604164D01*
X64134Y604173D01*
X64139Y604173D01*
X64678Y605157D01*
X64677Y605165D01*
X64678Y605166D01*
X64682Y605167D01*
X64683Y605169D01*
X64865Y605810D01*
X64989Y606246D01*
X64987Y606251D01*
X64989Y606253D01*
X64987Y606255D01*
X64991Y606257D01*
X65049Y607377D01*
X65046Y607382D01*
X65049Y607386D01*
X64931Y608431D01*
X64925Y608437D01*
X64929Y608442D01*
X64581Y609436D01*
X64574Y609440D01*
X64576Y609445D01*
X64016Y610337D01*
X64009Y610340D01*
X64009Y610345D01*
X63265Y611089D01*
X63257Y611091D01*
X63257Y611096D01*
X62365Y611656D01*
X62357Y611656D01*
X62356Y611661D01*
X61362Y612009D01*
X61354Y612006D01*
X61351Y612011D01*
X60306Y612129D01*
X60302Y612127D01*
X60300Y612129D01*
X48300Y612129D01*
X48297Y612127D01*
X48294Y612127D01*
X48292Y612129D01*
X47296Y611971D01*
X47290Y611965D01*
X47285Y611968D01*
X46349Y611593D01*
X46345Y611586D01*
X46339Y611588D01*
X45510Y611014D01*
X45507Y611006D01*
X45502Y611007D01*
X44821Y610263D01*
X44820Y610254D01*
X44814Y610254D01*
X44316Y609377D01*
X44317Y609369D01*
X44312Y609366D01*
X44124Y608742D01*
X44021Y608401D01*
X44022Y608398D01*
X44021Y608397D01*
X44024Y608393D01*
X44019Y608390D01*
X43951Y607383D01*
X43952Y607381D01*
X43951Y607380D01*
X43960Y606299D01*
X43965Y606292D01*
X43961Y606288D01*
X44211Y605236D01*
X44217Y605231D01*
X44214Y605226D01*
X44691Y604256D01*
X44699Y604253D01*
X44697Y604247D01*
X45378Y603408D01*
X45386Y603406D01*
X45386Y603400D01*
X46237Y602734D01*
X46245Y602733D01*
X46246Y602728D01*
X47223Y602267D01*
X47231Y602269D01*
X47234Y602264D01*
X48289Y602032D01*
X48297Y602035D01*
X48300Y602031D01*
X60300Y602031D01*
X60305Y602035D01*
G37*
G36*
X680065Y602035D02*
X680065Y602035D01*
X680068Y602031D01*
X681174Y602224D01*
X681179Y602229D01*
X681179Y602230D01*
X681184Y602227D01*
X682219Y602660D01*
X682223Y602667D01*
X682228Y602665D01*
X683141Y603318D01*
X683143Y603326D01*
X683149Y603325D01*
X683893Y604164D01*
X683894Y604173D01*
X683899Y604173D01*
X684438Y605157D01*
X684437Y605165D01*
X684438Y605166D01*
X684442Y605167D01*
X684443Y605169D01*
X684625Y605810D01*
X684749Y606246D01*
X684747Y606251D01*
X684749Y606253D01*
X684747Y606255D01*
X684751Y606257D01*
X684809Y607377D01*
X684806Y607382D01*
X684809Y607386D01*
X684691Y608431D01*
X684685Y608437D01*
X684689Y608442D01*
X684341Y609436D01*
X684334Y609440D01*
X684336Y609445D01*
X683776Y610337D01*
X683769Y610340D01*
X683769Y610345D01*
X683025Y611089D01*
X683017Y611091D01*
X683017Y611096D01*
X682125Y611656D01*
X682117Y611656D01*
X682116Y611661D01*
X681122Y612009D01*
X681114Y612006D01*
X681111Y612011D01*
X680066Y612129D01*
X680062Y612127D01*
X680060Y612129D01*
X668060Y612129D01*
X668057Y612127D01*
X668054Y612127D01*
X668052Y612129D01*
X667056Y611971D01*
X667050Y611965D01*
X667045Y611968D01*
X666109Y611593D01*
X666105Y611586D01*
X666099Y611588D01*
X665270Y611014D01*
X665267Y611006D01*
X665262Y611007D01*
X664581Y610263D01*
X664580Y610254D01*
X664574Y610254D01*
X664076Y609377D01*
X664077Y609369D01*
X664072Y609366D01*
X663884Y608742D01*
X663781Y608401D01*
X663782Y608398D01*
X663781Y608397D01*
X663784Y608393D01*
X663779Y608390D01*
X663711Y607383D01*
X663712Y607381D01*
X663711Y607380D01*
X663720Y606299D01*
X663725Y606292D01*
X663721Y606288D01*
X663971Y605236D01*
X663977Y605231D01*
X663974Y605226D01*
X664451Y604256D01*
X664459Y604253D01*
X664457Y604247D01*
X665138Y603408D01*
X665146Y603406D01*
X665146Y603400D01*
X665997Y602734D01*
X666005Y602733D01*
X666006Y602728D01*
X666983Y602267D01*
X666991Y602269D01*
X666994Y602264D01*
X668049Y602032D01*
X668057Y602035D01*
X668060Y602031D01*
X680060Y602031D01*
X680065Y602035D01*
G37*
G36*
X680065Y1064315D02*
X680065Y1064315D01*
X680068Y1064311D01*
X681174Y1064504D01*
X681179Y1064509D01*
X681179Y1064510D01*
X681184Y1064507D01*
X682219Y1064940D01*
X682223Y1064947D01*
X682228Y1064945D01*
X683141Y1065598D01*
X683143Y1065606D01*
X683149Y1065605D01*
X683893Y1066444D01*
X683894Y1066453D01*
X683899Y1066453D01*
X684438Y1067437D01*
X684437Y1067445D01*
X684438Y1067446D01*
X684442Y1067447D01*
X684443Y1067449D01*
X684625Y1068090D01*
X684749Y1068526D01*
X684747Y1068531D01*
X684749Y1068533D01*
X684747Y1068535D01*
X684751Y1068537D01*
X684809Y1069657D01*
X684806Y1069662D01*
X684809Y1069666D01*
X684691Y1070711D01*
X684685Y1070717D01*
X684689Y1070722D01*
X684341Y1071716D01*
X684334Y1071720D01*
X684336Y1071725D01*
X683776Y1072617D01*
X683769Y1072620D01*
X683769Y1072625D01*
X683025Y1073369D01*
X683017Y1073371D01*
X683017Y1073376D01*
X682125Y1073936D01*
X682117Y1073936D01*
X682116Y1073941D01*
X681122Y1074289D01*
X681114Y1074286D01*
X681111Y1074291D01*
X680066Y1074409D01*
X680062Y1074407D01*
X680060Y1074409D01*
X668060Y1074409D01*
X668057Y1074407D01*
X668054Y1074407D01*
X668052Y1074409D01*
X667056Y1074251D01*
X667050Y1074245D01*
X667045Y1074248D01*
X666109Y1073873D01*
X666105Y1073866D01*
X666099Y1073868D01*
X665270Y1073294D01*
X665267Y1073286D01*
X665262Y1073287D01*
X664581Y1072543D01*
X664580Y1072534D01*
X664574Y1072534D01*
X664076Y1071657D01*
X664077Y1071649D01*
X664072Y1071646D01*
X663884Y1071022D01*
X663781Y1070681D01*
X663782Y1070678D01*
X663781Y1070677D01*
X663784Y1070673D01*
X663779Y1070670D01*
X663711Y1069663D01*
X663712Y1069661D01*
X663711Y1069660D01*
X663720Y1068579D01*
X663725Y1068572D01*
X663721Y1068568D01*
X663971Y1067516D01*
X663977Y1067511D01*
X663974Y1067506D01*
X664451Y1066536D01*
X664459Y1066533D01*
X664457Y1066527D01*
X665138Y1065688D01*
X665146Y1065686D01*
X665146Y1065680D01*
X665997Y1065014D01*
X666005Y1065013D01*
X666006Y1065008D01*
X666983Y1064547D01*
X666991Y1064549D01*
X666994Y1064544D01*
X668049Y1064312D01*
X668057Y1064315D01*
X668060Y1064311D01*
X680060Y1064311D01*
X680065Y1064315D01*
G37*
G36*
X60305Y1064315D02*
X60305Y1064315D01*
X60308Y1064311D01*
X61414Y1064504D01*
X61419Y1064509D01*
X61419Y1064510D01*
X61424Y1064507D01*
X62459Y1064940D01*
X62463Y1064947D01*
X62468Y1064945D01*
X63381Y1065598D01*
X63383Y1065606D01*
X63389Y1065605D01*
X64133Y1066444D01*
X64134Y1066453D01*
X64139Y1066453D01*
X64678Y1067437D01*
X64677Y1067445D01*
X64678Y1067446D01*
X64682Y1067447D01*
X64683Y1067449D01*
X64865Y1068090D01*
X64989Y1068526D01*
X64987Y1068531D01*
X64989Y1068533D01*
X64987Y1068535D01*
X64991Y1068537D01*
X65049Y1069657D01*
X65046Y1069662D01*
X65049Y1069666D01*
X64931Y1070711D01*
X64925Y1070717D01*
X64929Y1070722D01*
X64581Y1071716D01*
X64574Y1071720D01*
X64576Y1071725D01*
X64016Y1072617D01*
X64009Y1072620D01*
X64009Y1072625D01*
X63265Y1073369D01*
X63257Y1073371D01*
X63257Y1073376D01*
X62365Y1073936D01*
X62357Y1073936D01*
X62356Y1073941D01*
X61362Y1074289D01*
X61354Y1074286D01*
X61351Y1074291D01*
X60306Y1074409D01*
X60302Y1074407D01*
X60300Y1074409D01*
X48300Y1074409D01*
X48297Y1074407D01*
X48294Y1074407D01*
X48292Y1074409D01*
X47296Y1074251D01*
X47290Y1074245D01*
X47285Y1074248D01*
X46349Y1073873D01*
X46345Y1073866D01*
X46339Y1073868D01*
X45510Y1073294D01*
X45507Y1073286D01*
X45502Y1073287D01*
X44821Y1072543D01*
X44820Y1072534D01*
X44814Y1072534D01*
X44316Y1071657D01*
X44317Y1071649D01*
X44312Y1071646D01*
X44124Y1071022D01*
X44021Y1070681D01*
X44022Y1070678D01*
X44021Y1070677D01*
X44024Y1070673D01*
X44019Y1070670D01*
X43951Y1069663D01*
X43952Y1069661D01*
X43951Y1069660D01*
X43960Y1068579D01*
X43965Y1068572D01*
X43961Y1068568D01*
X44211Y1067516D01*
X44217Y1067511D01*
X44214Y1067506D01*
X44691Y1066536D01*
X44699Y1066533D01*
X44697Y1066527D01*
X45378Y1065688D01*
X45386Y1065686D01*
X45386Y1065680D01*
X46237Y1065014D01*
X46245Y1065013D01*
X46246Y1065008D01*
X47223Y1064547D01*
X47231Y1064549D01*
X47234Y1064544D01*
X48289Y1064312D01*
X48297Y1064315D01*
X48300Y1064311D01*
X60300Y1064311D01*
X60305Y1064315D01*
G37*
G36*
X680065Y139755D02*
X680065Y139755D01*
X680068Y139751D01*
X681174Y139944D01*
X681179Y139949D01*
X681179Y139950D01*
X681184Y139947D01*
X682219Y140380D01*
X682223Y140387D01*
X682228Y140385D01*
X683141Y141038D01*
X683143Y141046D01*
X683149Y141045D01*
X683893Y141884D01*
X683894Y141893D01*
X683899Y141893D01*
X684438Y142877D01*
X684437Y142885D01*
X684438Y142886D01*
X684442Y142887D01*
X684443Y142889D01*
X684625Y143530D01*
X684749Y143966D01*
X684747Y143971D01*
X684749Y143973D01*
X684747Y143975D01*
X684751Y143977D01*
X684809Y145097D01*
X684806Y145102D01*
X684809Y145106D01*
X684691Y146151D01*
X684685Y146157D01*
X684689Y146162D01*
X684341Y147156D01*
X684334Y147160D01*
X684336Y147165D01*
X683776Y148057D01*
X683769Y148060D01*
X683769Y148065D01*
X683025Y148809D01*
X683017Y148811D01*
X683017Y148816D01*
X682125Y149376D01*
X682117Y149376D01*
X682116Y149381D01*
X681122Y149729D01*
X681114Y149726D01*
X681111Y149731D01*
X680066Y149849D01*
X680062Y149847D01*
X680060Y149849D01*
X668060Y149849D01*
X668057Y149847D01*
X668054Y149847D01*
X668052Y149849D01*
X667056Y149691D01*
X667050Y149685D01*
X667045Y149688D01*
X666109Y149313D01*
X666105Y149306D01*
X666099Y149308D01*
X665270Y148734D01*
X665267Y148726D01*
X665262Y148727D01*
X664581Y147983D01*
X664580Y147974D01*
X664574Y147974D01*
X664076Y147097D01*
X664077Y147089D01*
X664072Y147086D01*
X663884Y146462D01*
X663781Y146121D01*
X663782Y146118D01*
X663781Y146117D01*
X663784Y146113D01*
X663779Y146110D01*
X663711Y145103D01*
X663712Y145101D01*
X663711Y145100D01*
X663720Y144019D01*
X663725Y144012D01*
X663721Y144008D01*
X663971Y142956D01*
X663977Y142951D01*
X663974Y142946D01*
X664451Y141976D01*
X664459Y141973D01*
X664457Y141967D01*
X665138Y141128D01*
X665146Y141126D01*
X665146Y141120D01*
X665997Y140454D01*
X666005Y140453D01*
X666006Y140448D01*
X666983Y139987D01*
X666991Y139989D01*
X666994Y139984D01*
X668049Y139752D01*
X668057Y139755D01*
X668060Y139751D01*
X680060Y139751D01*
X680065Y139755D01*
G37*
G36*
X60305Y139755D02*
X60305Y139755D01*
X60308Y139751D01*
X61414Y139944D01*
X61419Y139949D01*
X61419Y139950D01*
X61424Y139947D01*
X62459Y140380D01*
X62463Y140387D01*
X62468Y140385D01*
X63381Y141038D01*
X63383Y141046D01*
X63389Y141045D01*
X64133Y141884D01*
X64134Y141893D01*
X64139Y141893D01*
X64678Y142877D01*
X64677Y142885D01*
X64678Y142886D01*
X64682Y142887D01*
X64683Y142889D01*
X64865Y143530D01*
X64989Y143966D01*
X64987Y143971D01*
X64989Y143973D01*
X64987Y143975D01*
X64991Y143977D01*
X65049Y145097D01*
X65046Y145102D01*
X65049Y145106D01*
X64931Y146151D01*
X64925Y146157D01*
X64929Y146162D01*
X64581Y147156D01*
X64574Y147160D01*
X64576Y147165D01*
X64016Y148057D01*
X64009Y148060D01*
X64009Y148065D01*
X63265Y148809D01*
X63257Y148811D01*
X63257Y148816D01*
X62365Y149376D01*
X62357Y149376D01*
X62356Y149381D01*
X61362Y149729D01*
X61354Y149726D01*
X61351Y149731D01*
X60306Y149849D01*
X60302Y149847D01*
X60300Y149849D01*
X48300Y149849D01*
X48297Y149847D01*
X48294Y149847D01*
X48292Y149849D01*
X47296Y149691D01*
X47290Y149685D01*
X47285Y149688D01*
X46349Y149313D01*
X46345Y149306D01*
X46339Y149308D01*
X45510Y148734D01*
X45507Y148726D01*
X45502Y148727D01*
X44821Y147983D01*
X44820Y147974D01*
X44814Y147974D01*
X44316Y147097D01*
X44317Y147089D01*
X44312Y147086D01*
X44124Y146462D01*
X44021Y146121D01*
X44022Y146118D01*
X44021Y146117D01*
X44024Y146113D01*
X44019Y146110D01*
X43951Y145103D01*
X43952Y145101D01*
X43951Y145100D01*
X43960Y144019D01*
X43965Y144012D01*
X43961Y144008D01*
X44211Y142956D01*
X44217Y142951D01*
X44214Y142946D01*
X44691Y141976D01*
X44699Y141973D01*
X44697Y141967D01*
X45378Y141128D01*
X45386Y141126D01*
X45386Y141120D01*
X46237Y140454D01*
X46245Y140453D01*
X46246Y140448D01*
X47223Y139987D01*
X47231Y139989D01*
X47234Y139984D01*
X48289Y139752D01*
X48297Y139755D01*
X48300Y139751D01*
X60300Y139751D01*
X60305Y139755D01*
G37*
G36*
X15504Y515634D02*
X15504Y515634D01*
X15506Y515631D01*
X16639Y515781D01*
X16645Y515787D01*
X16650Y515784D01*
X17720Y516182D01*
X17724Y516189D01*
X17730Y516187D01*
X18685Y516814D01*
X18688Y516822D01*
X18693Y516821D01*
X19485Y517644D01*
X19486Y517652D01*
X19492Y517653D01*
X20081Y518632D01*
X20080Y518640D01*
X20085Y518642D01*
X20441Y519727D01*
X20439Y519735D01*
X20443Y519738D01*
X20549Y520875D01*
X20544Y520884D01*
X20548Y520889D01*
X20341Y522026D01*
X20335Y522032D01*
X20338Y522037D01*
X19883Y523099D01*
X19876Y523103D01*
X19878Y523109D01*
X19198Y524044D01*
X19190Y524046D01*
X19191Y524052D01*
X18320Y524812D01*
X18312Y524812D01*
X18311Y524818D01*
X17292Y525365D01*
X17284Y525364D01*
X17282Y525369D01*
X16168Y525676D01*
X16160Y525673D01*
X16157Y525678D01*
X15002Y525729D01*
X15001Y525728D01*
X15000Y525729D01*
X9000Y525729D01*
X8997Y525727D01*
X8992Y525727D01*
X8991Y525728D01*
X7910Y525516D01*
X7905Y525510D01*
X7900Y525513D01*
X6894Y525066D01*
X6890Y525059D01*
X6884Y525061D01*
X6003Y524401D01*
X6000Y524393D01*
X5995Y524393D01*
X5282Y523554D01*
X5282Y523546D01*
X5276Y523545D01*
X4768Y522568D01*
X4769Y522560D01*
X4764Y522558D01*
X4486Y521493D01*
X4489Y521485D01*
X4485Y521482D01*
X4451Y520382D01*
X4455Y520376D01*
X4451Y520373D01*
X4606Y519298D01*
X4612Y519292D01*
X4609Y519287D01*
X4999Y518273D01*
X5006Y518269D01*
X5005Y518263D01*
X5611Y517361D01*
X5619Y517359D01*
X5618Y517353D01*
X6410Y516609D01*
X6418Y516608D01*
X6418Y516602D01*
X7356Y516053D01*
X7364Y516054D01*
X7366Y516048D01*
X8402Y515721D01*
X8410Y515724D01*
X8413Y515719D01*
X9496Y515631D01*
X9499Y515633D01*
X9500Y515631D01*
X15500Y515631D01*
X15504Y515634D01*
G37*
G36*
X635264Y515634D02*
X635264Y515634D01*
X635266Y515631D01*
X636399Y515781D01*
X636405Y515787D01*
X636410Y515784D01*
X637480Y516182D01*
X637484Y516189D01*
X637490Y516187D01*
X638445Y516814D01*
X638448Y516822D01*
X638453Y516821D01*
X639245Y517644D01*
X639246Y517652D01*
X639252Y517653D01*
X639841Y518632D01*
X639840Y518640D01*
X639845Y518642D01*
X640201Y519727D01*
X640199Y519735D01*
X640203Y519738D01*
X640309Y520875D01*
X640304Y520884D01*
X640308Y520889D01*
X640101Y522026D01*
X640095Y522032D01*
X640098Y522037D01*
X639643Y523099D01*
X639636Y523103D01*
X639638Y523109D01*
X638958Y524044D01*
X638950Y524046D01*
X638951Y524052D01*
X638080Y524812D01*
X638072Y524812D01*
X638071Y524818D01*
X637052Y525365D01*
X637044Y525364D01*
X637042Y525369D01*
X635928Y525676D01*
X635920Y525673D01*
X635917Y525678D01*
X634762Y525729D01*
X634761Y525728D01*
X634760Y525729D01*
X628760Y525729D01*
X628757Y525727D01*
X628752Y525727D01*
X628751Y525728D01*
X627670Y525516D01*
X627665Y525510D01*
X627660Y525513D01*
X626654Y525066D01*
X626650Y525059D01*
X626644Y525061D01*
X625763Y524401D01*
X625760Y524393D01*
X625755Y524393D01*
X625042Y523554D01*
X625042Y523546D01*
X625036Y523545D01*
X624528Y522568D01*
X624529Y522560D01*
X624524Y522558D01*
X624246Y521493D01*
X624249Y521485D01*
X624245Y521482D01*
X624211Y520382D01*
X624215Y520376D01*
X624211Y520373D01*
X624366Y519298D01*
X624372Y519292D01*
X624369Y519287D01*
X624759Y518273D01*
X624766Y518269D01*
X624765Y518263D01*
X625371Y517361D01*
X625379Y517359D01*
X625378Y517353D01*
X626170Y516609D01*
X626178Y516608D01*
X626178Y516602D01*
X627116Y516053D01*
X627124Y516054D01*
X627126Y516048D01*
X628162Y515721D01*
X628170Y515724D01*
X628173Y515719D01*
X629256Y515631D01*
X629259Y515633D01*
X629260Y515631D01*
X635260Y515631D01*
X635264Y515634D01*
G37*
G36*
X15504Y53354D02*
X15504Y53354D01*
X15506Y53351D01*
X16639Y53501D01*
X16645Y53507D01*
X16650Y53504D01*
X17720Y53902D01*
X17724Y53909D01*
X17730Y53907D01*
X18685Y54534D01*
X18688Y54542D01*
X18693Y54541D01*
X19485Y55364D01*
X19486Y55372D01*
X19492Y55373D01*
X20081Y56352D01*
X20080Y56360D01*
X20085Y56362D01*
X20441Y57447D01*
X20439Y57455D01*
X20443Y57458D01*
X20549Y58595D01*
X20544Y58604D01*
X20548Y58609D01*
X20341Y59746D01*
X20335Y59752D01*
X20338Y59757D01*
X19883Y60819D01*
X19876Y60823D01*
X19878Y60829D01*
X19198Y61764D01*
X19190Y61766D01*
X19191Y61772D01*
X18320Y62532D01*
X18312Y62532D01*
X18311Y62538D01*
X17292Y63085D01*
X17284Y63084D01*
X17282Y63089D01*
X16168Y63396D01*
X16160Y63393D01*
X16157Y63398D01*
X15002Y63449D01*
X15001Y63448D01*
X15000Y63449D01*
X9000Y63449D01*
X8997Y63447D01*
X8992Y63447D01*
X8991Y63448D01*
X7910Y63236D01*
X7905Y63230D01*
X7900Y63233D01*
X6894Y62786D01*
X6890Y62779D01*
X6884Y62781D01*
X6003Y62121D01*
X6000Y62113D01*
X5995Y62113D01*
X5282Y61274D01*
X5282Y61266D01*
X5276Y61265D01*
X4768Y60288D01*
X4769Y60280D01*
X4764Y60278D01*
X4486Y59213D01*
X4489Y59205D01*
X4485Y59202D01*
X4451Y58102D01*
X4455Y58096D01*
X4451Y58093D01*
X4606Y57018D01*
X4612Y57012D01*
X4609Y57007D01*
X4999Y55993D01*
X5006Y55989D01*
X5005Y55983D01*
X5611Y55081D01*
X5619Y55079D01*
X5618Y55073D01*
X6410Y54329D01*
X6418Y54328D01*
X6418Y54322D01*
X7356Y53773D01*
X7364Y53774D01*
X7366Y53768D01*
X8402Y53441D01*
X8410Y53444D01*
X8413Y53439D01*
X9496Y53351D01*
X9499Y53353D01*
X9500Y53351D01*
X15500Y53351D01*
X15504Y53354D01*
G37*
G36*
X635264Y53354D02*
X635264Y53354D01*
X635266Y53351D01*
X636399Y53501D01*
X636405Y53507D01*
X636410Y53504D01*
X637480Y53902D01*
X637484Y53909D01*
X637490Y53907D01*
X638445Y54534D01*
X638448Y54542D01*
X638453Y54541D01*
X639245Y55364D01*
X639246Y55372D01*
X639252Y55373D01*
X639841Y56352D01*
X639840Y56360D01*
X639845Y56362D01*
X640201Y57447D01*
X640199Y57455D01*
X640203Y57458D01*
X640309Y58595D01*
X640304Y58604D01*
X640308Y58609D01*
X640101Y59746D01*
X640095Y59752D01*
X640098Y59757D01*
X639643Y60819D01*
X639636Y60823D01*
X639638Y60829D01*
X638958Y61764D01*
X638950Y61766D01*
X638951Y61772D01*
X638080Y62532D01*
X638072Y62532D01*
X638071Y62538D01*
X637052Y63085D01*
X637044Y63084D01*
X637042Y63089D01*
X635928Y63396D01*
X635920Y63393D01*
X635917Y63398D01*
X634762Y63449D01*
X634761Y63448D01*
X634760Y63449D01*
X628760Y63449D01*
X628757Y63447D01*
X628752Y63447D01*
X628751Y63448D01*
X627670Y63236D01*
X627665Y63230D01*
X627660Y63233D01*
X626654Y62786D01*
X626650Y62779D01*
X626644Y62781D01*
X625763Y62121D01*
X625760Y62113D01*
X625755Y62113D01*
X625042Y61274D01*
X625042Y61266D01*
X625036Y61265D01*
X624528Y60288D01*
X624529Y60280D01*
X624524Y60278D01*
X624246Y59213D01*
X624249Y59205D01*
X624245Y59202D01*
X624211Y58102D01*
X624215Y58096D01*
X624211Y58093D01*
X624366Y57018D01*
X624372Y57012D01*
X624369Y57007D01*
X624759Y55993D01*
X624766Y55989D01*
X624765Y55983D01*
X625371Y55081D01*
X625379Y55079D01*
X625378Y55073D01*
X626170Y54329D01*
X626178Y54328D01*
X626178Y54322D01*
X627116Y53773D01*
X627124Y53774D01*
X627126Y53768D01*
X628162Y53441D01*
X628170Y53444D01*
X628173Y53439D01*
X629256Y53351D01*
X629259Y53353D01*
X629260Y53351D01*
X635260Y53351D01*
X635264Y53354D01*
G37*
G36*
X635264Y977914D02*
X635264Y977914D01*
X635266Y977911D01*
X636399Y978061D01*
X636405Y978067D01*
X636410Y978064D01*
X637480Y978462D01*
X637484Y978469D01*
X637490Y978467D01*
X638445Y979094D01*
X638448Y979102D01*
X638453Y979101D01*
X639245Y979924D01*
X639246Y979932D01*
X639252Y979933D01*
X639841Y980912D01*
X639840Y980920D01*
X639845Y980922D01*
X640201Y982007D01*
X640199Y982015D01*
X640203Y982018D01*
X640309Y983155D01*
X640304Y983164D01*
X640308Y983169D01*
X640101Y984306D01*
X640095Y984312D01*
X640098Y984317D01*
X639643Y985379D01*
X639636Y985383D01*
X639638Y985389D01*
X638958Y986324D01*
X638950Y986326D01*
X638951Y986332D01*
X638080Y987092D01*
X638072Y987092D01*
X638071Y987098D01*
X637052Y987645D01*
X637044Y987644D01*
X637042Y987649D01*
X635928Y987956D01*
X635920Y987953D01*
X635917Y987958D01*
X634762Y988009D01*
X634761Y988008D01*
X634760Y988009D01*
X628760Y988009D01*
X628757Y988007D01*
X628752Y988007D01*
X628751Y988008D01*
X627670Y987796D01*
X627665Y987790D01*
X627660Y987793D01*
X626654Y987346D01*
X626650Y987339D01*
X626644Y987341D01*
X625763Y986681D01*
X625760Y986673D01*
X625755Y986673D01*
X625042Y985834D01*
X625042Y985826D01*
X625036Y985825D01*
X624528Y984848D01*
X624529Y984840D01*
X624524Y984838D01*
X624246Y983773D01*
X624249Y983765D01*
X624245Y983762D01*
X624211Y982662D01*
X624215Y982656D01*
X624211Y982653D01*
X624366Y981578D01*
X624372Y981572D01*
X624369Y981567D01*
X624759Y980553D01*
X624766Y980549D01*
X624765Y980543D01*
X625371Y979641D01*
X625379Y979639D01*
X625378Y979633D01*
X626170Y978889D01*
X626178Y978888D01*
X626178Y978882D01*
X627116Y978333D01*
X627124Y978334D01*
X627126Y978328D01*
X628162Y978001D01*
X628170Y978004D01*
X628173Y977999D01*
X629256Y977911D01*
X629259Y977913D01*
X629260Y977911D01*
X635260Y977911D01*
X635264Y977914D01*
G37*
G36*
X15504Y977914D02*
X15504Y977914D01*
X15506Y977911D01*
X16639Y978061D01*
X16645Y978067D01*
X16650Y978064D01*
X17720Y978462D01*
X17724Y978469D01*
X17730Y978467D01*
X18685Y979094D01*
X18688Y979102D01*
X18693Y979101D01*
X19485Y979924D01*
X19486Y979932D01*
X19492Y979933D01*
X20081Y980912D01*
X20080Y980920D01*
X20085Y980922D01*
X20441Y982007D01*
X20439Y982015D01*
X20443Y982018D01*
X20549Y983155D01*
X20544Y983164D01*
X20548Y983169D01*
X20341Y984306D01*
X20335Y984312D01*
X20338Y984317D01*
X19883Y985379D01*
X19876Y985383D01*
X19878Y985389D01*
X19198Y986324D01*
X19190Y986326D01*
X19191Y986332D01*
X18320Y987092D01*
X18312Y987092D01*
X18311Y987098D01*
X17292Y987645D01*
X17284Y987644D01*
X17282Y987649D01*
X16168Y987956D01*
X16160Y987953D01*
X16157Y987958D01*
X15002Y988009D01*
X15001Y988008D01*
X15000Y988009D01*
X9000Y988009D01*
X8997Y988007D01*
X8992Y988007D01*
X8991Y988008D01*
X7910Y987796D01*
X7905Y987790D01*
X7900Y987793D01*
X6894Y987346D01*
X6890Y987339D01*
X6884Y987341D01*
X6003Y986681D01*
X6000Y986673D01*
X5995Y986673D01*
X5282Y985834D01*
X5282Y985826D01*
X5276Y985825D01*
X4768Y984848D01*
X4769Y984840D01*
X4764Y984838D01*
X4486Y983773D01*
X4489Y983765D01*
X4485Y983762D01*
X4451Y982662D01*
X4455Y982656D01*
X4451Y982653D01*
X4606Y981578D01*
X4612Y981572D01*
X4609Y981567D01*
X4999Y980553D01*
X5006Y980549D01*
X5005Y980543D01*
X5611Y979641D01*
X5619Y979639D01*
X5618Y979633D01*
X6410Y978889D01*
X6418Y978888D01*
X6418Y978882D01*
X7356Y978333D01*
X7364Y978334D01*
X7366Y978328D01*
X8402Y978001D01*
X8410Y978004D01*
X8413Y977999D01*
X9496Y977911D01*
X9499Y977913D01*
X9500Y977911D01*
X15500Y977911D01*
X15504Y977914D01*
G37*
G36*
X635263Y1064313D02*
X635263Y1064313D01*
X635265Y1064311D01*
X636357Y1064412D01*
X636363Y1064417D01*
X636368Y1064414D01*
X637411Y1064755D01*
X637416Y1064762D01*
X637421Y1064760D01*
X638362Y1065324D01*
X638365Y1065332D01*
X638371Y1065331D01*
X639163Y1066091D01*
X639164Y1066099D01*
X639170Y1066100D01*
X639773Y1067017D01*
X639772Y1067025D01*
X639778Y1067027D01*
X640161Y1068055D01*
X640159Y1068063D01*
X640164Y1068066D01*
X640309Y1069154D01*
X640305Y1069161D01*
X640309Y1069165D01*
X640203Y1070302D01*
X640198Y1070308D01*
X640201Y1070313D01*
X639845Y1071398D01*
X639838Y1071403D01*
X639841Y1071408D01*
X639252Y1072387D01*
X639244Y1072390D01*
X639245Y1072396D01*
X638453Y1073219D01*
X638445Y1073220D01*
X638445Y1073226D01*
X637490Y1073853D01*
X637482Y1073852D01*
X637480Y1073858D01*
X636410Y1074256D01*
X636402Y1074254D01*
X636399Y1074259D01*
X635266Y1074409D01*
X635263Y1074407D01*
X635262Y1074407D01*
X635260Y1074409D01*
X629260Y1074409D01*
X629257Y1074407D01*
X629255Y1074407D01*
X629254Y1074409D01*
X628121Y1074259D01*
X628115Y1074253D01*
X628110Y1074256D01*
X627040Y1073858D01*
X627036Y1073851D01*
X627030Y1073853D01*
X626075Y1073226D01*
X626072Y1073218D01*
X626067Y1073219D01*
X625275Y1072396D01*
X625274Y1072388D01*
X625268Y1072387D01*
X624679Y1071408D01*
X624680Y1071400D01*
X624675Y1071398D01*
X624319Y1070313D01*
X624322Y1070305D01*
X624317Y1070302D01*
X624211Y1069165D01*
X624215Y1069158D01*
X624211Y1069154D01*
X624356Y1068066D01*
X624362Y1068060D01*
X624359Y1068055D01*
X624743Y1067027D01*
X624749Y1067022D01*
X624748Y1067017D01*
X625350Y1066100D01*
X625358Y1066097D01*
X625357Y1066091D01*
X626149Y1065331D01*
X626157Y1065330D01*
X626158Y1065324D01*
X627099Y1064760D01*
X627107Y1064761D01*
X627109Y1064755D01*
X628152Y1064414D01*
X628160Y1064416D01*
X628163Y1064412D01*
X629256Y1064311D01*
X629258Y1064313D01*
X629260Y1064311D01*
X635260Y1064311D01*
X635263Y1064313D01*
G37*
G36*
X15503Y1064313D02*
X15503Y1064313D01*
X15505Y1064311D01*
X16597Y1064412D01*
X16603Y1064417D01*
X16608Y1064414D01*
X17651Y1064755D01*
X17656Y1064762D01*
X17661Y1064760D01*
X18602Y1065324D01*
X18605Y1065332D01*
X18611Y1065331D01*
X19403Y1066091D01*
X19404Y1066099D01*
X19410Y1066100D01*
X20013Y1067017D01*
X20012Y1067025D01*
X20018Y1067027D01*
X20401Y1068055D01*
X20399Y1068063D01*
X20404Y1068066D01*
X20549Y1069154D01*
X20545Y1069161D01*
X20549Y1069165D01*
X20443Y1070302D01*
X20438Y1070308D01*
X20441Y1070313D01*
X20085Y1071398D01*
X20078Y1071403D01*
X20081Y1071408D01*
X19492Y1072387D01*
X19484Y1072390D01*
X19485Y1072396D01*
X18693Y1073219D01*
X18685Y1073220D01*
X18685Y1073226D01*
X17730Y1073853D01*
X17722Y1073852D01*
X17720Y1073858D01*
X16650Y1074256D01*
X16642Y1074254D01*
X16639Y1074259D01*
X15506Y1074409D01*
X15503Y1074407D01*
X15502Y1074407D01*
X15500Y1074409D01*
X9500Y1074409D01*
X9497Y1074407D01*
X9495Y1074407D01*
X9494Y1074409D01*
X8361Y1074259D01*
X8355Y1074253D01*
X8350Y1074256D01*
X7280Y1073858D01*
X7276Y1073851D01*
X7270Y1073853D01*
X6315Y1073226D01*
X6312Y1073218D01*
X6307Y1073219D01*
X5515Y1072396D01*
X5514Y1072388D01*
X5508Y1072387D01*
X4919Y1071408D01*
X4920Y1071400D01*
X4915Y1071398D01*
X4559Y1070313D01*
X4562Y1070305D01*
X4557Y1070302D01*
X4451Y1069165D01*
X4455Y1069158D01*
X4451Y1069154D01*
X4596Y1068066D01*
X4602Y1068060D01*
X4599Y1068055D01*
X4983Y1067027D01*
X4989Y1067022D01*
X4988Y1067017D01*
X5590Y1066100D01*
X5598Y1066097D01*
X5597Y1066091D01*
X6389Y1065331D01*
X6397Y1065330D01*
X6398Y1065324D01*
X7339Y1064760D01*
X7347Y1064761D01*
X7349Y1064755D01*
X8392Y1064414D01*
X8400Y1064416D01*
X8403Y1064412D01*
X9496Y1064311D01*
X9498Y1064313D01*
X9500Y1064311D01*
X15500Y1064311D01*
X15503Y1064313D01*
G37*
G36*
X15503Y139753D02*
X15503Y139753D01*
X15505Y139751D01*
X16597Y139852D01*
X16603Y139857D01*
X16608Y139854D01*
X17651Y140195D01*
X17656Y140202D01*
X17661Y140200D01*
X18602Y140764D01*
X18605Y140772D01*
X18611Y140771D01*
X19403Y141531D01*
X19404Y141539D01*
X19410Y141540D01*
X20013Y142457D01*
X20012Y142465D01*
X20018Y142467D01*
X20401Y143495D01*
X20399Y143503D01*
X20404Y143506D01*
X20549Y144594D01*
X20545Y144601D01*
X20549Y144605D01*
X20443Y145742D01*
X20438Y145748D01*
X20441Y145753D01*
X20085Y146838D01*
X20078Y146843D01*
X20081Y146848D01*
X19492Y147827D01*
X19484Y147830D01*
X19485Y147836D01*
X18693Y148659D01*
X18685Y148660D01*
X18685Y148666D01*
X17730Y149293D01*
X17722Y149292D01*
X17720Y149298D01*
X16650Y149696D01*
X16642Y149694D01*
X16639Y149699D01*
X15506Y149849D01*
X15503Y149847D01*
X15502Y149847D01*
X15500Y149849D01*
X9500Y149849D01*
X9497Y149847D01*
X9495Y149847D01*
X9494Y149849D01*
X8361Y149699D01*
X8355Y149693D01*
X8350Y149696D01*
X7280Y149298D01*
X7276Y149291D01*
X7270Y149293D01*
X6315Y148666D01*
X6312Y148658D01*
X6307Y148659D01*
X5515Y147836D01*
X5514Y147828D01*
X5508Y147827D01*
X4919Y146848D01*
X4920Y146840D01*
X4915Y146838D01*
X4559Y145753D01*
X4562Y145745D01*
X4557Y145742D01*
X4451Y144605D01*
X4455Y144598D01*
X4451Y144594D01*
X4596Y143506D01*
X4602Y143500D01*
X4599Y143495D01*
X4983Y142467D01*
X4989Y142462D01*
X4988Y142457D01*
X5590Y141540D01*
X5598Y141537D01*
X5597Y141531D01*
X6389Y140771D01*
X6397Y140770D01*
X6398Y140764D01*
X7339Y140200D01*
X7347Y140201D01*
X7349Y140195D01*
X8392Y139854D01*
X8400Y139856D01*
X8403Y139852D01*
X9496Y139751D01*
X9498Y139753D01*
X9500Y139751D01*
X15500Y139751D01*
X15503Y139753D01*
G37*
G36*
X15503Y602033D02*
X15503Y602033D01*
X15505Y602031D01*
X16597Y602132D01*
X16603Y602137D01*
X16608Y602134D01*
X17651Y602475D01*
X17656Y602482D01*
X17661Y602480D01*
X18602Y603044D01*
X18605Y603052D01*
X18611Y603051D01*
X19403Y603811D01*
X19404Y603819D01*
X19410Y603820D01*
X20013Y604737D01*
X20012Y604745D01*
X20018Y604747D01*
X20401Y605775D01*
X20399Y605783D01*
X20404Y605786D01*
X20549Y606874D01*
X20545Y606881D01*
X20549Y606885D01*
X20443Y608022D01*
X20438Y608028D01*
X20441Y608033D01*
X20085Y609118D01*
X20078Y609123D01*
X20081Y609128D01*
X19492Y610107D01*
X19484Y610110D01*
X19485Y610116D01*
X18693Y610939D01*
X18685Y610940D01*
X18685Y610946D01*
X17730Y611573D01*
X17722Y611572D01*
X17720Y611578D01*
X16650Y611976D01*
X16642Y611974D01*
X16639Y611979D01*
X15506Y612129D01*
X15503Y612127D01*
X15502Y612127D01*
X15500Y612129D01*
X9500Y612129D01*
X9497Y612127D01*
X9495Y612127D01*
X9494Y612129D01*
X8361Y611979D01*
X8355Y611973D01*
X8350Y611976D01*
X7280Y611578D01*
X7276Y611571D01*
X7270Y611573D01*
X6315Y610946D01*
X6312Y610938D01*
X6307Y610939D01*
X5515Y610116D01*
X5514Y610108D01*
X5508Y610107D01*
X4919Y609128D01*
X4920Y609120D01*
X4915Y609118D01*
X4559Y608033D01*
X4562Y608025D01*
X4557Y608022D01*
X4451Y606885D01*
X4455Y606878D01*
X4451Y606874D01*
X4596Y605786D01*
X4602Y605780D01*
X4599Y605775D01*
X4983Y604747D01*
X4989Y604742D01*
X4988Y604737D01*
X5590Y603820D01*
X5598Y603817D01*
X5597Y603811D01*
X6389Y603051D01*
X6397Y603050D01*
X6398Y603044D01*
X7339Y602480D01*
X7347Y602481D01*
X7349Y602475D01*
X8392Y602134D01*
X8400Y602136D01*
X8403Y602132D01*
X9496Y602031D01*
X9498Y602033D01*
X9500Y602031D01*
X15500Y602031D01*
X15503Y602033D01*
G37*
G36*
X635263Y602033D02*
X635263Y602033D01*
X635265Y602031D01*
X636357Y602132D01*
X636363Y602137D01*
X636368Y602134D01*
X637411Y602475D01*
X637416Y602482D01*
X637421Y602480D01*
X638362Y603044D01*
X638365Y603052D01*
X638371Y603051D01*
X639163Y603811D01*
X639164Y603819D01*
X639170Y603820D01*
X639773Y604737D01*
X639772Y604745D01*
X639778Y604747D01*
X640161Y605775D01*
X640159Y605783D01*
X640164Y605786D01*
X640309Y606874D01*
X640305Y606881D01*
X640309Y606885D01*
X640203Y608022D01*
X640198Y608028D01*
X640201Y608033D01*
X639845Y609118D01*
X639838Y609123D01*
X639841Y609128D01*
X639252Y610107D01*
X639244Y610110D01*
X639245Y610116D01*
X638453Y610939D01*
X638445Y610940D01*
X638445Y610946D01*
X637490Y611573D01*
X637482Y611572D01*
X637480Y611578D01*
X636410Y611976D01*
X636402Y611974D01*
X636399Y611979D01*
X635266Y612129D01*
X635263Y612127D01*
X635262Y612127D01*
X635260Y612129D01*
X629260Y612129D01*
X629257Y612127D01*
X629255Y612127D01*
X629254Y612129D01*
X628121Y611979D01*
X628115Y611973D01*
X628110Y611976D01*
X627040Y611578D01*
X627036Y611571D01*
X627030Y611573D01*
X626075Y610946D01*
X626072Y610938D01*
X626067Y610939D01*
X625275Y610116D01*
X625274Y610108D01*
X625268Y610107D01*
X624679Y609128D01*
X624680Y609120D01*
X624675Y609118D01*
X624319Y608033D01*
X624322Y608025D01*
X624317Y608022D01*
X624211Y606885D01*
X624215Y606878D01*
X624211Y606874D01*
X624356Y605786D01*
X624362Y605780D01*
X624359Y605775D01*
X624743Y604747D01*
X624749Y604742D01*
X624748Y604737D01*
X625350Y603820D01*
X625358Y603817D01*
X625357Y603811D01*
X626149Y603051D01*
X626157Y603050D01*
X626158Y603044D01*
X627099Y602480D01*
X627107Y602481D01*
X627109Y602475D01*
X628152Y602134D01*
X628160Y602136D01*
X628163Y602132D01*
X629256Y602031D01*
X629258Y602033D01*
X629260Y602031D01*
X635260Y602031D01*
X635263Y602033D01*
G37*
G36*
X635263Y139753D02*
X635263Y139753D01*
X635265Y139751D01*
X636357Y139852D01*
X636363Y139857D01*
X636368Y139854D01*
X637411Y140195D01*
X637416Y140202D01*
X637421Y140200D01*
X638362Y140764D01*
X638365Y140772D01*
X638371Y140771D01*
X639163Y141531D01*
X639164Y141539D01*
X639170Y141540D01*
X639773Y142457D01*
X639772Y142465D01*
X639778Y142467D01*
X640161Y143495D01*
X640159Y143503D01*
X640164Y143506D01*
X640309Y144594D01*
X640305Y144601D01*
X640309Y144605D01*
X640203Y145742D01*
X640198Y145748D01*
X640201Y145753D01*
X639845Y146838D01*
X639838Y146843D01*
X639841Y146848D01*
X639252Y147827D01*
X639244Y147830D01*
X639245Y147836D01*
X638453Y148659D01*
X638445Y148660D01*
X638445Y148666D01*
X637490Y149293D01*
X637482Y149292D01*
X637480Y149298D01*
X636410Y149696D01*
X636402Y149694D01*
X636399Y149699D01*
X635266Y149849D01*
X635263Y149847D01*
X635262Y149847D01*
X635260Y149849D01*
X629260Y149849D01*
X629257Y149847D01*
X629255Y149847D01*
X629254Y149849D01*
X628121Y149699D01*
X628115Y149693D01*
X628110Y149696D01*
X627040Y149298D01*
X627036Y149291D01*
X627030Y149293D01*
X626075Y148666D01*
X626072Y148658D01*
X626067Y148659D01*
X625275Y147836D01*
X625274Y147828D01*
X625268Y147827D01*
X624679Y146848D01*
X624680Y146840D01*
X624675Y146838D01*
X624319Y145753D01*
X624322Y145745D01*
X624317Y145742D01*
X624211Y144605D01*
X624215Y144598D01*
X624211Y144594D01*
X624356Y143506D01*
X624362Y143500D01*
X624359Y143495D01*
X624743Y142467D01*
X624749Y142462D01*
X624748Y142457D01*
X625350Y141540D01*
X625358Y141537D01*
X625357Y141531D01*
X626149Y140771D01*
X626157Y140770D01*
X626158Y140764D01*
X627099Y140200D01*
X627107Y140201D01*
X627109Y140195D01*
X628152Y139854D01*
X628160Y139856D01*
X628163Y139852D01*
X629256Y139751D01*
X629258Y139753D01*
X629260Y139751D01*
X635260Y139751D01*
X635263Y139753D01*
G37*
D10*
X60100Y94100D03*
X60100Y99100D03*
D11*
X60100Y69350D03*
X60100Y77100D03*
D10*
X60100Y84100D03*
X60100Y89100D03*
X60100Y109100D03*
X60100Y104100D03*
D11*
X60100Y133850D03*
X60100Y126100D03*
D10*
X60100Y119100D03*
X60100Y114100D03*
D12*
X76200Y135500D03*
X76200Y118500D03*
X76200Y67700D03*
X76200Y84700D03*
D13*
X101600Y101600D03*
D14*
X91850Y87850D03*
X98350Y87850D03*
X104850Y87850D03*
X111350Y87850D03*
X111350Y115350D03*
X104850Y115350D03*
X98350Y115350D03*
X91850Y115350D03*
D15*
X93100Y139700D03*
X110100Y139700D03*
X67700Y406400D03*
X84700Y406400D03*
D16*
X572690Y71060D03*
X572690Y127060D03*
D17*
X535940Y84060D03*
X535940Y94060D03*
X535940Y104060D03*
X535940Y114060D03*
D15*
X503800Y76200D03*
X486800Y76200D03*
X503800Y127000D03*
X486800Y127000D03*
D18*
X269240Y31750D03*
X213360Y31750D03*
X269240Y69850D03*
X213360Y69850D03*
D15*
X93100Y154940D03*
X110100Y154940D03*
D19*
X23100Y177800D03*
X53100Y177800D03*
D20*
X102900Y177800D03*
X74900Y177800D03*
D12*
X152400Y143900D03*
X152400Y160900D03*
X137160Y160900D03*
X137160Y143900D03*
D18*
X370840Y31750D03*
X314960Y31750D03*
X370840Y69850D03*
X314960Y69850D03*
D21*
X161100Y316200D03*
X161100Y373200D03*
D22*
X29600Y389200D03*
X19600Y257700D03*
D23*
X58100Y304300D03*
X62100Y315300D03*
X58100Y326300D03*
X56100Y337300D03*
X58100Y348300D03*
X56100Y359300D03*
X58100Y370300D03*
X58100Y381300D03*
D12*
X127000Y110100D03*
X127000Y93100D03*
D24*
X146050Y113100D03*
X146050Y90100D03*
D15*
X478400Y38100D03*
X461400Y38100D03*
D25*
X464630Y28900D02*
X464630Y21900D01*
X457630Y21900D01*
X457630Y28900D01*
X464630Y28900D01*
X464630Y24750D02*
X457630Y24750D01*
X457630Y27600D02*
X464630Y27600D01*
X482170Y28900D02*
X482170Y21900D01*
X475170Y21900D01*
X475170Y28900D01*
X482170Y28900D01*
X482170Y24750D02*
X475170Y24750D01*
X475170Y27600D02*
X482170Y27600D01*
D12*
X139700Y58810D03*
X139700Y75810D03*
X154940Y58810D03*
X154940Y75810D03*
X170180Y58810D03*
X170180Y75810D03*
D26*
X196300Y99700D03*
X196300Y306700D03*
D27*
X264050Y293200D03*
X264050Y283200D03*
X264050Y278200D03*
X264050Y288200D03*
X264050Y273200D03*
X264050Y263200D03*
X264050Y258200D03*
X264050Y268200D03*
X264050Y253200D03*
X264050Y243200D03*
X264050Y238200D03*
X264050Y248200D03*
X264050Y233200D03*
X264050Y223200D03*
X264050Y218200D03*
X264050Y228200D03*
X264050Y213200D03*
X264050Y203200D03*
X264050Y198200D03*
X264050Y208200D03*
X264050Y193200D03*
X264050Y188200D03*
X264050Y163200D03*
X264050Y158200D03*
X264050Y153200D03*
X264050Y143200D03*
X264050Y138200D03*
X264050Y148200D03*
X264050Y133200D03*
X264050Y123200D03*
X264050Y118200D03*
X264050Y128200D03*
X264050Y113200D03*
X188550Y295700D03*
X188550Y285700D03*
X188550Y280700D03*
X188550Y290700D03*
X188550Y275700D03*
X188550Y265700D03*
X188550Y260700D03*
X188550Y270700D03*
X188550Y255700D03*
X188550Y245700D03*
X188550Y240700D03*
X188550Y250700D03*
X188550Y235700D03*
X188550Y225700D03*
X188550Y220700D03*
X188550Y230700D03*
X188550Y215700D03*
X188550Y205700D03*
X188550Y200700D03*
X188550Y210700D03*
X188550Y195700D03*
X188550Y190700D03*
X188550Y165700D03*
X188550Y160700D03*
X188550Y155700D03*
X188550Y145700D03*
X188550Y140700D03*
X188550Y150700D03*
X188550Y135700D03*
X188550Y125700D03*
X188550Y120700D03*
X188550Y130700D03*
X188550Y115700D03*
X188550Y110700D03*
D15*
X516500Y38100D03*
X499500Y38100D03*
D25*
X502730Y28900D02*
X502730Y21900D01*
X495730Y21900D01*
X495730Y28900D01*
X502730Y28900D01*
X502730Y24750D02*
X495730Y24750D01*
X495730Y27600D02*
X502730Y27600D01*
X520270Y28900D02*
X520270Y21900D01*
X513270Y21900D01*
X513270Y28900D01*
X520270Y28900D01*
X520270Y24750D02*
X513270Y24750D01*
X513270Y27600D02*
X520270Y27600D01*
D15*
X448700Y292100D03*
X465700Y292100D03*
X448700Y279400D03*
X465700Y279400D03*
X448700Y266700D03*
X465700Y266700D03*
X448700Y254000D03*
X465700Y254000D03*
X448700Y241300D03*
X465700Y241300D03*
X448700Y228600D03*
X465700Y228600D03*
X448700Y215900D03*
X465700Y215900D03*
X448700Y203200D03*
X465700Y203200D03*
D28*
X503750Y228600D03*
X503750Y238600D03*
X503750Y233600D03*
X503750Y243600D03*
X503750Y248600D03*
X503750Y253600D03*
X503750Y258600D03*
X503750Y263600D03*
X503750Y268600D03*
X503750Y273600D03*
X503750Y223600D03*
X503750Y218600D03*
X503750Y213600D03*
X503750Y208600D03*
X503750Y203600D03*
X503750Y198600D03*
X503750Y193600D03*
X503750Y188600D03*
X503750Y183600D03*
D29*
X501350Y156100D02*
X521350Y156100D01*
X520850Y301100D02*
X500850Y301100D01*
X566800Y301100D02*
X575100Y301100D01*
X575400Y156100D02*
X567100Y156100D01*
D30*
X49600Y228600D03*
X26600Y228600D03*
X77400Y228600D03*
X100400Y228600D03*
D10*
X679860Y94100D03*
X679860Y99100D03*
D11*
X679860Y69350D03*
X679860Y77100D03*
D10*
X679860Y84100D03*
X679860Y89100D03*
X679860Y109100D03*
X679860Y104100D03*
D11*
X679860Y133850D03*
X679860Y126100D03*
D10*
X679860Y119100D03*
X679860Y114100D03*
D12*
X695960Y135500D03*
X695960Y118500D03*
X695960Y67700D03*
X695960Y84700D03*
D13*
X721360Y101600D03*
D14*
X711610Y87850D03*
X718110Y87850D03*
X724610Y87850D03*
X731110Y87850D03*
X731110Y115350D03*
X724610Y115350D03*
X718110Y115350D03*
X711610Y115350D03*
D15*
X712860Y139700D03*
X729860Y139700D03*
X687460Y406400D03*
X704460Y406400D03*
D16*
X1192450Y71060D03*
X1192450Y127060D03*
D17*
X1155700Y84060D03*
X1155700Y94060D03*
X1155700Y104060D03*
X1155700Y114060D03*
D15*
X1123560Y76200D03*
X1106560Y76200D03*
X1123560Y127000D03*
X1106560Y127000D03*
D18*
X889000Y31750D03*
X833120Y31750D03*
X889000Y69850D03*
X833120Y69850D03*
D15*
X712860Y154940D03*
X729860Y154940D03*
D19*
X642860Y177800D03*
X672860Y177800D03*
D20*
X722660Y177800D03*
X694660Y177800D03*
D12*
X772160Y143900D03*
X772160Y160900D03*
X756920Y160900D03*
X756920Y143900D03*
D18*
X990600Y31750D03*
X934720Y31750D03*
X990600Y69850D03*
X934720Y69850D03*
D21*
X780860Y316200D03*
X780860Y373200D03*
D22*
X649360Y389200D03*
X639360Y257700D03*
D23*
X677860Y304300D03*
X681860Y315300D03*
X677860Y326300D03*
X675860Y337300D03*
X677860Y348300D03*
X675860Y359300D03*
X677860Y370300D03*
X677860Y381300D03*
D12*
X746760Y110100D03*
X746760Y93100D03*
D24*
X765810Y113100D03*
X765810Y90100D03*
D15*
X1098160Y38100D03*
X1081160Y38100D03*
D25*
X1084390Y28900D02*
X1084390Y21900D01*
X1077390Y21900D01*
X1077390Y28900D01*
X1084390Y28900D01*
X1084390Y24750D02*
X1077390Y24750D01*
X1077390Y27600D02*
X1084390Y27600D01*
X1101930Y28900D02*
X1101930Y21900D01*
X1094930Y21900D01*
X1094930Y28900D01*
X1101930Y28900D01*
X1101930Y24750D02*
X1094930Y24750D01*
X1094930Y27600D02*
X1101930Y27600D01*
D12*
X759460Y58810D03*
X759460Y75810D03*
X774700Y58810D03*
X774700Y75810D03*
X789940Y58810D03*
X789940Y75810D03*
D26*
X816060Y99700D03*
X816060Y306700D03*
D27*
X883810Y293200D03*
X883810Y283200D03*
X883810Y278200D03*
X883810Y288200D03*
X883810Y273200D03*
X883810Y263200D03*
X883810Y258200D03*
X883810Y268200D03*
X883810Y253200D03*
X883810Y243200D03*
X883810Y238200D03*
X883810Y248200D03*
X883810Y233200D03*
X883810Y223200D03*
X883810Y218200D03*
X883810Y228200D03*
X883810Y213200D03*
X883810Y203200D03*
X883810Y198200D03*
X883810Y208200D03*
X883810Y193200D03*
X883810Y188200D03*
X883810Y163200D03*
X883810Y158200D03*
X883810Y153200D03*
X883810Y143200D03*
X883810Y138200D03*
X883810Y148200D03*
X883810Y133200D03*
X883810Y123200D03*
X883810Y118200D03*
X883810Y128200D03*
X883810Y113200D03*
X808310Y295700D03*
X808310Y285700D03*
X808310Y280700D03*
X808310Y290700D03*
X808310Y275700D03*
X808310Y265700D03*
X808310Y260700D03*
X808310Y270700D03*
X808310Y255700D03*
X808310Y245700D03*
X808310Y240700D03*
X808310Y250700D03*
X808310Y235700D03*
X808310Y225700D03*
X808310Y220700D03*
X808310Y230700D03*
X808310Y215700D03*
X808310Y205700D03*
X808310Y200700D03*
X808310Y210700D03*
X808310Y195700D03*
X808310Y190700D03*
X808310Y165700D03*
X808310Y160700D03*
X808310Y155700D03*
X808310Y145700D03*
X808310Y140700D03*
X808310Y150700D03*
X808310Y135700D03*
X808310Y125700D03*
X808310Y120700D03*
X808310Y130700D03*
X808310Y115700D03*
X808310Y110700D03*
D15*
X1136260Y38100D03*
X1119260Y38100D03*
D25*
X1122490Y28900D02*
X1122490Y21900D01*
X1115490Y21900D01*
X1115490Y28900D01*
X1122490Y28900D01*
X1122490Y24750D02*
X1115490Y24750D01*
X1115490Y27600D02*
X1122490Y27600D01*
X1140030Y28900D02*
X1140030Y21900D01*
X1133030Y21900D01*
X1133030Y28900D01*
X1140030Y28900D01*
X1140030Y24750D02*
X1133030Y24750D01*
X1133030Y27600D02*
X1140030Y27600D01*
D15*
X1068460Y292100D03*
X1085460Y292100D03*
X1068460Y279400D03*
X1085460Y279400D03*
X1068460Y266700D03*
X1085460Y266700D03*
X1068460Y254000D03*
X1085460Y254000D03*
X1068460Y241300D03*
X1085460Y241300D03*
X1068460Y228600D03*
X1085460Y228600D03*
X1068460Y215900D03*
X1085460Y215900D03*
X1068460Y203200D03*
X1085460Y203200D03*
D28*
X1123510Y228600D03*
X1123510Y238600D03*
X1123510Y233600D03*
X1123510Y243600D03*
X1123510Y248600D03*
X1123510Y253600D03*
X1123510Y258600D03*
X1123510Y263600D03*
X1123510Y268600D03*
X1123510Y273600D03*
X1123510Y223600D03*
X1123510Y218600D03*
X1123510Y213600D03*
X1123510Y208600D03*
X1123510Y203600D03*
X1123510Y198600D03*
X1123510Y193600D03*
X1123510Y188600D03*
X1123510Y183600D03*
D29*
X1121110Y156100D02*
X1141110Y156100D01*
X1140610Y301100D02*
X1120610Y301100D01*
X1186560Y301100D02*
X1194860Y301100D01*
X1195160Y156100D02*
X1186860Y156100D01*
D30*
X669360Y228600D03*
X646360Y228600D03*
X697160Y228600D03*
X720160Y228600D03*
D10*
X60100Y556380D03*
X60100Y561380D03*
D11*
X60100Y531630D03*
X60100Y539380D03*
D10*
X60100Y546380D03*
X60100Y551380D03*
X60100Y571380D03*
X60100Y566380D03*
D11*
X60100Y596130D03*
X60100Y588380D03*
D10*
X60100Y581380D03*
X60100Y576380D03*
D12*
X76200Y597780D03*
X76200Y580780D03*
X76200Y529980D03*
X76200Y546980D03*
D13*
X101600Y563880D03*
D14*
X91850Y550130D03*
X98350Y550130D03*
X104850Y550130D03*
X111350Y550130D03*
X111350Y577630D03*
X104850Y577630D03*
X98350Y577630D03*
X91850Y577630D03*
D15*
X93100Y601980D03*
X110100Y601980D03*
X67700Y868680D03*
X84700Y868680D03*
D16*
X572690Y533340D03*
X572690Y589340D03*
D17*
X535940Y546340D03*
X535940Y556340D03*
X535940Y566340D03*
X535940Y576340D03*
D15*
X503800Y538480D03*
X486800Y538480D03*
X503800Y589280D03*
X486800Y589280D03*
D18*
X269240Y494030D03*
X213360Y494030D03*
X269240Y532130D03*
X213360Y532130D03*
D15*
X93100Y617220D03*
X110100Y617220D03*
D19*
X23100Y640080D03*
X53100Y640080D03*
D20*
X102900Y640080D03*
X74900Y640080D03*
D12*
X152400Y606180D03*
X152400Y623180D03*
X137160Y623180D03*
X137160Y606180D03*
D18*
X370840Y494030D03*
X314960Y494030D03*
X370840Y532130D03*
X314960Y532130D03*
D21*
X161100Y778480D03*
X161100Y835480D03*
D22*
X29600Y851480D03*
X19600Y719980D03*
D23*
X58100Y766580D03*
X62100Y777580D03*
X58100Y788580D03*
X56100Y799580D03*
X58100Y810580D03*
X56100Y821580D03*
X58100Y832580D03*
X58100Y843580D03*
D12*
X127000Y572380D03*
X127000Y555380D03*
D24*
X146050Y575380D03*
X146050Y552380D03*
D15*
X478400Y500380D03*
X461400Y500380D03*
D25*
X464630Y491180D02*
X464630Y484180D01*
X457630Y484180D01*
X457630Y491180D01*
X464630Y491180D01*
X464630Y487030D02*
X457630Y487030D01*
X457630Y489880D02*
X464630Y489880D01*
X482170Y491180D02*
X482170Y484180D01*
X475170Y484180D01*
X475170Y491180D01*
X482170Y491180D01*
X482170Y487030D02*
X475170Y487030D01*
X475170Y489880D02*
X482170Y489880D01*
D12*
X139700Y521090D03*
X139700Y538090D03*
X154940Y521090D03*
X154940Y538090D03*
X170180Y521090D03*
X170180Y538090D03*
D26*
X196300Y561980D03*
X196300Y768980D03*
D27*
X264050Y755480D03*
X264050Y745480D03*
X264050Y740480D03*
X264050Y750480D03*
X264050Y735480D03*
X264050Y725480D03*
X264050Y720480D03*
X264050Y730480D03*
X264050Y715480D03*
X264050Y705480D03*
X264050Y700480D03*
X264050Y710480D03*
X264050Y695480D03*
X264050Y685480D03*
X264050Y680480D03*
X264050Y690480D03*
X264050Y675480D03*
X264050Y665480D03*
X264050Y660480D03*
X264050Y670480D03*
X264050Y655480D03*
X264050Y650480D03*
X264050Y625480D03*
X264050Y620480D03*
X264050Y615480D03*
X264050Y605480D03*
X264050Y600480D03*
X264050Y610480D03*
X264050Y595480D03*
X264050Y585480D03*
X264050Y580480D03*
X264050Y590480D03*
X264050Y575480D03*
X188550Y757980D03*
X188550Y747980D03*
X188550Y742980D03*
X188550Y752980D03*
X188550Y737980D03*
X188550Y727980D03*
X188550Y722980D03*
X188550Y732980D03*
X188550Y717980D03*
X188550Y707980D03*
X188550Y702980D03*
X188550Y712980D03*
X188550Y697980D03*
X188550Y687980D03*
X188550Y682980D03*
X188550Y692980D03*
X188550Y677980D03*
X188550Y667980D03*
X188550Y662980D03*
X188550Y672980D03*
X188550Y657980D03*
X188550Y652980D03*
X188550Y627980D03*
X188550Y622980D03*
X188550Y617980D03*
X188550Y607980D03*
X188550Y602980D03*
X188550Y612980D03*
X188550Y597980D03*
X188550Y587980D03*
X188550Y582980D03*
X188550Y592980D03*
X188550Y577980D03*
X188550Y572980D03*
D15*
X516500Y500380D03*
X499500Y500380D03*
D25*
X502730Y491180D02*
X502730Y484180D01*
X495730Y484180D01*
X495730Y491180D01*
X502730Y491180D01*
X502730Y487030D02*
X495730Y487030D01*
X495730Y489880D02*
X502730Y489880D01*
X520270Y491180D02*
X520270Y484180D01*
X513270Y484180D01*
X513270Y491180D01*
X520270Y491180D01*
X520270Y487030D02*
X513270Y487030D01*
X513270Y489880D02*
X520270Y489880D01*
D15*
X448700Y754380D03*
X465700Y754380D03*
X448700Y741680D03*
X465700Y741680D03*
X448700Y728980D03*
X465700Y728980D03*
X448700Y716280D03*
X465700Y716280D03*
X448700Y703580D03*
X465700Y703580D03*
X448700Y690880D03*
X465700Y690880D03*
X448700Y678180D03*
X465700Y678180D03*
X448700Y665480D03*
X465700Y665480D03*
D28*
X503750Y690880D03*
X503750Y700880D03*
X503750Y695880D03*
X503750Y705880D03*
X503750Y710880D03*
X503750Y715880D03*
X503750Y720880D03*
X503750Y725880D03*
X503750Y730880D03*
X503750Y735880D03*
X503750Y685880D03*
X503750Y680880D03*
X503750Y675880D03*
X503750Y670880D03*
X503750Y665880D03*
X503750Y660880D03*
X503750Y655880D03*
X503750Y650880D03*
X503750Y645880D03*
D29*
X501350Y618380D02*
X521350Y618380D01*
X520850Y763380D02*
X500850Y763380D01*
X566800Y763380D02*
X575100Y763380D01*
X575400Y618380D02*
X567100Y618380D01*
D30*
X49600Y690880D03*
X26600Y690880D03*
X77400Y690880D03*
X100400Y690880D03*
D10*
X679860Y556380D03*
X679860Y561380D03*
D11*
X679860Y531630D03*
X679860Y539380D03*
D10*
X679860Y546380D03*
X679860Y551380D03*
X679860Y571380D03*
X679860Y566380D03*
D11*
X679860Y596130D03*
X679860Y588380D03*
D10*
X679860Y581380D03*
X679860Y576380D03*
D12*
X695960Y597780D03*
X695960Y580780D03*
X695960Y529980D03*
X695960Y546980D03*
D13*
X721360Y563880D03*
D14*
X711610Y550130D03*
X718110Y550130D03*
X724610Y550130D03*
X731110Y550130D03*
X731110Y577630D03*
X724610Y577630D03*
X718110Y577630D03*
X711610Y577630D03*
D15*
X712860Y601980D03*
X729860Y601980D03*
X687460Y868680D03*
X704460Y868680D03*
D16*
X1192450Y533340D03*
X1192450Y589340D03*
D17*
X1155700Y546340D03*
X1155700Y556340D03*
X1155700Y566340D03*
X1155700Y576340D03*
D15*
X1123560Y538480D03*
X1106560Y538480D03*
X1123560Y589280D03*
X1106560Y589280D03*
D18*
X889000Y494030D03*
X833120Y494030D03*
X889000Y532130D03*
X833120Y532130D03*
D15*
X712860Y617220D03*
X729860Y617220D03*
D19*
X642860Y640080D03*
X672860Y640080D03*
D20*
X722660Y640080D03*
X694660Y640080D03*
D12*
X772160Y606180D03*
X772160Y623180D03*
X756920Y623180D03*
X756920Y606180D03*
D18*
X990600Y494030D03*
X934720Y494030D03*
X990600Y532130D03*
X934720Y532130D03*
D21*
X780860Y778480D03*
X780860Y835480D03*
D22*
X649360Y851480D03*
X639360Y719980D03*
D23*
X677860Y766580D03*
X681860Y777580D03*
X677860Y788580D03*
X675860Y799580D03*
X677860Y810580D03*
X675860Y821580D03*
X677860Y832580D03*
X677860Y843580D03*
D12*
X746760Y572380D03*
X746760Y555380D03*
D24*
X765810Y575380D03*
X765810Y552380D03*
D15*
X1098160Y500380D03*
X1081160Y500380D03*
D25*
X1084390Y491180D02*
X1084390Y484180D01*
X1077390Y484180D01*
X1077390Y491180D01*
X1084390Y491180D01*
X1084390Y487030D02*
X1077390Y487030D01*
X1077390Y489880D02*
X1084390Y489880D01*
X1101930Y491180D02*
X1101930Y484180D01*
X1094930Y484180D01*
X1094930Y491180D01*
X1101930Y491180D01*
X1101930Y487030D02*
X1094930Y487030D01*
X1094930Y489880D02*
X1101930Y489880D01*
D12*
X759460Y521090D03*
X759460Y538090D03*
X774700Y521090D03*
X774700Y538090D03*
X789940Y521090D03*
X789940Y538090D03*
D26*
X816060Y561980D03*
X816060Y768980D03*
D27*
X883810Y755480D03*
X883810Y745480D03*
X883810Y740480D03*
X883810Y750480D03*
X883810Y735480D03*
X883810Y725480D03*
X883810Y720480D03*
X883810Y730480D03*
X883810Y715480D03*
X883810Y705480D03*
X883810Y700480D03*
X883810Y710480D03*
X883810Y695480D03*
X883810Y685480D03*
X883810Y680480D03*
X883810Y690480D03*
X883810Y675480D03*
X883810Y665480D03*
X883810Y660480D03*
X883810Y670480D03*
X883810Y655480D03*
X883810Y650480D03*
X883810Y625480D03*
X883810Y620480D03*
X883810Y615480D03*
X883810Y605480D03*
X883810Y600480D03*
X883810Y610480D03*
X883810Y595480D03*
X883810Y585480D03*
X883810Y580480D03*
X883810Y590480D03*
X883810Y575480D03*
X808310Y757980D03*
X808310Y747980D03*
X808310Y742980D03*
X808310Y752980D03*
X808310Y737980D03*
X808310Y727980D03*
X808310Y722980D03*
X808310Y732980D03*
X808310Y717980D03*
X808310Y707980D03*
X808310Y702980D03*
X808310Y712980D03*
X808310Y697980D03*
X808310Y687980D03*
X808310Y682980D03*
X808310Y692980D03*
X808310Y677980D03*
X808310Y667980D03*
X808310Y662980D03*
X808310Y672980D03*
X808310Y657980D03*
X808310Y652980D03*
X808310Y627980D03*
X808310Y622980D03*
X808310Y617980D03*
X808310Y607980D03*
X808310Y602980D03*
X808310Y612980D03*
X808310Y597980D03*
X808310Y587980D03*
X808310Y582980D03*
X808310Y592980D03*
X808310Y577980D03*
X808310Y572980D03*
D15*
X1136260Y500380D03*
X1119260Y500380D03*
D25*
X1122490Y491180D02*
X1122490Y484180D01*
X1115490Y484180D01*
X1115490Y491180D01*
X1122490Y491180D01*
X1122490Y487030D02*
X1115490Y487030D01*
X1115490Y489880D02*
X1122490Y489880D01*
X1140030Y491180D02*
X1140030Y484180D01*
X1133030Y484180D01*
X1133030Y491180D01*
X1140030Y491180D01*
X1140030Y487030D02*
X1133030Y487030D01*
X1133030Y489880D02*
X1140030Y489880D01*
D15*
X1068460Y754380D03*
X1085460Y754380D03*
X1068460Y741680D03*
X1085460Y741680D03*
X1068460Y728980D03*
X1085460Y728980D03*
X1068460Y716280D03*
X1085460Y716280D03*
X1068460Y703580D03*
X1085460Y703580D03*
X1068460Y690880D03*
X1085460Y690880D03*
X1068460Y678180D03*
X1085460Y678180D03*
X1068460Y665480D03*
X1085460Y665480D03*
D28*
X1123510Y690880D03*
X1123510Y700880D03*
X1123510Y695880D03*
X1123510Y705880D03*
X1123510Y710880D03*
X1123510Y715880D03*
X1123510Y720880D03*
X1123510Y725880D03*
X1123510Y730880D03*
X1123510Y735880D03*
X1123510Y685880D03*
X1123510Y680880D03*
X1123510Y675880D03*
X1123510Y670880D03*
X1123510Y665880D03*
X1123510Y660880D03*
X1123510Y655880D03*
X1123510Y650880D03*
X1123510Y645880D03*
D29*
X1121110Y618380D02*
X1141110Y618380D01*
X1140610Y763380D02*
X1120610Y763380D01*
X1186560Y763380D02*
X1194860Y763380D01*
X1195160Y618380D02*
X1186860Y618380D01*
D30*
X669360Y690880D03*
X646360Y690880D03*
X697160Y690880D03*
X720160Y690880D03*
D10*
X60100Y1018660D03*
X60100Y1023660D03*
D11*
X60100Y993910D03*
X60100Y1001660D03*
D10*
X60100Y1008660D03*
X60100Y1013660D03*
X60100Y1033660D03*
X60100Y1028660D03*
D11*
X60100Y1058410D03*
X60100Y1050660D03*
D10*
X60100Y1043660D03*
X60100Y1038660D03*
D12*
X76200Y1060060D03*
X76200Y1043060D03*
X76200Y992260D03*
X76200Y1009260D03*
D13*
X101600Y1026160D03*
D14*
X91850Y1012410D03*
X98350Y1012410D03*
X104850Y1012410D03*
X111350Y1012410D03*
X111350Y1039910D03*
X104850Y1039910D03*
X98350Y1039910D03*
X91850Y1039910D03*
D15*
X93100Y1064260D03*
X110100Y1064260D03*
X67700Y1330960D03*
X84700Y1330960D03*
D16*
X572690Y995620D03*
X572690Y1051620D03*
D17*
X535940Y1008620D03*
X535940Y1018620D03*
X535940Y1028620D03*
X535940Y1038620D03*
D15*
X503800Y1000760D03*
X486800Y1000760D03*
X503800Y1051560D03*
X486800Y1051560D03*
D18*
X269240Y956310D03*
X213360Y956310D03*
X269240Y994410D03*
X213360Y994410D03*
D15*
X93100Y1079500D03*
X110100Y1079500D03*
D19*
X23100Y1102360D03*
X53100Y1102360D03*
D20*
X102900Y1102360D03*
X74900Y1102360D03*
D12*
X152400Y1068460D03*
X152400Y1085460D03*
X137160Y1085460D03*
X137160Y1068460D03*
D18*
X370840Y956310D03*
X314960Y956310D03*
X370840Y994410D03*
X314960Y994410D03*
D21*
X161100Y1240760D03*
X161100Y1297760D03*
D22*
X29600Y1313760D03*
X19600Y1182260D03*
D23*
X58100Y1228860D03*
X62100Y1239860D03*
X58100Y1250860D03*
X56100Y1261860D03*
X58100Y1272860D03*
X56100Y1283860D03*
X58100Y1294860D03*
X58100Y1305860D03*
D12*
X127000Y1034660D03*
X127000Y1017660D03*
D24*
X146050Y1037660D03*
X146050Y1014660D03*
D15*
X478400Y962660D03*
X461400Y962660D03*
D25*
X464630Y953460D02*
X464630Y946460D01*
X457630Y946460D01*
X457630Y953460D01*
X464630Y953460D01*
X464630Y949310D02*
X457630Y949310D01*
X457630Y952160D02*
X464630Y952160D01*
X482170Y953460D02*
X482170Y946460D01*
X475170Y946460D01*
X475170Y953460D01*
X482170Y953460D01*
X482170Y949310D02*
X475170Y949310D01*
X475170Y952160D02*
X482170Y952160D01*
D12*
X139700Y983370D03*
X139700Y1000370D03*
X154940Y983370D03*
X154940Y1000370D03*
X170180Y983370D03*
X170180Y1000370D03*
D26*
X196300Y1024260D03*
X196300Y1231260D03*
D27*
X264050Y1217760D03*
X264050Y1207760D03*
X264050Y1202760D03*
X264050Y1212760D03*
X264050Y1197760D03*
X264050Y1187760D03*
X264050Y1182760D03*
X264050Y1192760D03*
X264050Y1177760D03*
X264050Y1167760D03*
X264050Y1162760D03*
X264050Y1172760D03*
X264050Y1157760D03*
X264050Y1147760D03*
X264050Y1142760D03*
X264050Y1152760D03*
X264050Y1137760D03*
X264050Y1127760D03*
X264050Y1122760D03*
X264050Y1132760D03*
X264050Y1117760D03*
X264050Y1112760D03*
X264050Y1087760D03*
X264050Y1082760D03*
X264050Y1077760D03*
X264050Y1067760D03*
X264050Y1062760D03*
X264050Y1072760D03*
X264050Y1057760D03*
X264050Y1047760D03*
X264050Y1042760D03*
X264050Y1052760D03*
X264050Y1037760D03*
X188550Y1220260D03*
X188550Y1210260D03*
X188550Y1205260D03*
X188550Y1215260D03*
X188550Y1200260D03*
X188550Y1190260D03*
X188550Y1185260D03*
X188550Y1195260D03*
X188550Y1180260D03*
X188550Y1170260D03*
X188550Y1165260D03*
X188550Y1175260D03*
X188550Y1160260D03*
X188550Y1150260D03*
X188550Y1145260D03*
X188550Y1155260D03*
X188550Y1140260D03*
X188550Y1130260D03*
X188550Y1125260D03*
X188550Y1135260D03*
X188550Y1120260D03*
X188550Y1115260D03*
X188550Y1090260D03*
X188550Y1085260D03*
X188550Y1080260D03*
X188550Y1070260D03*
X188550Y1065260D03*
X188550Y1075260D03*
X188550Y1060260D03*
X188550Y1050260D03*
X188550Y1045260D03*
X188550Y1055260D03*
X188550Y1040260D03*
X188550Y1035260D03*
D15*
X516500Y962660D03*
X499500Y962660D03*
D25*
X502730Y953460D02*
X502730Y946460D01*
X495730Y946460D01*
X495730Y953460D01*
X502730Y953460D01*
X502730Y949310D02*
X495730Y949310D01*
X495730Y952160D02*
X502730Y952160D01*
X520270Y953460D02*
X520270Y946460D01*
X513270Y946460D01*
X513270Y953460D01*
X520270Y953460D01*
X520270Y949310D02*
X513270Y949310D01*
X513270Y952160D02*
X520270Y952160D01*
D15*
X448700Y1216660D03*
X465700Y1216660D03*
X448700Y1203960D03*
X465700Y1203960D03*
X448700Y1191260D03*
X465700Y1191260D03*
X448700Y1178560D03*
X465700Y1178560D03*
X448700Y1165860D03*
X465700Y1165860D03*
X448700Y1153160D03*
X465700Y1153160D03*
X448700Y1140460D03*
X465700Y1140460D03*
X448700Y1127760D03*
X465700Y1127760D03*
D28*
X503750Y1153160D03*
X503750Y1163160D03*
X503750Y1158160D03*
X503750Y1168160D03*
X503750Y1173160D03*
X503750Y1178160D03*
X503750Y1183160D03*
X503750Y1188160D03*
X503750Y1193160D03*
X503750Y1198160D03*
X503750Y1148160D03*
X503750Y1143160D03*
X503750Y1138160D03*
X503750Y1133160D03*
X503750Y1128160D03*
X503750Y1123160D03*
X503750Y1118160D03*
X503750Y1113160D03*
X503750Y1108160D03*
D29*
X501350Y1080660D02*
X521350Y1080660D01*
X520850Y1225660D02*
X500850Y1225660D01*
X566800Y1225660D02*
X575100Y1225660D01*
X575400Y1080660D02*
X567100Y1080660D01*
D30*
X49600Y1153160D03*
X26600Y1153160D03*
X77400Y1153160D03*
X100400Y1153160D03*
D10*
X679860Y1018660D03*
X679860Y1023660D03*
D11*
X679860Y993910D03*
X679860Y1001660D03*
D10*
X679860Y1008660D03*
X679860Y1013660D03*
X679860Y1033660D03*
X679860Y1028660D03*
D11*
X679860Y1058410D03*
X679860Y1050660D03*
D10*
X679860Y1043660D03*
X679860Y1038660D03*
D12*
X695960Y1060060D03*
X695960Y1043060D03*
X695960Y992260D03*
X695960Y1009260D03*
D13*
X721360Y1026160D03*
D14*
X711610Y1012410D03*
X718110Y1012410D03*
X724610Y1012410D03*
X731110Y1012410D03*
X731110Y1039910D03*
X724610Y1039910D03*
X718110Y1039910D03*
X711610Y1039910D03*
D15*
X712860Y1064260D03*
X729860Y1064260D03*
X687460Y1330960D03*
X704460Y1330960D03*
D16*
X1192450Y995620D03*
X1192450Y1051620D03*
D17*
X1155700Y1008620D03*
X1155700Y1018620D03*
X1155700Y1028620D03*
X1155700Y1038620D03*
D15*
X1123560Y1000760D03*
X1106560Y1000760D03*
X1123560Y1051560D03*
X1106560Y1051560D03*
D18*
X889000Y956310D03*
X833120Y956310D03*
X889000Y994410D03*
X833120Y994410D03*
D15*
X712860Y1079500D03*
X729860Y1079500D03*
D19*
X642860Y1102360D03*
X672860Y1102360D03*
D20*
X722660Y1102360D03*
X694660Y1102360D03*
D12*
X772160Y1068460D03*
X772160Y1085460D03*
X756920Y1085460D03*
X756920Y1068460D03*
D18*
X990600Y956310D03*
X934720Y956310D03*
X990600Y994410D03*
X934720Y994410D03*
D21*
X780860Y1240760D03*
X780860Y1297760D03*
D22*
X649360Y1313760D03*
X639360Y1182260D03*
D23*
X677860Y1228860D03*
X681860Y1239860D03*
X677860Y1250860D03*
X675860Y1261860D03*
X677860Y1272860D03*
X675860Y1283860D03*
X677860Y1294860D03*
X677860Y1305860D03*
D12*
X746760Y1034660D03*
X746760Y1017660D03*
D24*
X765810Y1037660D03*
X765810Y1014660D03*
D15*
X1098160Y962660D03*
X1081160Y962660D03*
D25*
X1084390Y953460D02*
X1084390Y946460D01*
X1077390Y946460D01*
X1077390Y953460D01*
X1084390Y953460D01*
X1084390Y949310D02*
X1077390Y949310D01*
X1077390Y952160D02*
X1084390Y952160D01*
X1101930Y953460D02*
X1101930Y946460D01*
X1094930Y946460D01*
X1094930Y953460D01*
X1101930Y953460D01*
X1101930Y949310D02*
X1094930Y949310D01*
X1094930Y952160D02*
X1101930Y952160D01*
D12*
X759460Y983370D03*
X759460Y1000370D03*
X774700Y983370D03*
X774700Y1000370D03*
X789940Y983370D03*
X789940Y1000370D03*
D26*
X816060Y1024260D03*
X816060Y1231260D03*
D27*
X883810Y1217760D03*
X883810Y1207760D03*
X883810Y1202760D03*
X883810Y1212760D03*
X883810Y1197760D03*
X883810Y1187760D03*
X883810Y1182760D03*
X883810Y1192760D03*
X883810Y1177760D03*
X883810Y1167760D03*
X883810Y1162760D03*
X883810Y1172760D03*
X883810Y1157760D03*
X883810Y1147760D03*
X883810Y1142760D03*
X883810Y1152760D03*
X883810Y1137760D03*
X883810Y1127760D03*
X883810Y1122760D03*
X883810Y1132760D03*
X883810Y1117760D03*
X883810Y1112760D03*
X883810Y1087760D03*
X883810Y1082760D03*
X883810Y1077760D03*
X883810Y1067760D03*
X883810Y1062760D03*
X883810Y1072760D03*
X883810Y1057760D03*
X883810Y1047760D03*
X883810Y1042760D03*
X883810Y1052760D03*
X883810Y1037760D03*
X808310Y1220260D03*
X808310Y1210260D03*
X808310Y1205260D03*
X808310Y1215260D03*
X808310Y1200260D03*
X808310Y1190260D03*
X808310Y1185260D03*
X808310Y1195260D03*
X808310Y1180260D03*
X808310Y1170260D03*
X808310Y1165260D03*
X808310Y1175260D03*
X808310Y1160260D03*
X808310Y1150260D03*
X808310Y1145260D03*
X808310Y1155260D03*
X808310Y1140260D03*
X808310Y1130260D03*
X808310Y1125260D03*
X808310Y1135260D03*
X808310Y1120260D03*
X808310Y1115260D03*
X808310Y1090260D03*
X808310Y1085260D03*
X808310Y1080260D03*
X808310Y1070260D03*
X808310Y1065260D03*
X808310Y1075260D03*
X808310Y1060260D03*
X808310Y1050260D03*
X808310Y1045260D03*
X808310Y1055260D03*
X808310Y1040260D03*
X808310Y1035260D03*
D15*
X1136260Y962660D03*
X1119260Y962660D03*
D25*
X1122490Y953460D02*
X1122490Y946460D01*
X1115490Y946460D01*
X1115490Y953460D01*
X1122490Y953460D01*
X1122490Y949310D02*
X1115490Y949310D01*
X1115490Y952160D02*
X1122490Y952160D01*
X1140030Y953460D02*
X1140030Y946460D01*
X1133030Y946460D01*
X1133030Y953460D01*
X1140030Y953460D01*
X1140030Y949310D02*
X1133030Y949310D01*
X1133030Y952160D02*
X1140030Y952160D01*
D15*
X1068460Y1216660D03*
X1085460Y1216660D03*
X1068460Y1203960D03*
X1085460Y1203960D03*
X1068460Y1191260D03*
X1085460Y1191260D03*
X1068460Y1178560D03*
X1085460Y1178560D03*
X1068460Y1165860D03*
X1085460Y1165860D03*
X1068460Y1153160D03*
X1085460Y1153160D03*
X1068460Y1140460D03*
X1085460Y1140460D03*
X1068460Y1127760D03*
X1085460Y1127760D03*
D28*
X1123510Y1153160D03*
X1123510Y1163160D03*
X1123510Y1158160D03*
X1123510Y1168160D03*
X1123510Y1173160D03*
X1123510Y1178160D03*
X1123510Y1183160D03*
X1123510Y1188160D03*
X1123510Y1193160D03*
X1123510Y1198160D03*
X1123510Y1148160D03*
X1123510Y1143160D03*
X1123510Y1138160D03*
X1123510Y1133160D03*
X1123510Y1128160D03*
X1123510Y1123160D03*
X1123510Y1118160D03*
X1123510Y1113160D03*
X1123510Y1108160D03*
D29*
X1121110Y1080660D02*
X1141110Y1080660D01*
X1140610Y1225660D02*
X1120610Y1225660D01*
X1186560Y1225660D02*
X1194860Y1225660D01*
X1195160Y1080660D02*
X1186860Y1080660D01*
D30*
X669360Y1153160D03*
X646360Y1153160D03*
X697160Y1153160D03*
X720160Y1153160D03*
M02*
